<svg preserveAspectRatio="xMidYMid meet"   style="display: block;" viewBox="0 0 315 196" fill="none" xmlns="http://www.w3.org/2000/svg">
<path id="Vector" d="M45.7183 41.3297L45.7183 194.927M90.4365 0.5L90.4365 194.927M135.155 0.5L135.155 194.927M180 0.5L180 190.5M225 0.5V156.5M45.2183 39.8576H314.5M0.5 78.743H314.5M0.5 117.628H314.5M0.5 156.514H303.806M269.31 0.5V156.042M310.5 0.5C312.709 0.500004 314.5 2.29086 314.5 4.5V153.014C314.5 155.223 312.709 157.014 310.5 157.014H180.5V191.5C180.5 193.709 178.709 195.5 176.5 195.5H4.5C2.29086 195.5 0.5 193.709 0.5 191.5V43.5C0.5 41.2909 2.29086 39.5 4.5 39.5H45.2188V4.5C45.2188 2.29086 47.0096 0.5 49.2188 0.5H310.5Z" stroke="#545454"/>
</svg>
