<svg preserveAspectRatio="xMidYMid meet"   style="display: block;" viewBox="0 0 262.065 193.994" fill="none" xmlns="http://www.w3.org/2000/svg">
<path id="Vector 478" d="M261.565 1.49371C243.232 -0.172962 204.365 35.8937 195.565 193.494M261.565 1.49371C225.398 -4.33963 149.065 25.8937 133.065 193.494M261.565 1.49371C207.232 -5.67296 92.6649 22.6937 69.0649 193.494M261.565 1.49371V16.4937M261.565 1.49371C240.603 0.360641 221.13 1.22242 203.065 3.73575M195.565 193.494H256.565C259.326 193.494 261.565 191.255 261.565 188.494M195.565 193.494H133.065M133.065 193.494H69.0649M69.0649 193.494H2.48931C1.23222 193.494 0.285783 192.35 0.542562 191.12C3.72196 175.883 9.69694 157.607 18.9874 138.494M261.565 16.4937C241.565 14.6551 201.865 9.52937 203.065 3.73575M261.565 16.4937V40.4937M203.065 3.73575C187.351 5.92194 172.702 9.35772 159.065 13.8171M261.565 40.4937C219.232 36.7093 139.465 26.0759 159.065 13.8171M261.565 40.4937V77.4937M159.065 13.8171C137.033 21.0217 117.641 30.8982 100.666 42.4937M261.565 77.4937C206.966 76.3271 98.3465 67.6937 100.666 42.4937M261.565 77.4937V128.494M100.666 42.4937C84.0889 53.8169 69.8156 66.7793 57.6364 80.4937M261.565 128.494C193.946 129.994 58.4935 122.494 57.6364 80.4937M261.565 128.494V188.494M57.6364 80.4937C41.0428 99.1789 28.3364 119.26 18.9874 138.494M261.565 188.494C190.513 196.327 42.5254 197.294 18.9874 138.494" stroke="#545454"/>
</svg>
