<svg preserveAspectRatio="xMidYMid meet" width="18.478" height="20" viewBox="0 0 18.478 20" fill="none" xmlns="http://www.w3.org/2000/svg">
<g id="Login">
<path id="Fill 1" fill-rule="evenodd" clip-rule="evenodd" d="M12.791 10.75H0.75C0.336 10.75 0 10.414 0 10C0 9.586 0.336 9.25 0.75 9.25H12.791C13.205 9.25 13.541 9.586 13.541 10C13.541 10.414 13.205 10.75 12.791 10.75" fill="white"/>
<path id="Fill 3" fill-rule="evenodd" clip-rule="evenodd" d="M9.8633 13.665C9.6713 13.665 9.4783 13.592 9.3323 13.444C9.0393 13.15 9.0413 12.676 9.3343 12.384L11.7283 10L9.3343 7.615C9.0413 7.323 9.0393 6.849 9.3323 6.555C9.6253 6.261 10.0993 6.261 10.3923 6.553L13.3213 9.469C13.4633 9.609 13.5423 9.801 13.5423 10C13.5423 10.199 13.4633 10.391 13.3213 10.531L10.3923 13.446C10.2463 13.592 10.0543 13.665 9.8633 13.665" fill="white"/>
<path id="Fill 5" fill-rule="evenodd" clip-rule="evenodd" d="M14.042 20H9.157C6.718 20 4.733 18.015 4.733 15.575V14.633C4.733 14.219 5.069 13.883 5.483 13.883C5.897 13.883 6.233 14.219 6.233 14.633V15.575C6.233 17.187 7.545 18.5 9.157 18.5H14.042C15.661 18.5 16.978 17.184 16.978 15.564V4.425C16.978 2.813 15.665 1.5 14.053 1.5H9.168C7.55 1.5 6.233 2.816 6.233 4.434V5.367C6.233 5.781 5.897 6.117 5.483 6.117C5.069 6.117 4.733 5.781 4.733 5.367V4.434C4.733 1.989 6.723 0 9.168 0H14.053C16.492 0 18.478 1.985 18.478 4.425V15.564C18.478 18.01 16.487 20 14.042 20" fill="white"/>
</g>
</svg>
