<svg preserveAspectRatio="xMidYMid meet" width="137.5" height="25" viewBox="0 0 137.5 25" fill="none" xmlns="http://www.w3.org/2000/svg">
<g id="Vector">
<path d="M104.581 25H99.1811V2.27065e-05H109.779L116.889 23.5816H118.23L117.224 20V2.27065e-05H122.624V25H111.992L104.916 1.41846H103.541L104.581 5.00002V25Z" fill="white" fill-opacity="0.9"/>
<path d="M86.7104 2.27065e-05C92.7383 2.27065e-05 97.3778 1.18263 97.3778 8.59132C97.3778 16.0348 92.7383 17.2174 86.7104 17.2174H83.5949L83.6649 25H78.1426V2.27065e-05H86.7104ZM83.5949 12.3478H87.049C90.2662 12.3478 91.9256 12 91.9256 8.59132C91.9256 5.25219 90.2662 4.90437 87.049 4.90437H83.5949V12.3478Z" fill="white" fill-opacity="0.9"/>
<path d="M58.4776 25L51.6944 2.27065e-05H57.1376L63.3156 23.1304H64.6847L70.8961 2.27065e-05H76.3394L69.4351 25H58.4776Z" fill="white" fill-opacity="0.9"/>
<path d="M27.0494 25L32.4593 25V2.27065e-05H27.0494L27.0494 25Z" fill="white" fill-opacity="0.9"/>
<path d="M12.4342 2.27065e-05C4.7401 2.27065e-05 0 5.25967 0 12.1274C0 19.0286 5.07919 25 12.7733 25H24.0439L20.6952 19.614L13.31 20.2889C9.11944 20.2889 6.50157 17.0707 6.50157 12.1796C6.50157 7.32194 8.31235 4.72366 12.5029 4.72366L20.6952 5.51425L24.0439 2.27065e-05H12.4342Z" fill="white" fill-opacity="0.9"/>
<path fill-rule="evenodd" clip-rule="evenodd" d="M38.5416 24.1402C39.5334 24.7134 40.683 25 41.9904 25C43.5007 25 44.6277 24.7355 45.3716 24.2064C46.1154 23.6773 46.6226 23.1371 46.8931 22.586H47.3665V25H51.6944V8.33335H47.3665V16.6667C47.3665 18.1878 47.0734 19.3783 46.3521 20.2381C45.6308 21.0758 44.6164 21.4947 43.3091 21.4947C42.1595 21.4947 41.2691 21.1861 40.6379 20.5688C40.0293 19.9515 39.7926 19.0243 39.7926 17.7897V8.33335H35.4647V18.1217C35.4647 19.4665 35.7352 20.657 36.2762 21.6931C36.8172 22.7293 37.5723 23.545 38.5416 24.1402Z" fill="white" fill-opacity="0.9"/>
<path d="M132.204 0H133.155L134.867 3.15449L136.579 0H137.5V5.32083H136.579V1.59625L135.159 4.21866H134.545L133.125 1.59625V5.32083H132.204V0Z" fill="white" fill-opacity="0.9"/>
<path d="M128.635 0.790523H126.831V0H131.36V0.790523H129.556V5.32083H128.635V0.790523Z" fill="white" fill-opacity="0.9"/>
</g>
</svg>
