<svg preserveAspectRatio="xMidYMid meet" width="59" height="59" viewBox="0 0 59 59" fill="none" xmlns="http://www.w3.org/2000/svg">
<g id="item">
<rect width="59" height="59" rx="10" fill="#2D2D2D"/>
<path id="Vector" d="M16.9936 27.9014C24.7782 24.6556 29.9692 22.5158 32.5665 21.4819C39.9823 18.5301 41.5233 18.0173 42.5276 18.0002C42.7485 17.9966 43.2425 18.049 43.5624 18.2975C43.8326 18.5072 43.9069 18.7906 43.9425 18.9895C43.978 19.1884 44.0223 19.6415 43.9871 19.9956C43.5852 24.0365 41.8464 33.8427 40.9617 38.3686C40.5874 40.2837 39.8503 40.9258 39.1368 40.9886C37.5861 41.1252 36.4085 40.0078 34.9066 39.0656C32.5563 37.5912 31.2286 36.6734 28.9472 35.2347C26.3108 33.572 28.0199 32.6582 29.5224 31.1647C29.9156 30.7738 36.7481 24.8263 36.8804 24.2868C36.8969 24.2193 36.9123 23.9678 36.7561 23.835C36.6 23.7022 36.3695 23.7476 36.2032 23.7837C35.9675 23.8349 32.213 26.2098 24.9396 30.9085C23.8738 31.6088 22.9085 31.9501 22.0437 31.9322C21.0902 31.9125 19.2562 31.4163 17.8927 30.9921C16.2204 30.4719 14.8913 30.1969 15.007 29.3133C15.0673 28.8532 15.7295 28.3825 16.9936 27.9014Z" fill="white"/>
</g>
</svg>
