<svg width="539" height="295" viewBox="0 0 539 295" fill="none" xmlns="http://www.w3.org/2000/svg">
    <path
        d="M150.625 246.414C154.05 246.414 156.425 248.814 156.425 252.289C156.425 256.164 153.575 258.264 150.3 258.264C146.4 258.264 144.15 255.739 143.975 252.689H146.05C146.25 254.714 147.775 256.389 150.3 256.389C152.35 256.389 154.275 255.014 154.275 252.314C154.275 249.939 152.75 248.264 150.325 248.264C149.25 248.264 147.1 248.564 146.35 250.639L144.325 250.589L144.9 240.639H155.375V242.564H146.825L146.425 248.089C147.5 246.814 149 246.414 150.625 246.414ZM173.927 245.389V256.264H175.952V261.514H173.902V258.139H163.502V261.514H161.452V256.264H162.752C163.677 255.564 164.177 254.664 164.177 250.714V245.389H173.927ZM165.227 256.264H171.877V247.264H166.177V250.939C166.177 253.864 165.852 255.289 165.227 256.264ZM185.593 250.714V245.389H187.643V258.139H185.593V252.589H178.418V258.139H176.368V245.389H178.418V250.714H185.593ZM195.08 258.289C191.255 258.289 188.755 255.664 188.755 251.764C188.755 247.889 191.205 245.239 194.805 245.239C198.405 245.239 200.755 247.514 200.855 251.289C200.855 251.564 200.83 251.864 200.805 252.164H190.905V252.339C190.98 254.764 192.505 256.464 194.93 256.464C196.73 256.464 198.13 255.514 198.555 253.864H200.63C200.13 256.414 198.03 258.289 195.08 258.289ZM191.03 250.464H198.655C198.455 248.264 196.955 247.039 194.83 247.039C192.955 247.039 191.23 248.389 191.03 250.464ZM207.594 243.939C205.194 243.939 203.994 242.614 203.944 240.514H205.644C205.644 241.739 206.194 242.489 207.619 242.489C209.044 242.489 209.644 241.739 209.644 240.514H211.344C211.294 242.614 210.019 243.939 207.594 243.939ZM203.744 258.139H201.944V245.389H203.944V255.039L211.544 245.389H213.344V258.139H211.344V248.464L203.744 258.139ZM222.246 258.139H220.196V245.389H231.221V258.139H229.171V247.264H222.246V258.139ZM238.639 258.289C234.914 258.289 232.314 255.639 232.314 251.764C232.314 247.889 234.914 245.239 238.639 245.239C242.364 245.239 244.964 247.889 244.964 251.764C244.964 255.639 242.364 258.289 238.639 258.289ZM238.639 256.464C241.164 256.464 242.864 254.489 242.864 251.764C242.864 249.039 241.164 247.064 238.639 247.064C236.114 247.064 234.414 249.039 234.414 251.764C234.414 254.489 236.114 256.464 238.639 256.464ZM245.049 258.139H244.349V256.264H244.724C246.174 256.264 246.724 255.389 246.724 251.564V245.389H256.374V258.139H254.324V247.264H248.724V251.639C248.724 256.714 247.524 258.139 245.049 258.139ZM267.15 250.714V245.389H269.2V258.139H267.15V252.589H259.975V258.139H257.925V245.389H259.975V250.714H267.15ZM276.637 258.289C272.912 258.289 270.312 255.639 270.312 251.764C270.312 247.889 272.912 245.239 276.637 245.239C280.362 245.239 282.962 247.889 282.962 251.764C282.962 255.639 280.362 258.289 276.637 258.289ZM276.637 256.464C279.162 256.464 280.862 254.489 280.862 251.764C280.862 249.039 279.162 247.064 276.637 247.064C274.112 247.064 272.412 249.039 272.412 251.764C272.412 254.489 274.112 256.464 276.637 256.464ZM286.113 258.139H284.063V245.389H292.238V247.264H286.113V258.139ZM297.819 258.289C294.094 258.289 291.494 255.639 291.494 251.764C291.494 247.889 294.094 245.239 297.819 245.239C301.544 245.239 304.144 247.889 304.144 251.764C304.144 255.639 301.544 258.289 297.819 258.289ZM297.819 256.464C300.344 256.464 302.044 254.489 302.044 251.764C302.044 249.039 300.344 247.064 297.819 247.064C295.294 247.064 293.594 249.039 293.594 251.764C293.594 254.489 295.294 256.464 297.819 256.464ZM321.813 245.389V256.264H323.838V261.514H321.788V258.139H311.388V261.514H309.338V256.264H310.638C311.563 255.564 312.063 254.664 312.063 250.714V245.389H321.813ZM313.113 256.264H319.763V247.264H314.063V250.939C314.063 253.864 313.738 255.289 313.113 256.264ZM329.811 258.289C326.086 258.289 323.486 255.639 323.486 251.764C323.486 247.889 326.086 245.239 329.811 245.239C333.536 245.239 336.136 247.889 336.136 251.764C336.136 255.639 333.536 258.289 329.811 258.289ZM329.811 256.464C332.336 256.464 334.036 254.489 334.036 251.764C334.036 249.039 332.336 247.064 329.811 247.064C327.286 247.064 325.586 249.039 325.586 251.764C325.586 254.489 327.286 256.464 329.811 256.464ZM342.962 258.289C339.237 258.289 336.787 255.764 336.787 251.789C336.787 247.889 339.312 245.239 343.012 245.239C346.137 245.239 348.112 246.989 348.637 249.789H346.487C346.112 248.089 344.862 247.064 342.987 247.064C340.537 247.064 338.887 249.014 338.887 251.789C338.887 254.564 340.537 256.464 342.987 256.464C344.812 256.464 346.062 255.414 346.462 253.789H348.637C348.137 256.539 346.062 258.289 342.962 258.289ZM354.721 258.139H352.671V247.264H348.071V245.389H359.321V247.264H354.721V258.139ZM363.681 258.214L358.706 245.389H360.881L364.806 255.564L368.606 245.389H370.781L364.906 260.289C364.106 262.339 363.631 263.139 361.831 263.139H359.381V261.264H361.206C362.381 261.264 362.581 260.964 363.056 259.764L363.681 258.214ZM373.11 258.139H371.06V245.389H382.085V258.139H380.035V247.264H373.11V258.139ZM394.904 256.264H395.554V258.139H394.429C392.729 258.139 392.154 257.414 392.129 256.164C391.329 257.314 390.054 258.289 387.854 258.289C385.054 258.289 383.154 256.889 383.154 254.564C383.154 252.014 384.929 250.589 388.279 250.589H392.029V249.714C392.029 248.064 390.854 247.064 388.854 247.064C387.054 247.064 385.854 247.914 385.604 249.214H383.554C383.854 246.714 385.879 245.239 388.954 245.239C392.204 245.239 394.079 246.864 394.079 249.839V255.414C394.079 256.089 394.329 256.264 394.904 256.264ZM392.029 252.939V252.314H388.079C386.254 252.314 385.229 252.989 385.229 254.439C385.229 255.689 386.304 256.539 388.004 256.539C390.554 256.539 392.029 255.064 392.029 252.939Z"
        fill="white" fill-opacity="0.68" />
    <path
        d="M108.73 179.759V177.519C108.73 163.309 116.64 153.719 128.05 153.719C139.46 153.719 147.37 163.309 147.37 177.519V179.759C147.37 194.529 139.46 203.559 128.05 203.559C116.64 203.559 108.73 194.529 108.73 179.759ZM139.53 179.479V177.799C139.53 166.879 134.91 160.509 128.05 160.509C121.19 160.509 116.57 166.879 116.57 177.799V179.479C116.57 190.469 121.19 196.769 128.05 196.769C134.91 196.769 139.53 190.469 139.53 179.479ZM168.712 170.099C178.442 170.099 185.092 176.819 185.092 186.689C185.092 197.679 176.902 203.489 167.312 203.489C156.182 203.489 149.602 196.419 149.112 187.669H156.812C157.372 192.779 161.082 196.979 167.382 196.979C172.422 196.979 177.252 193.479 177.252 186.689C177.252 180.739 173.402 176.469 167.382 176.469C164.442 176.469 159.472 177.449 157.512 182.489L150.022 182.349L151.562 154.139H182.152V160.929H158.632L157.792 174.229C160.522 171.289 164.232 170.099 168.712 170.099ZM227.265 179.759V177.519C227.265 163.309 235.175 153.719 246.585 153.719C257.995 153.719 265.905 163.309 265.905 177.519V179.759C265.905 194.529 257.995 203.559 246.585 203.559C235.175 203.559 227.265 194.529 227.265 179.759ZM258.065 179.479V177.799C258.065 166.879 253.445 160.509 246.585 160.509C239.725 160.509 235.105 166.879 235.105 177.799V179.479C235.105 190.469 239.725 196.769 246.585 196.769C253.445 196.769 258.065 190.469 258.065 179.479ZM267.857 179.759V177.519C267.857 163.309 275.767 153.719 287.177 153.719C298.587 153.719 306.497 163.309 306.497 177.519V179.759C306.497 194.529 298.587 203.559 287.177 203.559C275.767 203.559 267.857 194.529 267.857 179.759ZM298.657 179.479V177.799C298.657 166.879 294.037 160.509 287.177 160.509C280.317 160.509 275.697 166.879 275.697 177.799V179.479C275.697 190.469 280.317 196.769 287.177 196.769C294.037 196.769 298.657 190.469 298.657 179.479ZM349.423 179.759V177.519C349.423 163.309 357.333 153.719 368.743 153.719C380.153 153.719 388.063 163.309 388.063 177.519V179.759C388.063 194.529 380.153 203.559 368.743 203.559C357.333 203.559 349.423 194.529 349.423 179.759ZM380.223 179.479V177.799C380.223 166.879 375.603 160.509 368.743 160.509C361.883 160.509 357.263 166.879 357.263 177.799V179.479C357.263 190.469 361.883 196.769 368.743 196.769C375.603 196.769 380.223 190.469 380.223 179.479ZM390.015 179.759V177.519C390.015 163.309 397.925 153.719 409.335 153.719C420.745 153.719 428.655 163.309 428.655 177.519V179.759C428.655 194.529 420.745 203.559 409.335 203.559C397.925 203.559 390.015 194.529 390.015 179.759ZM420.815 179.479V177.799C420.815 166.879 416.195 160.509 409.335 160.509C402.475 160.509 397.855 166.879 397.855 177.799V179.479C397.855 190.469 402.475 196.769 409.335 196.769C416.195 196.769 420.815 190.469 420.815 179.479Z"
        fill="white" />
    <path
        d="M200.981 173.389C200.981 170.589 203.011 168.629 205.811 168.629C208.611 168.629 210.711 170.589 210.711 173.389C210.711 176.189 208.611 178.149 205.811 178.149C203.011 178.149 200.981 176.189 200.981 173.389ZM200.981 198.799C200.981 195.999 203.011 194.039 205.811 194.039C208.611 194.039 210.711 195.999 210.711 198.799C210.711 201.599 208.611 203.559 205.811 203.559C203.011 203.559 200.981 201.599 200.981 198.799ZM323.139 173.389C323.139 170.589 325.169 168.629 327.969 168.629C330.769 168.629 332.869 170.589 332.869 173.389C332.869 176.189 330.769 178.149 327.969 178.149C325.169 178.149 323.139 176.189 323.139 173.389ZM323.139 198.799C323.139 195.999 325.169 194.039 327.969 194.039C330.769 194.039 332.869 195.999 332.869 198.799C332.869 201.599 330.769 203.559 327.969 203.559C325.169 203.559 323.139 201.599 323.139 198.799Z"
        fill="white" fill-opacity="0.25" />
    <path
        d="M45.271 321.032L24.1609 324.246L23.7535 321.57L44.8636 318.356L45.271 321.032ZM42.5086 291.404L21.161 291.901L21.098 289.196L42.4456 288.698L42.5086 291.404ZM44.3169 255.72L23.1579 252.845L23.5223 250.163L44.6813 253.038L44.3169 255.72ZM50.0469 226.565L29.4474 220.941L30.1603 218.33L50.7597 223.954L50.0469 226.565ZM59.5917 198.442L39.9175 190.142L40.9695 187.648L60.6437 195.949L59.5917 198.442ZM72.7629 171.823L54.3576 160.996L55.7298 158.664L74.1351 169.49L72.7629 171.823ZM89.33 147.17L72.514 134.01L74.182 131.879L90.9979 145.039L89.33 147.17ZM109.009 124.9L94.0556 109.657L95.9876 107.762L110.941 123.005L109.009 124.9ZM131.418 105.388L118.591 88.3168L120.754 86.691L133.582 103.762L131.418 105.388ZM156.199 88.9816L145.709 70.382L148.067 69.0526L158.556 87.6521L156.199 88.9816ZM182.894 75.9578L174.95 56.1374L177.462 55.1304L185.407 74.9508L182.894 75.9578ZM211.08 66.5915L205.822 45.8956L208.445 45.2292L213.703 65.925L211.08 66.5915ZM240.249 61.0202L237.777 39.8104L240.465 39.4971L242.937 60.707L240.249 61.0202ZM269.917 59.3481L270.243 37.9972L272.949 38.0385L272.623 59.3894L269.917 59.3481ZM299.566 61.5713L302.656 40.4426L305.334 40.8342L302.244 61.9629L299.566 61.5713ZM328.648 67.6292L334.491 47.0907L337.094 47.8312L331.252 68.3698L328.648 67.6292ZM356.672 77.4584L365.181 57.8737L367.663 58.9521L359.154 78.5369L356.672 77.4584ZM383.146 90.9095L394.175 72.6248L396.492 74.0226L385.463 92.3074L383.146 90.9095ZM407.62 107.754L420.953 91.0754L423.067 92.7654L409.734 109.444L407.62 107.754ZM429.684 127.651L445.092 112.867L446.966 114.82L431.558 129.604L429.684 127.651ZM448.95 150.285L466.152 137.634L467.755 139.814L450.553 152.465L448.95 150.285ZM465.104 175.22L483.818 164.937L485.121 167.309L466.407 177.592L465.104 175.22ZM477.823 202.07L497.725 194.333L498.706 196.856L478.803 204.592L477.823 202.07ZM486.909 230.345L507.659 225.307L508.298 227.937L487.547 232.975L486.909 230.345ZM492.149 259.576L513.384 257.33L513.669 260.021L492.434 262.267L492.149 259.576ZM493.494 289.257L514.84 289.815L514.769 292.521L493.423 291.962L493.494 289.257ZM490.967 318.88L512.061 322.2L511.641 324.873L490.547 321.554L490.967 318.88ZM484.614 347.9L505.088 353.964L504.319 356.559L483.845 350.495L484.614 347.9Z"
        fill="white" fill-opacity="0.22" />
    <path d="M108.014 72.3721L132.27 104.685" stroke="#919191" stroke-width="3" />
    <path d="M271.851 18.9116L271.546 59.3147" stroke="#919191" stroke-width="3" />
    <path d="M433.36 77.6084L408.153 109.185" stroke="#919191" stroke-width="3" />
    <path d="M526.55 221.884L487.286 231.415" stroke="#919191" stroke-width="3" />
    <path d="M12.1562 214.654L51.0837 225.478" stroke="#919191" stroke-width="3" />
</svg>
