<svg width="415" height="255" viewBox="0 0 415 255" fill="none" xmlns="http://www.w3.org/2000/svg">
    <g clip-path="url(#clip0_960_2745)">
        <rect width="414.105" height="254.234" rx="10.1382" fill="#080808" fill-opacity="0.32" />
        <rect width="414.105" height="32.7541" fill="#1A1A1A" />
        <rect x="0.38993" y="0.38993" width="413.326" height="253.454" rx="9.74825" stroke="#1A1A1A"
            stroke-width="0.77986" />
        <circle cx="18.3283" cy="16.7658" r="4.28923" fill="#F45D66" />
        <circle cx="33.922" cy="16.7658" r="4.28923" fill="#EDB71F" />
        <circle cx="49.5197" cy="16.7658" r="4.28923" fill="#2AC249" />
        <rect x="63.5579" y="10.5281" width="17.1569" height="12.4778" rx="1.94965" stroke="#ADADAD"
            stroke-width="0.77986" />
        <path d="M70.1865 10.918V22.6159" stroke="#ADADAD" stroke-width="0.77986" />
        <path d="M65.2363 12.8984H68.6857" stroke="#ADADAD" stroke-width="0.77986" stroke-linecap="round" />
        <path d="M65.2363 15.6582H68.6857" stroke="#ADADAD" stroke-width="0.77986" stroke-linecap="round" />
        <path d="M65.2363 18.418H68.6857" stroke="#ADADAD" stroke-width="0.77986" stroke-linecap="round" />
        <rect x="389.959" y="10.8458" width="8.48777" height="8.48777" rx="1.06097" stroke="white"
            stroke-width="0.707315" />
        <rect x="392.787" y="13.674" width="8.48777" height="8.48777" rx="1.06097" fill="#1A1A1A" stroke="white"
            stroke-width="0.707315" />
        <path d="M368.738 11.9062V20.7477" stroke="white" stroke-width="0.707315" stroke-linecap="round" />
        <path d="M364.492 16.1523H373.334" stroke="white" stroke-width="0.707315" stroke-linecap="round" />
        <path d="M345.397 12.2587L342.921 10.1367L340.445 12.2587M342.921 10.1367V18.2708" stroke="white"
            stroke-width="0.707315" stroke-linecap="round" />
        <path
            d="M346.456 13.3242C347.237 13.3242 347.871 13.9581 347.871 14.7393V21.8115C347.871 22.5928 347.237 23.2266 346.456 23.2266H339.384L339.238 23.2197C338.525 23.1471 337.969 22.5438 337.969 21.8115V14.7393C337.969 14.0071 338.525 13.4037 339.238 13.3311L339.384 13.3242H341.506V14.0312H339.384C338.993 14.0312 338.676 14.3488 338.676 14.7393V21.8115C338.676 22.2022 338.993 22.5195 339.384 22.5195H346.456C346.847 22.5195 347.164 22.2022 347.164 21.8115V14.7393C347.164 14.3488 346.847 14.0313 346.456 14.0312H344.335V13.3242H346.456Z"
            fill="white" />
        <path d="M313.92 17.214L316.395 19.3359L318.871 17.214M316.395 19.3359L316.395 14.0311" stroke="white"
            stroke-width="0.707315" stroke-linecap="round" />
        <circle cx="316.395" cy="16.5044" r="5.65852" stroke="white" stroke-width="0.707315" />
        <rect x="158.312" y="7.01953" width="97.4825" height="18.7166" rx="4.67916" fill="#353637" />
        <path
            d="M183.935 15.2617H179.479C178.987 15.2617 178.588 15.6608 178.588 16.153V18.8268C178.588 19.319 178.987 19.7181 179.479 19.7181H183.935C184.428 19.7181 184.827 19.319 184.827 18.8268V16.153C184.827 15.6608 184.428 15.2617 183.935 15.2617Z"
            fill="white" stroke="white" stroke-width="0.77986" stroke-linecap="round" stroke-linejoin="round" />
        <path
            d="M179.938 16.0426V14.2601C179.938 13.7873 180.125 13.3339 180.46 12.9996C180.794 12.6653 181.247 12.4775 181.72 12.4775C182.193 12.4775 182.646 12.6653 182.98 12.9996C183.315 13.3339 183.503 13.7873 183.503 14.2601V16.0426"
            stroke="white" stroke-width="0.77986" stroke-linecap="round" stroke-linejoin="round" />
        <path
            d="M194.326 19.0886C193.927 19.0886 193.584 18.9945 193.296 18.8061C193.008 18.6178 192.787 18.3584 192.631 18.0279C192.476 17.6975 192.399 17.3199 192.399 16.8953C192.399 16.4632 192.478 16.082 192.637 15.7515C192.798 15.4192 193.021 15.1598 193.307 14.9733C193.595 14.785 193.931 14.6908 194.315 14.6908C194.614 14.6908 194.884 14.7462 195.124 14.857C195.364 14.9678 195.561 15.1229 195.714 15.3223C195.867 15.5216 195.962 15.7543 195.999 16.0201H195.345C195.296 15.8263 195.185 15.6546 195.013 15.505C194.843 15.3536 194.614 15.2779 194.326 15.2779C194.072 15.2779 193.848 15.3444 193.656 15.4773C193.466 15.6084 193.317 15.794 193.21 16.034C193.105 16.2722 193.052 16.5519 193.052 16.8731C193.052 17.2017 193.104 17.4879 193.207 17.7316C193.313 17.9753 193.46 18.1646 193.651 18.2993C193.843 18.4341 194.068 18.5015 194.326 18.5015C194.496 18.5015 194.65 18.472 194.789 18.4129C194.927 18.3538 195.044 18.2689 195.14 18.1581C195.236 18.0473 195.305 17.9144 195.345 17.7593H195.999C195.962 18.0104 195.871 18.2366 195.725 18.4378C195.581 18.6372 195.39 18.796 195.152 18.9141C194.915 19.0305 194.64 19.0886 194.326 19.0886ZM197.608 13.3283V19H196.954V13.3283H197.608ZM201.486 17.2608V14.7462H202.139V19H201.486V18.28H201.442C201.342 18.496 201.187 18.6797 200.976 18.8311C200.766 18.9806 200.5 19.0554 200.179 19.0554C199.913 19.0554 199.677 18.9972 199.47 18.8809C199.263 18.7628 199.1 18.5855 198.982 18.3492C198.864 18.111 198.805 17.811 198.805 17.4491V14.7462H199.459V17.4048C199.459 17.715 199.545 17.9624 199.719 18.147C199.894 18.3317 200.118 18.424 200.389 18.424C200.552 18.424 200.717 18.3824 200.885 18.2993C201.055 18.2163 201.197 18.0889 201.311 17.9172C201.428 17.7455 201.486 17.5267 201.486 17.2608ZM206.815 14.7462L205.242 19H204.577L203.004 14.7462H203.713L204.887 18.136H204.932L206.106 14.7462H206.815ZM207.678 20.5952V14.7462H208.309V15.422H208.386C208.434 15.3481 208.501 15.2539 208.586 15.1395C208.673 15.0232 208.796 14.9198 208.957 14.8293C209.119 14.737 209.339 14.6908 209.616 14.6908C209.974 14.6908 210.29 14.7804 210.563 14.9595C210.836 15.1386 211.05 15.3924 211.203 15.721C211.356 16.0497 211.433 16.4374 211.433 16.8842C211.433 17.3347 211.356 17.7252 211.203 18.0556C211.05 18.3843 210.837 18.6391 210.566 18.82C210.295 18.9991 209.982 19.0886 209.627 19.0886C209.354 19.0886 209.135 19.0434 208.971 18.9529C208.806 18.8606 208.68 18.7563 208.591 18.64C208.503 18.5218 208.434 18.424 208.386 18.3464H208.331V20.5952H207.678ZM208.32 16.8731C208.32 17.1944 208.367 17.4778 208.461 17.7233C208.555 17.967 208.693 18.1581 208.874 18.2966C209.055 18.4332 209.276 18.5015 209.539 18.5015C209.812 18.5015 210.04 18.4295 210.223 18.2855C210.407 18.1396 210.546 17.9439 210.638 17.6984C210.732 17.451 210.779 17.1759 210.779 16.8731C210.779 16.574 210.733 16.3045 210.641 16.0644C210.55 15.8226 210.413 15.6315 210.228 15.4912C210.045 15.349 209.815 15.2779 209.539 15.2779C209.273 15.2779 209.049 15.3453 208.868 15.4801C208.687 15.613 208.551 15.7995 208.458 16.0395C208.366 16.2777 208.32 16.5556 208.32 16.8731ZM213.083 16.4411V19H212.43V14.7462H213.061V15.4109H213.117C213.216 15.1949 213.368 15.0213 213.571 14.8902C213.774 14.7573 214.036 14.6908 214.357 14.6908C214.645 14.6908 214.897 14.7499 215.113 14.8681C215.329 14.9844 215.497 15.1616 215.617 15.3998C215.737 15.6361 215.797 15.9352 215.797 16.2971V19H215.144V16.3414C215.144 16.0072 215.057 15.7469 214.883 15.5604C214.71 15.3721 214.472 15.2779 214.169 15.2779C213.96 15.2779 213.774 15.3232 213.61 15.4136C213.447 15.5041 213.319 15.6361 213.225 15.8097C213.13 15.9832 213.083 16.1937 213.083 16.4411ZM217.468 19.0443C217.331 19.0443 217.214 18.9954 217.116 18.8975C217.018 18.7997 216.969 18.6824 216.969 18.5458C216.969 18.4092 217.018 18.292 217.116 18.1941C217.214 18.0963 217.331 18.0473 217.468 18.0473C217.605 18.0473 217.722 18.0963 217.82 18.1941C217.918 18.292 217.966 18.4092 217.966 18.5458C217.966 18.6363 217.943 18.7194 217.897 18.7951C217.853 18.8708 217.793 18.9317 217.717 18.9778C217.643 19.0222 217.56 19.0443 217.468 19.0443ZM220.867 19.0886C220.469 19.0886 220.125 18.9945 219.837 18.8061C219.549 18.6178 219.328 18.3584 219.173 18.0279C219.017 17.6975 218.94 17.3199 218.94 16.8953C218.94 16.4632 219.019 16.082 219.178 15.7515C219.339 15.4192 219.562 15.1598 219.848 14.9733C220.136 14.785 220.472 14.6908 220.856 14.6908C221.155 14.6908 221.425 14.7462 221.665 14.857C221.905 14.9678 222.102 15.1229 222.255 15.3223C222.408 15.5216 222.503 15.7543 222.54 16.0201H221.887C221.837 15.8263 221.726 15.6546 221.554 15.505C221.384 15.3536 221.155 15.2779 220.867 15.2779C220.613 15.2779 220.389 15.3444 220.197 15.4773C220.007 15.6084 219.858 15.794 219.751 16.034C219.646 16.2722 219.593 16.5519 219.593 16.8731C219.593 17.2017 219.645 17.4879 219.749 17.7316C219.854 17.9753 220.002 18.1646 220.192 18.2993C220.384 18.4341 220.609 18.5015 220.867 18.5015C221.037 18.5015 221.191 18.472 221.33 18.4129C221.468 18.3538 221.586 18.2689 221.682 18.1581C221.778 18.0473 221.846 17.9144 221.887 17.7593H222.54C222.503 18.0104 222.412 18.2366 222.266 18.4378C222.122 18.6372 221.931 18.796 221.693 18.9141C221.456 19.0305 221.181 19.0886 220.867 19.0886ZM225.224 19.0886C224.84 19.0886 224.503 18.9972 224.213 18.8145C223.925 18.6317 223.7 18.376 223.537 18.0473C223.376 17.7187 223.296 17.3347 223.296 16.8953C223.296 16.4522 223.376 16.0654 223.537 15.7349C223.7 15.4044 223.925 15.1478 224.213 14.965C224.503 14.7822 224.84 14.6908 225.224 14.6908C225.608 14.6908 225.944 14.7822 226.232 14.965C226.522 15.1478 226.747 15.4044 226.907 15.7349C227.07 16.0654 227.151 16.4522 227.151 16.8953C227.151 17.3347 227.07 17.7187 226.907 18.0473C226.747 18.376 226.522 18.6317 226.232 18.8145C225.944 18.9972 225.608 19.0886 225.224 19.0886ZM225.224 18.5015C225.515 18.5015 225.755 18.4267 225.944 18.2772C226.132 18.1276 226.271 17.931 226.362 17.6873C226.452 17.4436 226.498 17.1796 226.498 16.8953C226.498 16.6109 226.452 16.346 226.362 16.1005C226.271 15.8549 226.132 15.6564 225.944 15.505C225.755 15.3536 225.515 15.2779 225.224 15.2779C224.932 15.2779 224.692 15.3536 224.504 15.505C224.315 15.6564 224.176 15.8549 224.085 16.1005C223.995 16.346 223.95 16.6109 223.95 16.8953C223.95 17.1796 223.995 17.4436 224.085 17.6873C224.176 17.931 224.315 18.1276 224.504 18.2772C224.692 18.4267 224.932 18.5015 225.224 18.5015ZM228.149 19V14.7462H228.78V15.4109H228.836C228.924 15.1838 229.067 15.0075 229.265 14.8819C229.462 14.7545 229.7 14.6908 229.977 14.6908C230.257 14.6908 230.491 14.7545 230.677 14.8819C230.866 15.0075 231.012 15.1838 231.118 15.4109H231.162C231.271 15.1912 231.434 15.0167 231.652 14.8875C231.87 14.7564 232.131 14.6908 232.436 14.6908C232.816 14.6908 233.127 14.8099 233.369 15.0481C233.611 15.2844 233.732 15.6527 233.732 16.1531V19H233.078V16.1531C233.078 15.8392 232.992 15.6149 232.821 15.4801C232.649 15.3453 232.447 15.2779 232.214 15.2779C231.915 15.2779 231.683 15.3684 231.519 15.5493C231.355 15.7284 231.273 15.9555 231.273 16.2306V19H230.608V16.0866C230.608 15.8447 230.53 15.65 230.373 15.5023C230.216 15.3527 230.014 15.2779 229.766 15.2779C229.596 15.2779 229.438 15.3232 229.29 15.4136C229.144 15.5041 229.026 15.6297 228.935 15.7903C228.847 15.9491 228.802 16.1328 228.802 16.3414V19H228.149Z"
            fill="white" />
        <rect x="168" y="145" width="78" height="15.0756" rx="7.53782" fill="black" fill-opacity="0.25" />
        <path
            d="M185.457 156.029C183.446 156.029 182.186 154.608 182.186 152.467C182.186 150.347 183.496 148.906 185.527 148.906C187.078 148.906 188.208 149.806 188.468 151.257H187.548C187.278 150.286 186.538 149.706 185.487 149.706C184.017 149.706 183.076 150.847 183.076 152.467C183.076 154.078 183.977 155.228 185.447 155.228C186.528 155.228 187.278 154.658 187.538 153.678H188.458C188.198 155.128 187.038 156.029 185.457 156.029ZM191.74 156.029C190.25 156.029 189.209 154.968 189.209 153.418C189.209 151.867 190.25 150.807 191.74 150.807C193.231 150.807 194.271 151.867 194.271 153.418C194.271 154.968 193.231 156.029 191.74 156.029ZM191.74 155.298C192.751 155.298 193.431 154.508 193.431 153.418C193.431 152.327 192.751 151.537 191.74 151.537C190.73 151.537 190.049 152.327 190.049 153.418C190.049 154.508 190.73 155.298 191.74 155.298ZM197.713 150.807C198.863 150.807 199.774 151.437 199.774 153.128V155.969H198.953V153.178C198.953 152.117 198.463 151.557 197.573 151.557C196.612 151.557 196.032 152.267 196.032 153.418V155.969H195.212V150.867H195.922L196.032 151.557C196.332 151.167 196.852 150.807 197.713 150.807ZM203.321 150.807C204.471 150.807 205.381 151.437 205.381 153.128V155.969H204.561V153.178C204.561 152.117 204.071 151.557 203.18 151.557C202.22 151.557 201.64 152.267 201.64 153.418V155.969H200.82V150.867H201.53L201.64 151.557C201.94 151.167 202.46 150.807 203.321 150.807ZM208.72 156.029C207.189 156.029 206.189 154.978 206.189 153.418C206.189 151.867 207.169 150.807 208.61 150.807C210.05 150.807 210.99 151.717 211.03 153.228C211.03 153.338 211.02 153.458 211.01 153.578H207.049V153.648C207.079 154.618 207.689 155.298 208.66 155.298C209.38 155.298 209.94 154.918 210.11 154.258H210.94C210.74 155.278 209.9 156.029 208.72 156.029ZM207.099 152.898H210.15C210.07 152.017 209.47 151.527 208.62 151.527C207.869 151.527 207.179 152.067 207.099 152.898ZM214.257 156.029C212.767 156.029 211.786 155.018 211.786 153.428C211.786 151.867 212.797 150.807 214.277 150.807C215.528 150.807 216.318 151.507 216.528 152.627H215.668C215.518 151.947 215.018 151.537 214.267 151.537C213.287 151.537 212.627 152.317 212.627 153.428C212.627 154.538 213.287 155.298 214.267 155.298C214.998 155.298 215.498 154.878 215.658 154.228H216.528C216.328 155.328 215.498 156.029 214.257 156.029ZM217.808 154.638V151.617H216.888V150.867H217.808V149.436H218.628V150.867H219.949V151.617H218.628V154.628C218.628 155.058 218.778 155.218 219.218 155.218H220.029V155.969H219.138C218.158 155.969 217.808 155.539 217.808 154.638ZM222.964 156.029C221.433 156.029 220.433 154.978 220.433 153.418C220.433 151.867 221.413 150.807 222.853 150.807C224.294 150.807 225.234 151.717 225.274 153.228C225.274 153.338 225.264 153.458 225.254 153.578H221.293V153.648C221.323 154.618 221.933 155.298 222.903 155.298C223.624 155.298 224.184 154.918 224.354 154.258H225.184C224.984 155.278 224.144 156.029 222.964 156.029ZM221.343 152.898H224.394C224.314 152.017 223.714 151.527 222.863 151.527C222.113 151.527 221.423 152.067 221.343 152.898ZM230.232 151.647V148.966H231.052V155.969H230.342L230.232 155.148C229.892 155.619 229.342 156.029 228.481 156.029C227.071 156.029 226.03 155.078 226.03 153.418C226.03 151.857 227.071 150.807 228.481 150.807C229.342 150.807 229.922 151.157 230.232 151.647ZM228.561 155.298C229.562 155.298 230.242 154.528 230.242 153.438C230.242 152.317 229.562 151.537 228.561 151.537C227.551 151.537 226.871 152.307 226.871 153.418C226.871 154.528 227.551 155.298 228.561 155.298Z"
            fill="white" />
        <path
            d="M172.332 175.098H173.08C173.138 175.879 173.744 176.394 174.633 176.394C175.414 176.394 175.97 176.036 175.97 175.405C175.97 174.683 175.256 174.533 174.376 174.384C173.437 174.226 172.473 173.918 172.473 172.789C172.473 171.8 173.279 171.136 174.459 171.136C175.754 171.136 176.552 171.858 176.618 172.905H175.871C175.788 172.232 175.248 171.792 174.459 171.792C173.703 171.792 173.196 172.124 173.196 172.747C173.196 173.445 173.902 173.586 174.774 173.736C175.721 173.893 176.693 174.209 176.693 175.339C176.693 176.344 175.846 177.05 174.625 177.05C173.204 177.05 172.374 176.244 172.332 175.098ZM179.462 177.05C178.192 177.05 177.361 176.178 177.361 174.882C177.361 173.594 178.175 172.714 179.371 172.714C180.567 172.714 181.348 173.47 181.381 174.724C181.381 174.815 181.373 174.915 181.365 175.015H178.075V175.073C178.1 175.879 178.607 176.443 179.413 176.443C180.011 176.443 180.476 176.128 180.617 175.58H181.306C181.14 176.427 180.443 177.05 179.462 177.05ZM178.117 174.45H180.65C180.584 173.719 180.085 173.312 179.379 173.312C178.756 173.312 178.183 173.761 178.117 174.45ZM184.061 177.05C182.823 177.05 182.009 176.211 182.009 174.89C182.009 173.594 182.848 172.714 184.077 172.714C185.115 172.714 185.772 173.295 185.946 174.226H185.232C185.107 173.661 184.692 173.32 184.069 173.32C183.255 173.32 182.707 173.968 182.707 174.89C182.707 175.812 183.255 176.443 184.069 176.443C184.675 176.443 185.091 176.095 185.223 175.555H185.946C185.78 176.468 185.091 177.05 184.061 177.05ZM189.658 174.882V172.764H190.339V177H189.749L189.658 176.435C189.409 176.751 189.002 177.05 188.304 177.05C187.374 177.05 186.635 176.527 186.635 175.123V172.764H187.316V175.081C187.316 175.962 187.714 176.427 188.42 176.427C189.193 176.427 189.658 175.837 189.658 174.882ZM193.228 172.764H193.419V173.428H193.078C192.19 173.428 191.949 174.168 191.949 174.84V177H191.268V172.764H191.857L191.949 173.403C192.148 173.079 192.472 172.764 193.228 172.764ZM195.718 177.05C194.447 177.05 193.616 176.178 193.616 174.882C193.616 173.594 194.43 172.714 195.627 172.714C196.823 172.714 197.603 173.47 197.637 174.724C197.637 174.815 197.628 174.915 197.62 175.015H194.331V175.073C194.356 175.879 194.862 176.443 195.668 176.443C196.266 176.443 196.731 176.128 196.873 175.58H197.562C197.396 176.427 196.698 177.05 195.718 177.05ZM194.372 174.45H196.906C196.839 173.719 196.341 173.312 195.635 173.312C195.012 173.312 194.439 173.761 194.372 174.45ZM202.49 177.05C201.252 177.05 200.438 176.211 200.438 174.89C200.438 173.594 201.277 172.714 202.507 172.714C203.545 172.714 204.201 173.295 204.375 174.226H203.661C203.536 173.661 203.121 173.32 202.498 173.32C201.684 173.32 201.136 173.968 201.136 174.89C201.136 175.812 201.684 176.443 202.498 176.443C203.105 176.443 203.52 176.095 203.653 175.555H204.375C204.209 176.468 203.52 177.05 202.49 177.05ZM207.074 177.05C205.836 177.05 204.973 176.169 204.973 174.882C204.973 173.594 205.836 172.714 207.074 172.714C208.312 172.714 209.176 173.594 209.176 174.882C209.176 176.169 208.312 177.05 207.074 177.05ZM207.074 176.443C207.913 176.443 208.478 175.787 208.478 174.882C208.478 173.977 207.913 173.32 207.074 173.32C206.235 173.32 205.67 173.977 205.67 174.882C205.67 175.787 206.235 176.443 207.074 176.443ZM212.033 172.714C212.988 172.714 213.744 173.237 213.744 174.641V177H213.063V174.683C213.063 173.802 212.656 173.337 211.917 173.337C211.119 173.337 210.638 173.927 210.638 174.882V177H209.957V172.764H210.546L210.638 173.337C210.887 173.013 211.319 172.714 212.033 172.714ZM216.689 172.714C217.644 172.714 218.4 173.237 218.4 174.641V177H217.719V174.683C217.719 173.802 217.312 173.337 216.573 173.337C215.775 173.337 215.294 173.927 215.294 174.882V177H214.613V172.764H215.202L215.294 173.337C215.543 173.013 215.975 172.714 216.689 172.714ZM221.172 177.05C219.901 177.05 219.07 176.178 219.07 174.882C219.07 173.594 219.884 172.714 221.081 172.714C222.277 172.714 223.057 173.47 223.091 174.724C223.091 174.815 223.082 174.915 223.074 175.015H219.785V175.073C219.81 175.879 220.316 176.443 221.122 176.443C221.72 176.443 222.185 176.128 222.326 175.58H223.016C222.85 176.427 222.152 177.05 221.172 177.05ZM219.826 174.45H222.36C222.293 173.719 221.795 173.312 221.089 173.312C220.466 173.312 219.893 173.761 219.826 174.45ZM225.77 177.05C224.532 177.05 223.718 176.211 223.718 174.89C223.718 173.594 224.557 172.714 225.787 172.714C226.825 172.714 227.481 173.295 227.655 174.226H226.941C226.817 173.661 226.401 173.32 225.778 173.32C224.964 173.32 224.416 173.968 224.416 174.89C224.416 175.812 224.964 176.443 225.778 176.443C226.385 176.443 226.8 176.095 226.933 175.555H227.655C227.489 176.468 226.8 177.05 225.77 177.05ZM228.718 175.895V173.387H227.954V172.764H228.718V171.576H229.399V172.764H230.495V173.387H229.399V175.887C229.399 176.244 229.524 176.377 229.889 176.377H230.562V177H229.823C229.009 177 228.718 176.643 228.718 175.895ZM231.501 172.05C231.252 172.05 231.061 171.867 231.061 171.609C231.061 171.352 231.252 171.169 231.501 171.169C231.75 171.169 231.941 171.352 231.941 171.609C231.941 171.867 231.75 172.05 231.501 172.05ZM231.152 177V172.764H231.833V177H231.152ZM234.718 177.05C233.481 177.05 232.617 176.169 232.617 174.882C232.617 173.594 233.481 172.714 234.718 172.714C235.956 172.714 236.82 173.594 236.82 174.882C236.82 176.169 235.956 177.05 234.718 177.05ZM234.718 176.443C235.557 176.443 236.122 175.787 236.122 174.882C236.122 173.977 235.557 173.32 234.718 173.32C233.879 173.32 233.314 173.977 233.314 174.882C233.314 175.787 233.879 176.443 234.718 176.443ZM239.677 172.714C240.632 172.714 241.388 173.237 241.388 174.641V177H240.707V174.683C240.707 173.802 240.3 173.337 239.561 173.337C238.764 173.337 238.282 173.927 238.282 174.882V177H237.601V172.764H238.19L238.282 173.337C238.531 173.013 238.963 172.714 239.677 172.714Z"
            fill="white" />
        <rect x="181" y="75" width="52" height="52" rx="13" fill="#191919" />
        <circle cx="207" cy="101" r="19" fill="#008CFF" />
        <rect x="200" y="93" width="5" height="17" rx="1" fill="#D9D9D9" />
        <rect x="209" y="93" width="5" height="17" rx="1" fill="#D9D9D9" />
    </g>
    <defs>
        <clipPath id="clip0_960_2745">
            <rect width="414.105" height="254.234" rx="10.1382" fill="white" />
        </clipPath>
    </defs>
</svg>
