<svg width="451" height="205" viewBox="0 0 451 205" fill="none" xmlns="http://www.w3.org/2000/svg">
    <rect x="264.5" y="0.5" width="186" height="204" rx="9.5" fill="black" fill-opacity="0.32" stroke="#1A1A1A" />
    <path
        d="M314.095 101.615L310.135 95H311.665L314.755 100.205L317.89 95H319.36L315.4 101.615V105.5H314.095V101.615ZM322.553 105.59C320.318 105.59 318.758 104 318.758 101.675C318.758 99.35 320.318 97.76 322.553 97.76C324.788 97.76 326.348 99.35 326.348 101.675C326.348 104 324.788 105.59 322.553 105.59ZM322.553 104.495C324.068 104.495 325.088 103.31 325.088 101.675C325.088 100.04 324.068 98.855 322.553 98.855C321.038 98.855 320.018 100.04 320.018 101.675C320.018 103.31 321.038 104.495 322.553 104.495ZM333.114 101.675V97.85H334.344V105.5H333.279L333.114 104.48C332.664 105.05 331.929 105.59 330.669 105.59C328.989 105.59 327.654 104.645 327.654 102.11V97.85H328.884V102.035C328.884 103.625 329.604 104.465 330.879 104.465C332.274 104.465 333.114 103.4 333.114 101.675ZM335.481 96.2V95H343.596V96.2H340.191V105.5H338.886V96.2H335.481ZM349.476 101.675V97.85H350.706V105.5H349.641L349.476 104.48C349.026 105.05 348.291 105.59 347.031 105.59C345.351 105.59 344.016 104.645 344.016 102.11V97.85H345.246V102.035C345.246 103.625 345.966 104.465 347.241 104.465C348.636 104.465 349.476 103.4 349.476 101.675ZM356.238 97.76C358.353 97.76 359.913 99.185 359.913 101.675C359.913 104.015 358.353 105.59 356.238 105.59C354.948 105.59 354.078 105.065 353.613 104.33L353.448 105.5H352.383V95H353.613V99.08C354.123 98.375 354.948 97.76 356.238 97.76ZM356.118 104.495C357.633 104.495 358.653 103.34 358.653 101.675C358.653 100.01 357.633 98.855 356.118 98.855C354.618 98.855 353.598 100.01 353.598 101.645C353.598 103.325 354.618 104.495 356.118 104.495ZM364.844 105.59C362.549 105.59 361.049 104.015 361.049 101.675C361.049 99.35 362.519 97.76 364.679 97.76C366.839 97.76 368.249 99.125 368.309 101.39C368.309 101.555 368.294 101.735 368.279 101.915H362.339V102.02C362.384 103.475 363.299 104.495 364.754 104.495C365.834 104.495 366.674 103.925 366.929 102.935H368.174C367.874 104.465 366.614 105.59 364.844 105.59ZM362.414 100.895H366.989C366.869 99.575 365.969 98.84 364.694 98.84C363.569 98.84 362.534 99.65 362.414 100.895Z"
        fill="white" />
    <path
        d="M310.3 123.7V122.5H318.415V123.7H315.01V133H313.705V123.7H310.3ZM321.733 133.09C319.438 133.09 317.938 131.515 317.938 129.175C317.938 126.85 319.408 125.26 321.568 125.26C323.728 125.26 325.138 126.625 325.198 128.89C325.198 129.055 325.183 129.235 325.168 129.415H319.228V129.52C319.273 130.975 320.188 131.995 321.643 131.995C322.723 131.995 323.563 131.425 323.818 130.435H325.063C324.763 131.965 323.503 133.09 321.733 133.09ZM319.303 128.395H323.878C323.758 127.075 322.858 126.34 321.583 126.34C320.458 126.34 319.423 127.15 319.303 128.395ZM326.602 133V122.5H327.832V133H326.602ZM333.042 133.09C330.747 133.09 329.247 131.515 329.247 129.175C329.247 126.85 330.717 125.26 332.877 125.26C335.037 125.26 336.447 126.625 336.507 128.89C336.507 129.055 336.492 129.235 336.477 129.415H330.537V129.52C330.582 130.975 331.497 131.995 332.952 131.995C334.032 131.995 334.872 131.425 335.127 130.435H336.372C336.072 131.965 334.812 133.09 333.042 133.09ZM330.612 128.395H335.187C335.067 127.075 334.167 126.34 332.892 126.34C331.767 126.34 330.732 127.15 330.612 128.395ZM343.94 126.67L344.105 125.35H345.17V132.625C345.17 134.83 344 136.09 341.375 136.09C339.425 136.09 338.06 135.175 337.865 133.495H339.125C339.335 134.455 340.19 134.995 341.465 134.995C343.07 134.995 343.94 134.245 343.94 132.58V131.68C343.43 132.55 342.605 133.09 341.315 133.09C339.2 133.09 337.64 131.665 337.64 129.175C337.64 126.835 339.2 125.26 341.315 125.26C342.605 125.26 343.46 125.815 343.94 126.67ZM341.435 131.995C342.935 131.995 343.955 130.84 343.955 129.205C343.955 127.525 342.935 126.355 341.435 126.355C339.92 126.355 338.9 127.51 338.9 129.175C338.9 130.84 339.92 131.995 341.435 131.995ZM350.386 125.35H350.731V126.55H350.116C348.511 126.55 348.076 127.885 348.076 129.1V133H346.846V125.35H347.911L348.076 126.505C348.436 125.92 349.021 125.35 350.386 125.35ZM358.298 131.875H358.688V133H358.013C356.993 133 356.648 132.565 356.633 131.815C356.153 132.505 355.388 133.09 354.068 133.09C352.388 133.09 351.248 132.25 351.248 130.855C351.248 129.325 352.313 128.47 354.323 128.47H356.573V127.945C356.573 126.955 355.868 126.355 354.668 126.355C353.588 126.355 352.868 126.865 352.718 127.645H351.488C351.668 126.145 352.883 125.26 354.728 125.26C356.678 125.26 357.803 126.235 357.803 128.02V131.365C357.803 131.77 357.953 131.875 358.298 131.875ZM356.573 129.88V129.505H354.203C353.108 129.505 352.493 129.91 352.493 130.78C352.493 131.53 353.138 132.04 354.158 132.04C355.688 132.04 356.573 131.155 356.573 129.88ZM368.169 125.26C369.759 125.26 371.064 126.175 371.064 128.59V133H369.834V128.665C369.834 127.165 369.174 126.385 368.019 126.385C366.744 126.385 365.964 127.345 365.964 128.905V133H364.734V128.665C364.734 127.165 364.059 126.385 362.889 126.385C361.629 126.385 360.864 127.435 360.864 128.965V133H359.634V125.35H360.699L360.864 126.4C361.269 125.845 361.914 125.26 363.099 125.26C364.164 125.26 365.079 125.74 365.514 126.715C365.979 125.89 366.804 125.26 368.169 125.26Z"
        fill="white" />
    <path
        d="M312.295 160.5H311.02V150H312.22L317.86 158.1V150H319.135V160.5H317.935L312.295 152.4V160.5ZM324.516 160.59C322.221 160.59 320.721 159.015 320.721 156.675C320.721 154.35 322.191 152.76 324.351 152.76C326.511 152.76 327.921 154.125 327.981 156.39C327.981 156.555 327.966 156.735 327.951 156.915H322.011V157.02C322.056 158.475 322.971 159.495 324.426 159.495C325.506 159.495 326.346 158.925 326.601 157.935H327.846C327.546 159.465 326.286 160.59 324.516 160.59ZM322.086 155.895H326.661C326.541 154.575 325.641 153.84 324.366 153.84C323.241 153.84 322.206 154.65 322.086 155.895ZM329.867 158.505V153.975H328.487V152.85H329.867V150.705H331.097V152.85H333.077V153.975H331.097V158.49C331.097 159.135 331.322 159.375 331.982 159.375H333.197V160.5H331.862C330.392 160.5 329.867 159.855 329.867 158.505ZM333.599 153.975V152.85H334.979V151.995C334.979 150.645 335.549 150 336.974 150H338.369V151.125H337.049C336.434 151.125 336.209 151.38 336.209 151.965V152.85H338.369V153.975H336.209V160.5H334.979V153.975H333.599ZM339.258 160.5V150H340.488V160.5H339.258ZM342.803 151.56C342.353 151.56 342.008 151.23 342.008 150.765C342.008 150.3 342.353 149.97 342.803 149.97C343.253 149.97 343.598 150.3 343.598 150.765C343.598 151.23 343.253 151.56 342.803 151.56ZM342.173 160.5V152.85H343.403V160.5H342.173ZM344.278 160.5L347.188 156.57L344.473 152.85H345.943L347.968 155.685L350.023 152.85H351.418L348.688 156.57L351.613 160.5H350.143L347.908 157.425L345.673 160.5H344.278Z"
        fill="white" />
    <path
        d="M314.38 188H311.02V177.5H314.38C317.665 177.5 319.66 179.6 319.66 182.75C319.66 185.885 317.665 188 314.38 188ZM312.325 178.7V186.8H314.38C316.93 186.8 318.325 185.195 318.325 182.75C318.325 180.29 316.93 178.7 314.38 178.7H312.325ZM321.753 179.06C321.303 179.06 320.958 178.73 320.958 178.265C320.958 177.8 321.303 177.47 321.753 177.47C322.203 177.47 322.548 177.8 322.548 178.265C322.548 178.73 322.203 179.06 321.753 179.06ZM321.123 188V180.35H322.353V188H321.123ZM323.723 185.48H324.983C325.028 186.38 325.823 187.04 327.098 187.04C328.178 187.04 328.943 186.575 328.943 185.87C328.943 184.91 328.103 184.835 326.963 184.7C325.253 184.49 323.888 184.145 323.888 182.555C323.888 181.16 325.163 180.245 326.888 180.26C328.628 180.275 329.888 181.085 330.008 182.675H328.748C328.658 181.895 327.938 181.31 326.888 181.31C325.823 181.31 325.103 181.76 325.103 182.465C325.103 183.305 325.913 183.41 327.023 183.545C328.763 183.755 330.158 184.085 330.158 185.78C330.158 187.205 328.793 188.09 327.098 188.09C325.118 188.09 323.753 187.16 323.723 185.48ZM334.959 188.09C332.724 188.09 331.254 186.575 331.254 184.19C331.254 181.85 332.769 180.26 334.989 180.26C336.864 180.26 338.049 181.31 338.364 182.99H337.074C336.849 181.97 336.099 181.355 334.974 181.355C333.504 181.355 332.514 182.525 332.514 184.19C332.514 185.855 333.504 186.995 334.974 186.995C336.069 186.995 336.819 186.365 337.059 185.39H338.364C338.064 187.04 336.819 188.09 334.959 188.09ZM343.237 188.09C341.002 188.09 339.442 186.5 339.442 184.175C339.442 181.85 341.002 180.26 343.237 180.26C345.472 180.26 347.032 181.85 347.032 184.175C347.032 186.5 345.472 188.09 343.237 188.09ZM343.237 186.995C344.752 186.995 345.772 185.81 345.772 184.175C345.772 182.54 344.752 181.355 343.237 181.355C341.722 181.355 340.702 182.54 340.702 184.175C340.702 185.81 341.722 186.995 343.237 186.995ZM351.983 180.35H352.328V181.55H351.713C350.108 181.55 349.673 182.885 349.673 184.1V188H348.443V180.35H349.508L349.673 181.505C350.033 180.92 350.618 180.35 351.983 180.35ZM358.984 181.52V177.5H360.214V188H359.149L358.984 186.77C358.474 187.475 357.649 188.09 356.359 188.09C354.244 188.09 352.684 186.665 352.684 184.175C352.684 181.835 354.244 180.26 356.359 180.26C357.649 180.26 358.519 180.785 358.984 181.52ZM356.479 186.995C357.979 186.995 358.999 185.84 358.999 184.205C358.999 182.525 357.979 181.355 356.479 181.355C354.964 181.355 353.944 182.51 353.944 184.175C353.944 185.84 354.964 186.995 356.479 186.995Z"
        fill="white" />
    <path d="M284 24.4444L288.571 30L296 20" stroke="#008CFF" stroke-width="1.5" stroke-linecap="round" />
    <path d="M284 102.444L288.571 108L296 98" stroke="#008CFF" stroke-width="1.5" stroke-linecap="round" />
    <path d="M284 50.4444L288.571 56L296 46" stroke="#008CFF" stroke-width="1.5" stroke-linecap="round" />
    <path d="M284 128.444L288.571 134L296 124" stroke="#008CFF" stroke-width="1.5" stroke-linecap="round" />
    <path d="M284 76.4444L288.571 82L296 72" stroke="#008CFF" stroke-width="1.5" stroke-linecap="round" />
    <path d="M284 154.444L288.571 160L296 150" stroke="#008CFF" stroke-width="1.5" stroke-linecap="round" />
    <path d="M284 180.444L288.571 186L296 176" stroke="#008CFF" stroke-width="1.5" stroke-linecap="round" />
    <path
        d="M319.375 71.26C320.965 71.26 322.27 72.175 322.27 74.59V79H321.04V74.665C321.04 73.165 320.38 72.385 319.225 72.385C317.95 72.385 317.17 73.345 317.17 74.905V79H315.94V74.665C315.94 73.165 315.265 72.385 314.095 72.385C312.835 72.385 312.07 73.435 312.07 74.965V79H310.84V71.35H311.905L312.07 72.4C312.475 71.845 313.12 71.26 314.305 71.26C315.37 71.26 316.285 71.74 316.72 72.715C317.185 71.89 318.01 71.26 319.375 71.26ZM330.613 77.875H331.003V79H330.328C329.308 79 328.963 78.565 328.948 77.815C328.468 78.505 327.703 79.09 326.383 79.09C324.703 79.09 323.563 78.25 323.563 76.855C323.563 75.325 324.628 74.47 326.638 74.47H328.888V73.945C328.888 72.955 328.183 72.355 326.983 72.355C325.903 72.355 325.183 72.865 325.033 73.645H323.803C323.983 72.145 325.198 71.26 327.043 71.26C328.993 71.26 330.118 72.235 330.118 74.02V77.365C330.118 77.77 330.268 77.875 330.613 77.875ZM328.888 75.88V75.505H326.518C325.423 75.505 324.808 75.91 324.808 76.78C324.808 77.53 325.453 78.04 326.473 78.04C328.003 78.04 328.888 77.155 328.888 75.88ZM332.578 70.06C332.128 70.06 331.783 69.73 331.783 69.265C331.783 68.8 332.128 68.47 332.578 68.47C333.028 68.47 333.373 68.8 333.373 69.265C333.373 69.73 333.028 70.06 332.578 70.06ZM331.948 79V71.35H333.178V79H331.948ZM334.863 79V68.5H336.093V79H334.863ZM337.628 78.25C337.628 77.74 337.988 77.41 338.483 77.41C338.978 77.41 339.338 77.74 339.338 78.25C339.338 78.76 338.978 79.09 338.483 79.09C337.988 79.09 337.628 78.76 337.628 78.25ZM344.409 71.35H344.754V72.55H344.139C342.534 72.55 342.099 73.885 342.099 75.1V79H340.869V71.35H341.934L342.099 72.505C342.459 71.92 343.044 71.35 344.409 71.35ZM351.175 75.175V71.35H352.405V79H351.34L351.175 77.98C350.725 78.55 349.99 79.09 348.73 79.09C347.05 79.09 345.715 78.145 345.715 75.61V71.35H346.945V75.535C346.945 77.125 347.665 77.965 348.94 77.965C350.335 77.965 351.175 76.9 351.175 75.175Z"
        fill="white" />
    <path
        d="M314.59 45.76C316.315 45.76 317.68 46.705 317.68 49.24V53.5H316.45V49.315C316.45 47.725 315.715 46.885 314.38 46.885C312.94 46.885 312.07 47.95 312.07 49.675V53.5H310.84V45.85H311.905L312.07 46.885C312.52 46.3 313.3 45.76 314.59 45.76ZM322.685 53.59C320.39 53.59 318.89 52.015 318.89 49.675C318.89 47.35 320.36 45.76 322.52 45.76C324.68 45.76 326.09 47.125 326.15 49.39C326.15 49.555 326.135 49.735 326.12 49.915H320.18V50.02C320.225 51.475 321.14 52.495 322.595 52.495C323.675 52.495 324.515 51.925 324.77 50.935H326.015C325.715 52.465 324.455 53.59 322.685 53.59ZM320.255 48.895H324.83C324.71 47.575 323.81 46.84 322.535 46.84C321.41 46.84 320.375 47.65 320.255 48.895ZM329.06 53.5L326.585 45.85H327.875L329.78 52.075L331.79 45.85H332.93L334.835 52.075L336.83 45.85H338.075L335.525 53.5H334.175L332.33 47.815L330.41 53.5H329.06ZM338.591 50.98H339.851C339.896 51.88 340.691 52.54 341.966 52.54C343.046 52.54 343.811 52.075 343.811 51.37C343.811 50.41 342.971 50.335 341.831 50.2C340.121 49.99 338.756 49.645 338.756 48.055C338.756 46.66 340.031 45.745 341.756 45.76C343.496 45.775 344.756 46.585 344.876 48.175H343.616C343.526 47.395 342.806 46.81 341.756 46.81C340.691 46.81 339.971 47.26 339.971 47.965C339.971 48.805 340.781 48.91 341.891 49.045C343.631 49.255 345.026 49.585 345.026 51.28C345.026 52.705 343.661 53.59 341.966 53.59C339.986 53.59 338.621 52.66 338.591 50.98ZM346.125 52.75C346.125 52.24 346.485 51.91 346.98 51.91C347.475 51.91 347.835 52.24 347.835 52.75C347.835 53.26 347.475 53.59 346.98 53.59C346.485 53.59 346.125 53.26 346.125 52.75ZM352.905 45.85H353.25V47.05H352.635C351.03 47.05 350.595 48.385 350.595 49.6V53.5H349.365V45.85H350.43L350.595 47.005C350.955 46.42 351.54 45.85 352.905 45.85ZM359.672 49.675V45.85H360.902V53.5H359.837L359.672 52.48C359.222 53.05 358.487 53.59 357.227 53.59C355.547 53.59 354.212 52.645 354.212 50.11V45.85H355.442V50.035C355.442 51.625 356.162 52.465 357.437 52.465C358.832 52.465 359.672 51.4 359.672 49.675Z"
        fill="white" />
    <path
        d="M316.87 21.67L317.035 20.35H318.1V27.625C318.1 29.83 316.93 31.09 314.305 31.09C312.355 31.09 310.99 30.175 310.795 28.495H312.055C312.265 29.455 313.12 29.995 314.395 29.995C316 29.995 316.87 29.245 316.87 27.58V26.68C316.36 27.55 315.535 28.09 314.245 28.09C312.13 28.09 310.57 26.665 310.57 24.175C310.57 21.835 312.13 20.26 314.245 20.26C315.535 20.26 316.39 20.815 316.87 21.67ZM314.365 26.995C315.865 26.995 316.885 25.84 316.885 24.205C316.885 22.525 315.865 21.355 314.365 21.355C312.85 21.355 311.83 22.51 311.83 24.175C311.83 25.84 312.85 26.995 314.365 26.995ZM323.301 28.09C321.066 28.09 319.506 26.5 319.506 24.175C319.506 21.85 321.066 20.26 323.301 20.26C325.536 20.26 327.096 21.85 327.096 24.175C327.096 26.5 325.536 28.09 323.301 28.09ZM323.301 26.995C324.816 26.995 325.836 25.81 325.836 24.175C325.836 22.54 324.816 21.355 323.301 21.355C321.786 21.355 320.766 22.54 320.766 24.175C320.766 25.81 321.786 26.995 323.301 26.995ZM330.269 28L327.404 20.35H328.724L331.034 26.605L333.329 20.35H334.619L331.754 28H330.269ZM338.725 28.09C336.43 28.09 334.93 26.515 334.93 24.175C334.93 21.85 336.4 20.26 338.56 20.26C340.72 20.26 342.13 21.625 342.19 23.89C342.19 24.055 342.175 24.235 342.16 24.415H336.22V24.52C336.265 25.975 337.18 26.995 338.635 26.995C339.715 26.995 340.555 26.425 340.81 25.435H342.055C341.755 26.965 340.495 28.09 338.725 28.09ZM336.295 23.395H340.87C340.75 22.075 339.85 21.34 338.575 21.34C337.45 21.34 336.415 22.15 336.295 23.395ZM347.134 20.35H347.479V21.55H346.864C345.259 21.55 344.824 22.885 344.824 24.1V28H343.594V20.35H344.659L344.824 21.505C345.184 20.92 345.769 20.35 347.134 20.35ZM352.295 20.26C354.02 20.26 355.385 21.205 355.385 23.74V28H354.155V23.815C354.155 22.225 353.42 21.385 352.085 21.385C350.645 21.385 349.775 22.45 349.775 24.175V28H348.545V20.35H349.61L349.775 21.385C350.225 20.8 351.005 20.26 352.295 20.26ZM365.488 20.26C367.078 20.26 368.383 21.175 368.383 23.59V28H367.153V23.665C367.153 22.165 366.493 21.385 365.338 21.385C364.063 21.385 363.283 22.345 363.283 23.905V28H362.053V23.665C362.053 22.165 361.378 21.385 360.208 21.385C358.948 21.385 358.183 22.435 358.183 23.965V28H356.953V20.35H358.018L358.183 21.4C358.588 20.845 359.233 20.26 360.418 20.26C361.483 20.26 362.398 20.74 362.833 21.715C363.298 20.89 364.123 20.26 365.488 20.26ZM373.398 28.09C371.103 28.09 369.603 26.515 369.603 24.175C369.603 21.85 371.073 20.26 373.233 20.26C375.393 20.26 376.803 21.625 376.863 23.89C376.863 24.055 376.848 24.235 376.833 24.415H370.893V24.52C370.938 25.975 371.853 26.995 373.308 26.995C374.388 26.995 375.228 26.425 375.483 25.435H376.728C376.428 26.965 375.168 28.09 373.398 28.09ZM370.968 23.395H375.543C375.423 22.075 374.523 21.34 373.248 21.34C372.123 21.34 371.088 22.15 370.968 23.395ZM382.017 20.26C383.742 20.26 385.107 21.205 385.107 23.74V28H383.877V23.815C383.877 22.225 383.142 21.385 381.807 21.385C380.367 21.385 379.497 22.45 379.497 24.175V28H378.267V20.35H379.332L379.497 21.385C379.947 20.8 380.727 20.26 382.017 20.26ZM387.245 26.005V21.475H385.865V20.35H387.245V18.205H388.475V20.35H390.455V21.475H388.475V25.99C388.475 26.635 388.7 26.875 389.36 26.875H390.575V28H389.24C387.77 28 387.245 27.355 387.245 26.005ZM391.549 27.25C391.549 26.74 391.909 26.41 392.404 26.41C392.899 26.41 393.259 26.74 393.259 27.25C393.259 27.76 392.899 28.09 392.404 28.09C391.909 28.09 391.549 27.76 391.549 27.25ZM398.33 20.35H398.675V21.55H398.06C396.455 21.55 396.02 22.885 396.02 24.1V28H394.79V20.35H395.855L396.02 21.505C396.38 20.92 396.965 20.35 398.33 20.35ZM405.096 24.175V20.35H406.326V28H405.261L405.096 26.98C404.646 27.55 403.911 28.09 402.651 28.09C400.971 28.09 399.636 27.145 399.636 24.61V20.35H400.866V24.535C400.866 26.125 401.586 26.965 402.861 26.965C404.256 26.965 405.096 25.9 405.096 24.175Z"
        fill="white" />
    <rect x="0.5" y="0.5" width="186" height="204" rx="9.5" fill="black" fill-opacity="0.32" stroke="#1A1A1A" />
    <path
        d="M50.095 101.615L46.135 95H47.665L50.755 100.205L53.89 95H55.36L51.4 101.615V105.5H50.095V101.615ZM58.5535 105.59C56.3185 105.59 54.7585 104 54.7585 101.675C54.7585 99.35 56.3185 97.76 58.5535 97.76C60.7885 97.76 62.3485 99.35 62.3485 101.675C62.3485 104 60.7885 105.59 58.5535 105.59ZM58.5535 104.495C60.0685 104.495 61.0885 103.31 61.0885 101.675C61.0885 100.04 60.0685 98.855 58.5535 98.855C57.0385 98.855 56.0185 100.04 56.0185 101.675C56.0185 103.31 57.0385 104.495 58.5535 104.495ZM69.1139 101.675V97.85H70.3439V105.5H69.2789L69.1139 104.48C68.6639 105.05 67.9289 105.59 66.6689 105.59C64.9889 105.59 63.6539 104.645 63.6539 102.11V97.85H64.8839V102.035C64.8839 103.625 65.6039 104.465 66.8789 104.465C68.2739 104.465 69.1139 103.4 69.1139 101.675ZM71.4807 96.2V95H79.5957V96.2H76.1907V105.5H74.8857V96.2H71.4807ZM85.4763 101.675V97.85H86.7063V105.5H85.6413L85.4763 104.48C85.0263 105.05 84.2913 105.59 83.0312 105.59C81.3513 105.59 80.0163 104.645 80.0163 102.11V97.85H81.2463V102.035C81.2463 103.625 81.9663 104.465 83.2412 104.465C84.6363 104.465 85.4763 103.4 85.4763 101.675ZM92.238 97.76C94.353 97.76 95.913 99.185 95.913 101.675C95.913 104.015 94.353 105.59 92.238 105.59C90.948 105.59 90.078 105.065 89.613 104.33L89.448 105.5H88.383V95H89.613V99.08C90.123 98.375 90.948 97.76 92.238 97.76ZM92.118 104.495C93.633 104.495 94.653 103.34 94.653 101.675C94.653 100.01 93.633 98.855 92.118 98.855C90.618 98.855 89.598 100.01 89.598 101.645C89.598 103.325 90.618 104.495 92.118 104.495ZM100.844 105.59C98.5485 105.59 97.0485 104.015 97.0485 101.675C97.0485 99.35 98.5185 97.76 100.679 97.76C102.839 97.76 104.249 99.125 104.309 101.39C104.309 101.555 104.294 101.735 104.279 101.915H98.3385V102.02C98.3835 103.475 99.2985 104.495 100.754 104.495C101.834 104.495 102.674 103.925 102.929 102.935H104.174C103.874 104.465 102.614 105.59 100.844 105.59ZM98.4135 100.895H102.989C102.869 99.575 101.969 98.84 100.694 98.84C99.5685 98.84 98.5335 99.65 98.4135 100.895Z"
        fill="white" />
    <path
        d="M46.3 123.7V122.5H54.415V123.7H51.01V133H49.705V123.7H46.3ZM57.7332 133.09C55.4382 133.09 53.9382 131.515 53.9382 129.175C53.9382 126.85 55.4082 125.26 57.5682 125.26C59.7282 125.26 61.1382 126.625 61.1982 128.89C61.1982 129.055 61.1832 129.235 61.1682 129.415H55.2282V129.52C55.2732 130.975 56.1882 131.995 57.6432 131.995C58.7232 131.995 59.5632 131.425 59.8182 130.435H61.0632C60.7632 131.965 59.5032 133.09 57.7332 133.09ZM55.3032 128.395H59.8782C59.7582 127.075 58.8582 126.34 57.5832 126.34C56.4582 126.34 55.4232 127.15 55.3032 128.395ZM62.6017 133V122.5H63.8317V133H62.6017ZM69.0418 133.09C66.7468 133.09 65.2468 131.515 65.2468 129.175C65.2468 126.85 66.7168 125.26 68.8768 125.26C71.0368 125.26 72.4468 126.625 72.5068 128.89C72.5068 129.055 72.4918 129.235 72.4768 129.415H66.5368V129.52C66.5818 130.975 67.4968 131.995 68.9518 131.995C70.0318 131.995 70.8718 131.425 71.1268 130.435H72.3718C72.0718 131.965 70.8118 133.09 69.0418 133.09ZM66.6118 128.395H71.1868C71.0668 127.075 70.1668 126.34 68.8918 126.34C67.7668 126.34 66.7318 127.15 66.6118 128.395ZM79.9403 126.67L80.1053 125.35H81.1703V132.625C81.1703 134.83 80.0003 136.09 77.3753 136.09C75.4253 136.09 74.0603 135.175 73.8653 133.495H75.1253C75.3353 134.455 76.1903 134.995 77.4653 134.995C79.0703 134.995 79.9403 134.245 79.9403 132.58V131.68C79.4303 132.55 78.6053 133.09 77.3153 133.09C75.2003 133.09 73.6403 131.665 73.6403 129.175C73.6403 126.835 75.2003 125.26 77.3153 125.26C78.6053 125.26 79.4603 125.815 79.9403 126.67ZM77.4353 131.995C78.9353 131.995 79.9553 130.84 79.9553 129.205C79.9553 127.525 78.9353 126.355 77.4353 126.355C75.9203 126.355 74.9003 127.51 74.9003 129.175C74.9003 130.84 75.9203 131.995 77.4353 131.995ZM86.3859 125.35H86.7309V126.55H86.1159C84.5109 126.55 84.0759 127.885 84.0759 129.1V133H82.8459V125.35H83.9109L84.0759 126.505C84.4359 125.92 85.0209 125.35 86.3859 125.35ZM94.2984 131.875H94.6884V133H94.0134C92.9934 133 92.6484 132.565 92.6334 131.815C92.1534 132.505 91.3884 133.09 90.0684 133.09C88.3884 133.09 87.2484 132.25 87.2484 130.855C87.2484 129.325 88.3134 128.47 90.3234 128.47H92.5734V127.945C92.5734 126.955 91.8684 126.355 90.6684 126.355C89.5884 126.355 88.8684 126.865 88.7184 127.645H87.4884C87.6684 126.145 88.8834 125.26 90.7284 125.26C92.6784 125.26 93.8034 126.235 93.8034 128.02V131.365C93.8034 131.77 93.9534 131.875 94.2984 131.875ZM92.5734 129.88V129.505H90.2034C89.1084 129.505 88.4934 129.91 88.4934 130.78C88.4934 131.53 89.1384 132.04 90.1584 132.04C91.6884 132.04 92.5734 131.155 92.5734 129.88ZM104.169 125.26C105.759 125.26 107.064 126.175 107.064 128.59V133H105.834V128.665C105.834 127.165 105.174 126.385 104.019 126.385C102.744 126.385 101.964 127.345 101.964 128.905V133H100.734V128.665C100.734 127.165 100.059 126.385 98.8889 126.385C97.6289 126.385 96.8639 127.435 96.8639 128.965V133H95.6339V125.35H96.6989L96.8639 126.4C97.2689 125.845 97.9139 125.26 99.0989 125.26C100.164 125.26 101.079 125.74 101.514 126.715C101.979 125.89 102.804 125.26 104.169 125.26Z"
        fill="white" />
    <path
        d="M48.295 160.5H47.02V150H48.22L53.86 158.1V150H55.135V160.5H53.935L48.295 152.4V160.5ZM60.5164 160.59C58.2214 160.59 56.7214 159.015 56.7214 156.675C56.7214 154.35 58.1914 152.76 60.3514 152.76C62.5114 152.76 63.9214 154.125 63.9814 156.39C63.9814 156.555 63.9664 156.735 63.9514 156.915H58.0114V157.02C58.0564 158.475 58.9714 159.495 60.4264 159.495C61.5064 159.495 62.3464 158.925 62.6014 157.935H63.8464C63.5464 159.465 62.2864 160.59 60.5164 160.59ZM58.0864 155.895H62.6614C62.5414 154.575 61.6414 153.84 60.3664 153.84C59.2414 153.84 58.2064 154.65 58.0864 155.895ZM65.867 158.505V153.975H64.487V152.85H65.867V150.705H67.097V152.85H69.077V153.975H67.097V158.49C67.097 159.135 67.322 159.375 67.982 159.375H69.197V160.5H67.862C66.392 160.5 65.867 159.855 65.867 158.505ZM69.5993 153.975V152.85H70.9793V151.995C70.9793 150.645 71.5493 150 72.9743 150H74.3693V151.125H73.0493C72.4343 151.125 72.2093 151.38 72.2093 151.965V152.85H74.3693V153.975H72.2093V160.5H70.9793V153.975H69.5993ZM75.258 160.5V150H76.488V160.5H75.258ZM78.803 151.56C78.353 151.56 78.008 151.23 78.008 150.765C78.008 150.3 78.353 149.97 78.803 149.97C79.253 149.97 79.598 150.3 79.598 150.765C79.598 151.23 79.253 151.56 78.803 151.56ZM78.173 160.5V152.85H79.403V160.5H78.173ZM80.278 160.5L83.188 156.57L80.473 152.85H81.943L83.968 155.685L86.023 152.85H87.418L84.688 156.57L87.613 160.5H86.143L83.908 157.425L81.673 160.5H80.278Z"
        fill="white" />
    <path
        d="M50.38 188H47.02V177.5H50.38C53.665 177.5 55.66 179.6 55.66 182.75C55.66 185.885 53.665 188 50.38 188ZM48.325 178.7V186.8H50.38C52.93 186.8 54.325 185.195 54.325 182.75C54.325 180.29 52.93 178.7 50.38 178.7H48.325ZM57.7532 179.06C57.3032 179.06 56.9582 178.73 56.9582 178.265C56.9582 177.8 57.3032 177.47 57.7532 177.47C58.2032 177.47 58.5482 177.8 58.5482 178.265C58.5482 178.73 58.2032 179.06 57.7532 179.06ZM57.1232 188V180.35H58.3532V188H57.1232ZM59.7232 185.48H60.9832C61.0282 186.38 61.8232 187.04 63.0982 187.04C64.1782 187.04 64.9432 186.575 64.9432 185.87C64.9432 184.91 64.1032 184.835 62.9632 184.7C61.2532 184.49 59.8882 184.145 59.8882 182.555C59.8882 181.16 61.1632 180.245 62.8882 180.26C64.6282 180.275 65.8882 181.085 66.0082 182.675H64.7482C64.6582 181.895 63.9382 181.31 62.8882 181.31C61.8232 181.31 61.1032 181.76 61.1032 182.465C61.1032 183.305 61.9132 183.41 63.0232 183.545C64.7632 183.755 66.1582 184.085 66.1582 185.78C66.1582 187.205 64.7932 188.09 63.0982 188.09C61.1182 188.09 59.7532 187.16 59.7232 185.48ZM70.9586 188.09C68.7236 188.09 67.2536 186.575 67.2536 184.19C67.2536 181.85 68.7686 180.26 70.9886 180.26C72.8636 180.26 74.0486 181.31 74.3636 182.99H73.0736C72.8486 181.97 72.0986 181.355 70.9736 181.355C69.5036 181.355 68.5136 182.525 68.5136 184.19C68.5136 185.855 69.5036 186.995 70.9736 186.995C72.0686 186.995 72.8186 186.365 73.0586 185.39H74.3636C74.0636 187.04 72.8186 188.09 70.9586 188.09ZM79.2371 188.09C77.0021 188.09 75.4421 186.5 75.4421 184.175C75.4421 181.85 77.0021 180.26 79.2371 180.26C81.4721 180.26 83.0321 181.85 83.0321 184.175C83.0321 186.5 81.4721 188.09 79.2371 188.09ZM79.2371 186.995C80.7521 186.995 81.7721 185.81 81.7721 184.175C81.7721 182.54 80.7521 181.355 79.2371 181.355C77.7221 181.355 76.7021 182.54 76.7021 184.175C76.7021 185.81 77.7221 186.995 79.2371 186.995ZM87.9825 180.35H88.3275V181.55H87.7125C86.1075 181.55 85.6725 182.885 85.6725 184.1V188H84.4425V180.35H85.5075L85.6725 181.505C86.0325 180.92 86.6175 180.35 87.9825 180.35ZM94.9843 181.52V177.5H96.2143V188H95.1493L94.9843 186.77C94.4743 187.475 93.6493 188.09 92.3593 188.09C90.2443 188.09 88.6843 186.665 88.6843 184.175C88.6843 181.835 90.2443 180.26 92.3593 180.26C93.6493 180.26 94.5193 180.785 94.9843 181.52ZM92.4793 186.995C93.9793 186.995 94.9993 185.84 94.9993 184.205C94.9993 182.525 93.9793 181.355 92.4793 181.355C90.9643 181.355 89.9443 182.51 89.9443 184.175C89.9443 185.84 90.9643 186.995 92.4793 186.995Z"
        fill="white" />
    <path d="M20 24.4444L24.5714 30L32 20" stroke="#008CFF" stroke-width="1.5" stroke-linecap="round" />
    <path d="M20 50.4444L24.5714 56L32 46" stroke="#008CFF" stroke-width="1.5" stroke-linecap="round" />
    <path d="M20 76.4444L24.5714 82L32 72" stroke="#008CFF" stroke-width="1.5" stroke-linecap="round" />
    <path
        d="M55.375 71.26C56.965 71.26 58.27 72.175 58.27 74.59V79H57.04V74.665C57.04 73.165 56.38 72.385 55.225 72.385C53.95 72.385 53.17 73.345 53.17 74.905V79H51.94V74.665C51.94 73.165 51.265 72.385 50.095 72.385C48.835 72.385 48.07 73.435 48.07 74.965V79H46.84V71.35H47.905L48.07 72.4C48.475 71.845 49.12 71.26 50.305 71.26C51.37 71.26 52.285 71.74 52.72 72.715C53.185 71.89 54.01 71.26 55.375 71.26ZM66.6128 77.875H67.0028V79H66.3278C65.3078 79 64.9628 78.565 64.9478 77.815C64.4678 78.505 63.7028 79.09 62.3828 79.09C60.7028 79.09 59.5628 78.25 59.5628 76.855C59.5628 75.325 60.6278 74.47 62.6378 74.47H64.8878V73.945C64.8878 72.955 64.1828 72.355 62.9828 72.355C61.9028 72.355 61.1828 72.865 61.0328 73.645H59.8028C59.9828 72.145 61.1978 71.26 63.0428 71.26C64.9928 71.26 66.1178 72.235 66.1178 74.02V77.365C66.1178 77.77 66.2678 77.875 66.6128 77.875ZM64.8878 75.88V75.505H62.5178C61.4228 75.505 60.8078 75.91 60.8078 76.78C60.8078 77.53 61.4528 78.04 62.4728 78.04C64.0028 78.04 64.8878 77.155 64.8878 75.88ZM68.5784 70.06C68.1284 70.06 67.7834 69.73 67.7834 69.265C67.7834 68.8 68.1284 68.47 68.5784 68.47C69.0284 68.47 69.3734 68.8 69.3734 69.265C69.3734 69.73 69.0284 70.06 68.5784 70.06ZM67.9484 79V71.35H69.1784V79H67.9484ZM70.8634 79V68.5H72.0934V79H70.8634ZM73.6285 78.25C73.6285 77.74 73.9885 77.41 74.4835 77.41C74.9785 77.41 75.3385 77.74 75.3385 78.25C75.3385 78.76 74.9785 79.09 74.4835 79.09C73.9885 79.09 73.6285 78.76 73.6285 78.25ZM80.4093 71.35H80.7543V72.55H80.1393C78.5343 72.55 78.0993 73.885 78.0993 75.1V79H76.8693V71.35H77.9343L78.0993 72.505C78.4593 71.92 79.0443 71.35 80.4093 71.35ZM87.1755 75.175V71.35H88.4055V79H87.3405L87.1755 77.98C86.7255 78.55 85.9905 79.09 84.7305 79.09C83.0505 79.09 81.7155 78.145 81.7155 75.61V71.35H82.9455V75.535C82.9455 77.125 83.6655 77.965 84.9405 77.965C86.3355 77.965 87.1755 76.9 87.1755 75.175Z"
        fill="white" />
    <path
        d="M50.59 45.76C52.315 45.76 53.68 46.705 53.68 49.24V53.5H52.45V49.315C52.45 47.725 51.715 46.885 50.38 46.885C48.94 46.885 48.07 47.95 48.07 49.675V53.5H46.84V45.85H47.905L48.07 46.885C48.52 46.3 49.3 45.76 50.59 45.76ZM58.6853 53.59C56.3903 53.59 54.8903 52.015 54.8903 49.675C54.8903 47.35 56.3603 45.76 58.5203 45.76C60.6803 45.76 62.0903 47.125 62.1503 49.39C62.1503 49.555 62.1353 49.735 62.1203 49.915H56.1803V50.02C56.2253 51.475 57.1403 52.495 58.5953 52.495C59.6753 52.495 60.5153 51.925 60.7703 50.935H62.0153C61.7153 52.465 60.4553 53.59 58.6853 53.59ZM56.2553 48.895H60.8303C60.7103 47.575 59.8103 46.84 58.5353 46.84C57.4103 46.84 56.3753 47.65 56.2553 48.895ZM65.0598 53.5L62.5848 45.85H63.8748L65.7798 52.075L67.7898 45.85H68.9298L70.8348 52.075L72.8298 45.85H74.0748L71.5248 53.5H70.1748L68.3298 47.815L66.4098 53.5H65.0598ZM74.5914 50.98H75.8514C75.8964 51.88 76.6914 52.54 77.9664 52.54C79.0464 52.54 79.8114 52.075 79.8114 51.37C79.8114 50.41 78.9714 50.335 77.8314 50.2C76.1214 49.99 74.7564 49.645 74.7564 48.055C74.7564 46.66 76.0314 45.745 77.7564 45.76C79.4964 45.775 80.7564 46.585 80.8764 48.175H79.6164C79.5264 47.395 78.8064 46.81 77.7564 46.81C76.6914 46.81 75.9714 47.26 75.9714 47.965C75.9714 48.805 76.7814 48.91 77.8914 49.045C79.6314 49.255 81.0264 49.585 81.0264 51.28C81.0264 52.705 79.6614 53.59 77.9664 53.59C75.9864 53.59 74.6214 52.66 74.5914 50.98ZM82.1246 52.75C82.1246 52.24 82.4846 51.91 82.9796 51.91C83.4746 51.91 83.8346 52.24 83.8346 52.75C83.8346 53.26 83.4746 53.59 82.9796 53.59C82.4846 53.59 82.1246 53.26 82.1246 52.75ZM88.9054 45.85H89.2504V47.05H88.6354C87.0304 47.05 86.5954 48.385 86.5954 49.6V53.5H85.3654V45.85H86.4304L86.5954 47.005C86.9554 46.42 87.5404 45.85 88.9054 45.85ZM95.6716 49.675V45.85H96.9016V53.5H95.8366L95.6716 52.48C95.2216 53.05 94.4866 53.59 93.2266 53.59C91.5466 53.59 90.2116 52.645 90.2116 50.11V45.85H91.4416V50.035C91.4416 51.625 92.1616 52.465 93.4366 52.465C94.8316 52.465 95.6716 51.4 95.6716 49.675Z"
        fill="white" />
    <path
        d="M52.87 21.67L53.035 20.35H54.1V27.625C54.1 29.83 52.93 31.09 50.305 31.09C48.355 31.09 46.99 30.175 46.795 28.495H48.055C48.265 29.455 49.12 29.995 50.395 29.995C52 29.995 52.87 29.245 52.87 27.58V26.68C52.36 27.55 51.535 28.09 50.245 28.09C48.13 28.09 46.57 26.665 46.57 24.175C46.57 21.835 48.13 20.26 50.245 20.26C51.535 20.26 52.39 20.815 52.87 21.67ZM50.365 26.995C51.865 26.995 52.885 25.84 52.885 24.205C52.885 22.525 51.865 21.355 50.365 21.355C48.85 21.355 47.83 22.51 47.83 24.175C47.83 25.84 48.85 26.995 50.365 26.995ZM59.3005 28.09C57.0655 28.09 55.5055 26.5 55.5055 24.175C55.5055 21.85 57.0655 20.26 59.3005 20.26C61.5355 20.26 63.0955 21.85 63.0955 24.175C63.0955 26.5 61.5355 28.09 59.3005 28.09ZM59.3005 26.995C60.8155 26.995 61.8355 25.81 61.8355 24.175C61.8355 22.54 60.8155 21.355 59.3005 21.355C57.7855 21.355 56.7655 22.54 56.7655 24.175C56.7655 25.81 57.7855 26.995 59.3005 26.995ZM66.2691 28L63.4041 20.35H64.7241L67.0341 26.605L69.3291 20.35H70.6191L67.7541 28H66.2691ZM74.7254 28.09C72.4304 28.09 70.9304 26.515 70.9304 24.175C70.9304 21.85 72.4004 20.26 74.5604 20.26C76.7204 20.26 78.1304 21.625 78.1904 23.89C78.1904 24.055 78.1754 24.235 78.1604 24.415H72.2204V24.52C72.2654 25.975 73.1804 26.995 74.6354 26.995C75.7154 26.995 76.5554 26.425 76.8104 25.435H78.0554C77.7554 26.965 76.4954 28.09 74.7254 28.09ZM72.2954 23.395H76.8704C76.7504 22.075 75.8504 21.34 74.5754 21.34C73.4504 21.34 72.4154 22.15 72.2954 23.395ZM83.1339 20.35H83.4789V21.55H82.8639C81.2589 21.55 80.8239 22.885 80.8239 24.1V28H79.5939V20.35H80.6589L80.8239 21.505C81.1839 20.92 81.7689 20.35 83.1339 20.35ZM88.2951 20.26C90.0201 20.26 91.3851 21.205 91.3851 23.74V28H90.1551V23.815C90.1551 22.225 89.4201 21.385 88.0851 21.385C86.6451 21.385 85.7751 22.45 85.7751 24.175V28H84.5451V20.35H85.6101L85.7751 21.385C86.2251 20.8 87.0051 20.26 88.2951 20.26ZM101.488 20.26C103.078 20.26 104.383 21.175 104.383 23.59V28H103.153V23.665C103.153 22.165 102.493 21.385 101.338 21.385C100.063 21.385 99.2833 22.345 99.2833 23.905V28H98.0533V23.665C98.0533 22.165 97.3783 21.385 96.2083 21.385C94.9483 21.385 94.1833 22.435 94.1833 23.965V28H92.9533V20.35H94.0183L94.1833 21.4C94.5883 20.845 95.2333 20.26 96.4183 20.26C97.4833 20.26 98.3983 20.74 98.8333 21.715C99.2983 20.89 100.123 20.26 101.488 20.26ZM109.398 28.09C107.103 28.09 105.603 26.515 105.603 24.175C105.603 21.85 107.073 20.26 109.233 20.26C111.393 20.26 112.803 21.625 112.863 23.89C112.863 24.055 112.848 24.235 112.833 24.415H106.893V24.52C106.938 25.975 107.853 26.995 109.308 26.995C110.388 26.995 111.228 26.425 111.483 25.435H112.728C112.428 26.965 111.168 28.09 109.398 28.09ZM106.968 23.395H111.543C111.423 22.075 110.523 21.34 109.248 21.34C108.123 21.34 107.088 22.15 106.968 23.395ZM118.017 20.26C119.742 20.26 121.107 21.205 121.107 23.74V28H119.877V23.815C119.877 22.225 119.142 21.385 117.807 21.385C116.367 21.385 115.497 22.45 115.497 24.175V28H114.267V20.35H115.332L115.497 21.385C115.947 20.8 116.727 20.26 118.017 20.26ZM123.245 26.005V21.475H121.865V20.35H123.245V18.205H124.475V20.35H126.455V21.475H124.475V25.99C124.475 26.635 124.7 26.875 125.36 26.875H126.575V28H125.24C123.77 28 123.245 27.355 123.245 26.005ZM127.549 27.25C127.549 26.74 127.909 26.41 128.404 26.41C128.899 26.41 129.259 26.74 129.259 27.25C129.259 27.76 128.899 28.09 128.404 28.09C127.909 28.09 127.549 27.76 127.549 27.25ZM134.33 20.35H134.675V21.55H134.06C132.455 21.55 132.02 22.885 132.02 24.1V28H130.79V20.35H131.855L132.02 21.505C132.38 20.92 132.965 20.35 134.33 20.35ZM141.096 24.175V20.35H142.326V28H141.261L141.096 26.98C140.646 27.55 139.911 28.09 138.651 28.09C136.971 28.09 135.636 27.145 135.636 24.61V20.35H136.866V24.535C136.866 26.125 137.586 26.965 138.861 26.965C140.256 26.965 141.096 25.9 141.096 24.175Z"
        fill="white" />
    <path d="M20.1182 98L30.879 108.761" stroke="#F82A2A" stroke-width="1.5" stroke-linecap="round" />
    <path d="M20.1182 108.761L30.879 98" stroke="#F82A2A" stroke-width="1.5" stroke-linecap="round" />
    <path d="M20.1182 124.413L30.879 135.174" stroke="#F82A2A" stroke-width="1.5" stroke-linecap="round" />
    <path d="M20.1182 135.174L30.879 124.413" stroke="#F82A2A" stroke-width="1.5" stroke-linecap="round" />
    <path d="M20.1182 150.826L30.879 161.587" stroke="#F82A2A" stroke-width="1.5" stroke-linecap="round" />
    <path d="M20.1182 161.587L30.879 150.826" stroke="#F82A2A" stroke-width="1.5" stroke-linecap="round" />
    <path d="M20.1182 177.239L30.879 188" stroke="#F82A2A" stroke-width="1.5" stroke-linecap="round" />
    <path d="M20.1182 188L30.879 177.239" stroke="#F82A2A" stroke-width="1.5" stroke-linecap="round" />
    <path
        d="M188 89.5C187.724 89.5 187.5 89.7239 187.5 90C187.5 90.2761 187.724 90.5 188 90.5V90V89.5ZM262.854 90.3536C263.049 90.1583 263.049 89.8417 262.854 89.6464L259.672 86.4645C259.476 86.2692 259.16 86.2692 258.964 86.4645C258.769 86.6597 258.769 86.9763 258.964 87.1716L261.793 90L258.964 92.8284C258.769 93.0237 258.769 93.3403 258.964 93.5355C259.16 93.7308 259.476 93.7308 259.672 93.5355L262.854 90.3536ZM188 90V90.5H262.5V90V89.5H188V90Z"
        fill="#008CFF" />
    <rect x="201" y="81" width="49" height="17" rx="8.5" fill="#008CFF" />
    <path
        d="M236.423 93H234.853V86H237.936L240.004 92.6028H240.394L240.102 91.6V86H241.672V93H238.58L236.521 86.3972H236.121L236.423 87.4V93Z"
        fill="white" fill-opacity="0.9" />
    <path
        d="M231.225 86C232.978 86 234.328 86.3311 234.328 88.4056C234.328 90.4897 232.978 90.8209 231.225 90.8209H230.319L230.339 93H228.732V86H231.225ZM230.319 89.4574H231.323C232.259 89.4574 232.742 89.36 232.742 88.4056C232.742 87.4706 232.259 87.3732 231.323 87.3732H230.319V89.4574Z"
        fill="white" fill-opacity="0.9" />
    <path d="M223.012 93L221.038 86H222.622L224.419 92.4765H224.817L226.624 86H228.208L226.199 93H223.012Z" fill="white"
        fill-opacity="0.9" />
    <path d="M213.869 93L215.443 93V86H213.869L213.869 93Z" fill="white" fill-opacity="0.9" />
    <path
        d="M209.617 86C207.379 86 206 87.4727 206 89.3957C206 91.328 207.478 93 209.716 93H212.995L212.02 91.4919L209.872 91.6809C208.653 91.6809 207.891 90.7798 207.891 89.4103C207.891 88.0501 208.418 87.3226 209.637 87.3226L212.02 87.544L212.995 86H209.617Z"
        fill="white" fill-opacity="0.9" />
    <path fill-rule="evenodd" clip-rule="evenodd"
        d="M217.212 92.7593C217.501 92.9198 217.835 93 218.215 93C218.655 93 218.983 92.9259 219.199 92.7778C219.415 92.6296 219.563 92.4784 219.642 92.3241H219.779V93H221.038V88.3333H219.779V90.6667C219.779 91.0926 219.694 91.4259 219.484 91.6667C219.274 91.9012 218.979 92.0185 218.599 92.0185C218.265 92.0185 218.006 91.9321 217.822 91.7593C217.645 91.5864 217.576 91.3268 217.576 90.9811V88.3333H216.317V91.0741C216.317 91.4506 216.396 91.784 216.553 92.0741C216.71 92.3642 216.93 92.5926 217.212 92.7593Z"
        fill="white" fill-opacity="0.9" />
    <path
        d="M244.459 86H244.736L245.234 86.8833L245.732 86H246V87.4898H245.732V86.4469L245.319 87.1812H245.14L244.727 86.4469V87.4898H244.459V86Z"
        fill="white" fill-opacity="0.9" />
    <path d="M243.421 86.2213H242.896V86H244.214V86.2213H243.689V87.4898H243.421V86.2213Z" fill="white"
        fill-opacity="0.9" />
</svg>
