<svg width="539" height="377" viewBox="0 0 539 377" fill="none" xmlns="http://www.w3.org/2000/svg">
<g clip-path="url(#clip0_1197_961)">
<mask id="mask0_1197_961" style="mask-type:luminance" maskUnits="userSpaceOnUse" x="0" y="0" width="539" height="377">
<path d="M524 0H15C6.71573 0 0 6.71573 0 15V362C0 370.284 6.71573 377 15 377H524C532.284 377 539 370.284 539 362V15C539 6.71573 532.284 0 524 0Z" fill="white"/>
</mask>
<g mask="url(#mask0_1197_961)">
<path d="M524 0H15C6.71573 0 0 6.71573 0 15V362C0 370.284 6.71573 377 15 377H524C532.284 377 539 370.284 539 362V15C539 6.71573 532.284 0 524 0Z" fill="#0E0E10"/>
<g filter="url(#filter0_f_1197_961)">
<path d="M269.5 472C418.341 472 539 439.541 539 399.5C539 359.459 418.341 327 269.5 327C120.659 327 0 359.459 0 399.5C0 439.541 120.659 472 269.5 472Z" fill="#008CFF"/>
</g>
<path d="M150.625 329.275C154.05 329.275 156.425 331.675 156.425 335.15C156.425 339.025 153.575 341.125 150.3 341.125C146.4 341.125 144.15 338.6 143.975 335.55H146.05C146.25 337.575 147.775 339.25 150.3 339.25C152.35 339.25 154.275 337.875 154.275 335.175C154.275 332.8 152.75 331.125 150.325 331.125C149.25 331.125 147.1 331.425 146.35 333.5L144.325 333.45L144.9 323.5H155.375V325.425H146.825L146.425 330.95C147.5 329.675 149 329.275 150.625 329.275ZM173.927 328.25V339.125H175.952V344.375H173.902V341H163.502V344.375H161.452V339.125H162.752C163.677 338.425 164.177 337.525 164.177 333.575V328.25H173.927ZM165.227 339.125H171.877V330.125H166.177V333.8C166.177 336.725 165.852 338.15 165.227 339.125ZM185.593 333.575V328.25H187.643V341H185.593V335.45H178.418V341H176.368V328.25H178.418V333.575H185.593ZM195.08 341.15C191.255 341.15 188.755 338.525 188.755 334.625C188.755 330.75 191.205 328.1 194.805 328.1C198.405 328.1 200.755 330.375 200.855 334.15C200.855 334.425 200.83 334.725 200.805 335.025H190.905V335.2C190.98 337.625 192.505 339.325 194.93 339.325C196.73 339.325 198.13 338.375 198.555 336.725H200.63C200.13 339.275 198.03 341.15 195.08 341.15ZM191.03 333.325H198.655C198.455 331.125 196.955 329.9 194.83 329.9C192.955 329.9 191.23 331.25 191.03 333.325ZM207.594 326.8C205.194 326.8 203.994 325.475 203.944 323.375H205.644C205.644 324.6 206.194 325.35 207.619 325.35C209.044 325.35 209.644 324.6 209.644 323.375H211.344C211.294 325.475 210.019 326.8 207.594 326.8ZM203.744 341H201.944V328.25H203.944V337.9L211.544 328.25H213.344V341H211.344V331.325L203.744 341ZM222.246 341H220.196V328.25H231.221V341H229.171V330.125H222.246V341ZM238.639 341.15C234.914 341.15 232.314 338.5 232.314 334.625C232.314 330.75 234.914 328.1 238.639 328.1C242.364 328.1 244.964 330.75 244.964 334.625C244.964 338.5 242.364 341.15 238.639 341.15ZM238.639 339.325C241.164 339.325 242.864 337.35 242.864 334.625C242.864 331.9 241.164 329.925 238.639 329.925C236.114 329.925 234.414 331.9 234.414 334.625C234.414 337.35 236.114 339.325 238.639 339.325ZM245.049 341H244.349V339.125H244.724C246.174 339.125 246.724 338.25 246.724 334.425V328.25H256.374V341H254.324V330.125H248.724V334.5C248.724 339.575 247.524 341 245.049 341ZM267.15 333.575V328.25H269.2V341H267.15V335.45H259.975V341H257.925V328.25H259.975V333.575H267.15ZM276.637 341.15C272.912 341.15 270.312 338.5 270.312 334.625C270.312 330.75 272.912 328.1 276.637 328.1C280.362 328.1 282.962 330.75 282.962 334.625C282.962 338.5 280.362 341.15 276.637 341.15ZM276.637 339.325C279.162 339.325 280.862 337.35 280.862 334.625C280.862 331.9 279.162 329.925 276.637 329.925C274.112 329.925 272.412 331.9 272.412 334.625C272.412 337.35 274.112 339.325 276.637 339.325ZM286.113 341H284.063V328.25H292.238V330.125H286.113V341ZM297.819 341.15C294.094 341.15 291.494 338.5 291.494 334.625C291.494 330.75 294.094 328.1 297.819 328.1C301.544 328.1 304.144 330.75 304.144 334.625C304.144 338.5 301.544 341.15 297.819 341.15ZM297.819 339.325C300.344 339.325 302.044 337.35 302.044 334.625C302.044 331.9 300.344 329.925 297.819 329.925C295.294 329.925 293.594 331.9 293.594 334.625C293.594 337.35 295.294 339.325 297.819 339.325ZM321.813 328.25V339.125H323.838V344.375H321.788V341H311.388V344.375H309.338V339.125H310.638C311.563 338.425 312.063 337.525 312.063 333.575V328.25H321.813ZM313.113 339.125H319.763V330.125H314.063V333.8C314.063 336.725 313.738 338.15 313.113 339.125ZM329.811 341.15C326.086 341.15 323.486 338.5 323.486 334.625C323.486 330.75 326.086 328.1 329.811 328.1C333.536 328.1 336.136 330.75 336.136 334.625C336.136 338.5 333.536 341.15 329.811 341.15ZM329.811 339.325C332.336 339.325 334.036 337.35 334.036 334.625C334.036 331.9 332.336 329.925 329.811 329.925C327.286 329.925 325.586 331.9 325.586 334.625C325.586 337.35 327.286 339.325 329.811 339.325ZM342.962 341.15C339.237 341.15 336.787 338.625 336.787 334.65C336.787 330.75 339.312 328.1 343.012 328.1C346.137 328.1 348.112 329.85 348.637 332.65H346.487C346.112 330.95 344.862 329.925 342.987 329.925C340.537 329.925 338.887 331.875 338.887 334.65C338.887 337.425 340.537 339.325 342.987 339.325C344.812 339.325 346.062 338.275 346.462 336.65H348.637C348.137 339.4 346.062 341.15 342.962 341.15ZM354.721 341H352.671V330.125H348.071V328.25H359.321V330.125H354.721V341ZM363.681 341.075L358.706 328.25H360.881L364.806 338.425L368.606 328.25H370.781L364.906 343.15C364.106 345.2 363.631 346 361.831 346H359.381V344.125H361.206C362.381 344.125 362.581 343.825 363.056 342.625L363.681 341.075ZM373.11 341H371.06V328.25H382.085V341H380.035V330.125H373.11V341ZM394.904 339.125H395.554V341H394.429C392.729 341 392.154 340.275 392.129 339.025C391.329 340.175 390.054 341.15 387.854 341.15C385.054 341.15 383.154 339.75 383.154 337.425C383.154 334.875 384.929 333.45 388.279 333.45H392.029V332.575C392.029 330.925 390.854 329.925 388.854 329.925C387.054 329.925 385.854 330.775 385.604 332.075H383.554C383.854 329.575 385.879 328.1 388.954 328.1C392.204 328.1 394.079 329.725 394.079 332.7V338.275C394.079 338.95 394.329 339.125 394.904 339.125ZM392.029 335.8V335.175H388.079C386.254 335.175 385.229 335.85 385.229 337.3C385.229 338.55 386.304 339.4 388.004 339.4C390.554 339.4 392.029 337.925 392.029 335.8Z" fill="white" fill-opacity="0.68"/>
<path d="M108.73 262.62V260.38C108.73 246.17 116.64 236.58 128.05 236.58C139.46 236.58 147.37 246.17 147.37 260.38V262.62C147.37 277.39 139.46 286.42 128.05 286.42C116.64 286.42 108.73 277.39 108.73 262.62ZM139.53 262.34V260.66C139.53 249.74 134.91 243.37 128.05 243.37C121.19 243.37 116.57 249.74 116.57 260.66V262.34C116.57 273.33 121.19 279.63 128.05 279.63C134.91 279.63 139.53 273.33 139.53 262.34ZM168.712 252.96C178.442 252.96 185.092 259.68 185.092 269.55C185.092 280.54 176.902 286.35 167.312 286.35C156.182 286.35 149.602 279.28 149.112 270.53H156.812C157.372 275.64 161.082 279.84 167.382 279.84C172.422 279.84 177.252 276.34 177.252 269.55C177.252 263.6 173.402 259.33 167.382 259.33C164.442 259.33 159.472 260.31 157.512 265.35L150.022 265.21L151.562 237H182.152V243.79H158.632L157.792 257.09C160.522 254.15 164.232 252.96 168.712 252.96ZM227.265 262.62V260.38C227.265 246.17 235.175 236.58 246.585 236.58C257.995 236.58 265.905 246.17 265.905 260.38V262.62C265.905 277.39 257.995 286.42 246.585 286.42C235.175 286.42 227.265 277.39 227.265 262.62ZM258.065 262.34V260.66C258.065 249.74 253.445 243.37 246.585 243.37C239.725 243.37 235.105 249.74 235.105 260.66V262.34C235.105 273.33 239.725 279.63 246.585 279.63C253.445 279.63 258.065 273.33 258.065 262.34ZM267.857 262.62V260.38C267.857 246.17 275.767 236.58 287.177 236.58C298.587 236.58 306.497 246.17 306.497 260.38V262.62C306.497 277.39 298.587 286.42 287.177 286.42C275.767 286.42 267.857 277.39 267.857 262.62ZM298.657 262.34V260.66C298.657 249.74 294.037 243.37 287.177 243.37C280.317 243.37 275.697 249.74 275.697 260.66V262.34C275.697 273.33 280.317 279.63 287.177 279.63C294.037 279.63 298.657 273.33 298.657 262.34ZM349.423 262.62V260.38C349.423 246.17 357.333 236.58 368.743 236.58C380.153 236.58 388.063 246.17 388.063 260.38V262.62C388.063 277.39 380.153 286.42 368.743 286.42C357.333 286.42 349.423 277.39 349.423 262.62ZM380.223 262.34V260.66C380.223 249.74 375.603 243.37 368.743 243.37C361.883 243.37 357.263 249.74 357.263 260.66V262.34C357.263 273.33 361.883 279.63 368.743 279.63C375.603 279.63 380.223 273.33 380.223 262.34ZM390.015 262.62V260.38C390.015 246.17 397.925 236.58 409.335 236.58C420.745 236.58 428.655 246.17 428.655 260.38V262.62C428.655 277.39 420.745 286.42 409.335 286.42C397.925 286.42 390.015 277.39 390.015 262.62ZM420.815 262.34V260.66C420.815 249.74 416.195 243.37 409.335 243.37C402.475 243.37 397.855 249.74 397.855 260.66V262.34C397.855 273.33 402.475 279.63 409.335 279.63C416.195 279.63 420.815 273.33 420.815 262.34Z" fill="white"/>
<path d="M200.981 256.25C200.981 253.45 203.011 251.49 205.811 251.49C208.611 251.49 210.711 253.45 210.711 256.25C210.711 259.05 208.611 261.01 205.811 261.01C203.011 261.01 200.981 259.05 200.981 256.25ZM200.981 281.66C200.981 278.86 203.011 276.9 205.811 276.9C208.611 276.9 210.711 278.86 210.711 281.66C210.711 284.46 208.611 286.42 205.811 286.42C203.011 286.42 200.981 284.46 200.981 281.66ZM323.139 256.25C323.139 253.45 325.169 251.49 327.969 251.49C330.769 251.49 332.869 253.45 332.869 256.25C332.869 259.05 330.769 261.01 327.969 261.01C325.169 261.01 323.139 259.05 323.139 256.25ZM323.139 281.66C323.139 278.86 325.169 276.9 327.969 276.9C330.769 276.9 332.869 278.86 332.869 281.66C332.869 284.46 330.769 286.42 327.969 286.42C325.169 286.42 323.139 284.46 323.139 281.66Z" fill="white" fill-opacity="0.25"/>
<path d="M45.2707 403.892L24.1606 407.106L23.7532 404.431L44.8633 401.216L45.2707 403.892ZM42.5083 374.264L21.1607 374.762L21.0977 372.056L42.4453 371.558L42.5083 374.264ZM44.3166 338.58L23.1576 335.705L23.522 333.023L44.681 335.899L44.3166 338.58ZM50.0466 309.425L29.4471 303.801L30.16 301.19L50.7594 306.814L50.0466 309.425ZM59.5914 281.302L39.9172 273.002L40.9692 270.509L60.6434 278.809L59.5914 281.302ZM72.7626 254.683L54.3573 243.857L55.7295 241.524L74.1348 252.35L72.7626 254.683ZM89.3297 230.031L72.5137 216.87L74.1817 214.739L90.9976 227.899L89.3297 230.031ZM109.009 207.761L94.0553 192.518L95.9873 190.622L110.941 205.865L109.009 207.761ZM131.418 188.248L118.591 171.177L120.754 169.551L133.582 186.623L131.418 188.248ZM156.199 171.842L145.709 153.242L148.067 151.913L158.556 170.512L156.199 171.842ZM182.894 158.818L174.95 138.998L177.462 137.991L185.407 157.811L182.894 158.818ZM211.08 149.452L205.822 128.756L208.445 128.09L213.703 148.785L211.08 149.452ZM240.249 143.881L237.777 122.671L240.465 122.357L242.937 143.567L240.249 143.881ZM269.917 142.208L270.243 120.858L272.949 120.899L272.623 142.25L269.917 142.208ZM299.566 144.432L302.656 123.303L305.334 123.695L302.244 144.823L299.566 144.432ZM328.648 150.49L334.491 129.951L337.094 130.692L331.252 151.23L328.648 150.49ZM356.672 160.319L365.181 140.734L367.663 141.812L359.154 161.397L356.672 160.319ZM383.146 173.77L394.175 155.485L396.492 156.883L385.463 175.168L383.146 173.77ZM407.62 190.615L420.953 173.936L423.067 175.626L409.734 192.305L407.62 190.615ZM429.684 210.512L445.092 195.727L446.966 197.68L431.558 212.464L429.684 210.512ZM448.95 233.145L466.152 220.494L467.755 222.674L450.553 235.326L448.95 233.145ZM465.104 258.08L483.818 247.797L485.121 250.169L466.407 260.452L465.104 258.08ZM477.823 284.93L497.725 277.193L498.706 279.716L478.803 287.452L477.823 284.93ZM486.909 313.205L507.659 308.167L508.298 310.797L487.547 315.835L486.909 313.205ZM492.149 342.436L513.384 340.19L513.669 342.881L492.434 345.127L492.149 342.436ZM493.494 372.117L514.84 372.675L514.769 375.381L493.423 374.823L493.494 372.117ZM490.967 401.74L512.061 405.06L511.641 407.733L490.547 404.414L490.967 401.74ZM484.614 430.761L505.088 436.825L504.319 439.42L483.845 433.356L484.614 430.761Z" fill="white" fill-opacity="0.22"/>
<path d="M108.014 155.232L132.27 187.545" stroke="#919191" stroke-width="3"/>
<path d="M271.851 101.772L271.546 142.175" stroke="#919191" stroke-width="3"/>
<path d="M433.36 160.469L408.153 192.046" stroke="#919191" stroke-width="3"/>
<path d="M526.55 304.745L487.286 314.275" stroke="#919191" stroke-width="3"/>
<path d="M12.1562 297.515L51.0837 308.339" stroke="#919191" stroke-width="3"/>
</g>
</g>
<defs>
<filter id="filter0_f_1197_961" x="-230" y="97" width="999" height="605" filterUnits="userSpaceOnUse" color-interpolation-filters="sRGB">
<feFlood flood-opacity="0" result="BackgroundImageFix"/>
<feBlend mode="normal" in="SourceGraphic" in2="BackgroundImageFix" result="shape"/>
<feGaussianBlur stdDeviation="115" result="effect1_foregroundBlur_1197_961"/>
</filter>
<clipPath id="clip0_1197_961">
<rect width="539" height="377" fill="white"/>
</clipPath>
</defs>
</svg>
