<svg width="537" height="377" viewBox="0 0 537 377" fill="none" xmlns="http://www.w3.org/2000/svg">
    <g clip-path="url(#clip0_1326_16346)">
        <path
            d="M522.056 0H14.9443C6.69081 0 0 6.71573 0 15V362C0 370.284 6.69081 377 14.9443 377H522.056C530.309 377 537 370.284 537 362V15C537 6.71573 530.309 0 522.056 0Z"
            fill="#0E0E10" />
        <mask id="mask0_1326_16346" style="mask-type:luminance" maskUnits="userSpaceOnUse" x="0" y="0" width="537"
            height="377">
            <path
                d="M522.056 0H14.9443C6.69081 0 0 6.71573 0 15V362C0 370.284 6.69081 377 14.9443 377H522.056C530.309 377 537 370.284 537 362V15C537 6.71573 530.309 0 522.056 0Z"
                fill="white" />
        </mask>
        <g mask="url(#mask0_1326_16346)">
            <path
                d="M304.786 238.787C138.206 214.387 127.446 59.9537 142.889 -14.213C48.242 -65.8797 -134.675 -119.513 -109.17 79.287C-77.2895 327.787 191.211 303.287 367.056 404.287C507.732 485.087 445.265 579.954 396.447 617.287C493.087 590.62 684.075 514.187 674.909 421.787C663.452 306.287 513.01 269.287 304.786 238.787Z"
                fill="url(#paint0_linear_1326_16346)" />
            <path
                d="M178.336 19.8828H29.8887C24.3863 19.8828 19.9258 24.36 19.9258 29.8828V39.8828C19.9258 45.4057 24.3863 49.8828 29.8887 49.8828H178.336C183.838 49.8828 188.299 45.4057 188.299 39.8828V29.8828C188.299 24.36 183.838 19.8828 178.336 19.8828Z"
                fill="#008CFF" fill-opacity="0.8" />
            <path
                d="M43.5891 38.8827H40.0273V29.7827H45.6096V30.8227H41.1541V33.5007H43.5761C45.3117 33.5007 46.4903 34.3847 46.4903 36.1787C46.4903 37.8817 45.3246 38.8827 43.5891 38.8827ZM41.1541 34.5407V37.8427H43.4855C44.6252 37.8427 45.3376 37.2057 45.3376 36.1917C45.3376 35.1777 44.6123 34.5407 43.4725 34.5407H41.1541ZM47.1877 38.8827H46.825V37.9077H47.0193C47.7705 37.9077 48.0554 37.4527 48.0554 35.4637V32.2527H53.0548V38.8827H51.9928V33.2277H49.0916V35.5027C49.0916 38.1417 48.4699 38.8827 47.1877 38.8827ZM57.5496 38.9607C55.6198 38.9607 54.2728 37.5827 54.2728 35.5677C54.2728 33.5527 55.6198 32.1747 57.5496 32.1747C59.4794 32.1747 60.8264 33.5527 60.8264 35.5677C60.8264 37.5827 59.4794 38.9607 57.5496 38.9607ZM57.5496 38.0117C58.8577 38.0117 59.7384 36.9847 59.7384 35.5677C59.7384 34.1507 58.8577 33.1237 57.5496 33.1237C56.2415 33.1237 55.3607 34.1507 55.3607 35.5677C55.3607 36.9847 56.2415 38.0117 57.5496 38.0117ZM63.1063 38.8827H62.0442V32.2527H63.1063V35.0217H64.518L66.5774 32.2527H67.8078L65.3988 35.4377L68.015 38.8827H66.7328L64.531 35.9967H63.1063V38.8827ZM69.693 38.8827H68.7604V32.2527H69.7966V37.2707L73.7339 32.2527H74.6664V38.8827H73.6303V33.8517L69.693 38.8827ZM79.4503 32.1747C81.2765 32.1747 82.6235 33.4097 82.6235 35.5677C82.6235 37.5957 81.2765 38.9607 79.4503 38.9607C78.3365 38.9607 77.5853 38.5057 77.1838 37.8687V41.4827H76.1217V32.2527H77.0413L77.1838 33.3187C77.6241 32.7077 78.3365 32.1747 79.4503 32.1747ZM79.3467 38.0117C80.6548 38.0117 81.5355 37.0107 81.5355 35.5677C81.5355 34.1247 80.6548 33.1237 79.3467 33.1237C78.0515 33.1237 77.1708 34.1247 77.1708 35.5417C77.1708 36.9977 78.0515 38.0117 79.3467 38.0117ZM86.8807 38.9607C84.9509 38.9607 83.604 37.5827 83.604 35.5677C83.604 33.5527 84.9509 32.1747 86.8807 32.1747C88.8106 32.1747 90.1575 33.5527 90.1575 35.5677C90.1575 37.5827 88.8106 38.9607 86.8807 38.9607ZM86.8807 38.0117C88.1889 38.0117 89.0696 36.9847 89.0696 35.5677C89.0696 34.1507 88.1889 33.1237 86.8807 33.1237C85.5726 33.1237 84.6919 34.1507 84.6919 35.5677C84.6919 36.9847 85.5726 38.0117 86.8807 38.0117ZM94.2248 38.8827H91.3754V32.2527H94.1859C95.8179 32.2527 96.6079 32.8897 96.6079 34.0337C96.6079 34.8657 96.0639 35.3207 95.52 35.4507C96.2841 35.5677 96.854 36.0487 96.854 36.9587C96.854 38.2457 95.9474 38.8827 94.2248 38.8827ZM92.4375 33.1627V35.0737H94.2766C95.1573 35.0737 95.5329 34.7097 95.5329 34.1117C95.5329 33.4747 95.1573 33.1627 94.2766 33.1627H92.4375ZM92.4375 35.9577V37.9727H94.3802C95.2868 37.9727 95.779 37.6607 95.779 36.9717C95.779 36.3217 95.2868 35.9577 94.3802 35.9577H92.4375ZM99.0904 38.8827H98.0283V32.2527H99.0904V35.0217H100.502L102.561 32.2527H103.792L101.383 35.4377L103.999 38.8827H102.717L100.515 35.9967H99.0904V38.8827ZM110.37 37.9077H110.707V38.8827H110.124C109.244 38.8827 108.946 38.5057 108.933 37.8557C108.518 38.4537 107.858 38.9607 106.718 38.9607C105.267 38.9607 104.283 38.2327 104.283 37.0237C104.283 35.6977 105.203 34.9567 106.938 34.9567H108.881V34.5017C108.881 33.6437 108.272 33.1237 107.236 33.1237C106.304 33.1237 105.682 33.5657 105.552 34.2417H104.49C104.646 32.9417 105.695 32.1747 107.288 32.1747C108.972 32.1747 109.943 33.0197 109.943 34.5667V37.4657C109.943 37.8167 110.072 37.9077 110.37 37.9077ZM108.881 36.1787V35.8537H106.835C105.889 35.8537 105.358 36.2047 105.358 36.9587C105.358 37.6087 105.915 38.0507 106.796 38.0507C108.117 38.0507 108.881 37.2837 108.881 36.1787ZM118.242 32.1747C120.068 32.1747 121.415 33.4097 121.415 35.5677C121.415 37.5957 120.068 38.9607 118.242 38.9607C117.128 38.9607 116.377 38.5057 115.975 37.8687V41.4827H114.913V32.2527H115.833L115.975 33.3187C116.416 32.7077 117.128 32.1747 118.242 32.1747ZM118.138 38.0117C119.447 38.0117 120.327 37.0107 120.327 35.5677C120.327 34.1247 119.447 33.1237 118.138 33.1237C116.843 33.1237 115.963 34.1247 115.963 35.5417C115.963 36.9977 116.843 38.0117 118.138 38.0117ZM125.672 38.9607C123.691 38.9607 122.396 37.5957 122.396 35.5677C122.396 33.5527 123.665 32.1747 125.53 32.1747C127.395 32.1747 128.612 33.3577 128.664 35.3207C128.664 35.4637 128.651 35.6197 128.638 35.7757H123.509V35.8667C123.548 37.1277 124.338 38.0117 125.595 38.0117C126.527 38.0117 127.252 37.5177 127.473 36.6597H128.548C128.289 37.9857 127.201 38.9607 125.672 38.9607ZM123.574 34.8917H127.524C127.421 33.7477 126.644 33.1107 125.543 33.1107C124.571 33.1107 123.678 33.8127 123.574 34.8917ZM130.939 38.8827H129.877V32.2527H130.939V35.0217H132.351L134.41 32.2527H135.64L133.231 35.4377L135.847 38.8827H134.565L132.363 35.9967H130.939V38.8827ZM136.471 38.8827H136.109V37.9077H136.303C137.054 37.9077 137.339 37.4527 137.339 35.4637V32.2527H142.338V38.8827H141.276V33.2277H138.375V35.5027C138.375 38.1417 137.753 38.8827 136.471 38.8827ZM149.631 37.9077H149.968V38.8827H149.385C148.504 38.8827 148.206 38.5057 148.193 37.8557C147.779 38.4537 147.118 38.9607 145.979 38.9607C144.528 38.9607 143.544 38.2327 143.544 37.0237C143.544 35.6977 144.463 34.9567 146.199 34.9567H148.142V34.5017C148.142 33.6437 147.533 33.1237 146.497 33.1237C145.564 33.1237 144.943 33.5657 144.813 34.2417H143.751C143.906 32.9417 144.956 32.1747 146.549 32.1747C148.232 32.1747 149.204 33.0197 149.204 34.5667V37.4657C149.204 37.8167 149.333 37.9077 149.631 37.9077ZM148.142 36.1787V35.8537H146.095C145.15 35.8537 144.619 36.2047 144.619 36.9587C144.619 37.6087 145.176 38.0507 146.056 38.0507C147.378 38.0507 148.142 37.2837 148.142 36.1787ZM151.807 38.8827H150.784V32.2527H152.092L154.631 37.5827L157.13 32.2527H158.399L158.425 38.8827H157.402V33.8777L155.032 38.8827H154.177L151.807 33.8777V38.8827ZM162.624 38.8827H159.878V32.2527H160.94V34.4107H162.624C164.269 34.4107 165.214 35.2297 165.214 36.6467C165.214 38.0507 164.269 38.8827 162.624 38.8827ZM167.351 38.8827H166.289V32.2527H167.351V38.8827ZM160.94 35.3207V37.9727H162.455C163.543 37.9727 164.139 37.4917 164.139 36.6467C164.139 35.7757 163.543 35.3207 162.455 35.3207H160.94Z"
                fill="white" />
            <path
                d="M100.996 250.345L120.161 250.179L132.992 283.786L136.03 270.032L141.476 249.994L160.813 249.827L143.952 311.832L124.959 311.997L112.042 278.39L109.057 292.487L103.645 312.181L84.1357 312.35L100.996 250.345Z"
                fill="#1A1A1A" />
            <path
                d="M203.085 247.831C212.195 247.752 218.753 250.097 222.761 254.867C224.66 257.139 226.087 259.872 227.04 263.067C227.464 264.607 227.737 266.235 227.859 267.95C227.986 269.608 227.95 271.467 227.752 273.528L227.439 276.791L226.839 279.456C225.425 285.245 222.78 290.73 218.905 295.912C215.087 301.093 210.222 305.253 204.31 308.393C198.398 311.533 192.033 313.132 185.215 313.191C175.991 313.271 169.348 310.898 165.29 306.071C161.293 301.186 159.642 295.138 160.334 287.925L160.823 285.518L161.353 282.682L161.85 280.19C163.631 274.169 166.288 268.855 169.822 264.248C173.361 259.585 178.055 255.712 183.904 252.63C189.815 249.49 196.209 247.89 203.085 247.831ZM198.797 262.968C189.974 263.044 184.021 270.789 180.937 286.202C180.173 294.159 182.971 298.11 189.331 298.055C194.373 298.012 198.5 295.573 201.712 290.741C204.929 285.851 206.81 280.573 207.354 274.906C207.712 271.185 207.19 268.272 205.789 266.168C204.451 264.006 202.12 262.939 198.797 262.968Z"
                fill="#1A1A1A" />
            <path
                d="M289.822 248.71L310.535 248.531L315.847 310.344L295.651 310.519L295.411 302.285L275.129 302.46L270.641 310.736L250.874 310.907L289.822 248.71ZM282.553 289.526L295.359 289.416L294.994 267.283L282.553 289.526Z"
                fill="#1A1A1A" />
            <path
                d="M339.011 248.284L365.739 248.053C368.661 248.027 371.364 248.204 373.846 248.583C376.335 248.905 378.545 249.429 380.479 250.156C384.472 251.494 387.507 253.87 389.584 257.284C391.665 260.641 392.463 264.866 391.973 269.961L391.32 274.085L390.577 277.352C388.475 284.92 385.381 291.21 381.293 296.222C377.519 300.945 372.778 304.418 367.068 306.641C361.416 308.863 355.296 310.003 348.707 310.06L322.15 310.29L339.011 248.284ZM355.416 262.556L346.397 295.666L350.952 295.626C360.577 295.543 366.946 289.74 370.056 278.216C370.614 275.98 370.976 274.004 371.141 272.287C371.482 268.737 370.72 266.227 368.858 264.756C367.001 263.228 363.695 262.484 358.939 262.525L355.416 262.556Z"
                fill="#1A1A1A" />
            <path
                d="M433.659 265.396C433.999 261.847 431.649 260.094 426.607 260.138C422.654 260.172 420.312 261.308 419.582 263.545C419.278 264.92 419.627 266.061 420.627 266.968C421.748 267.816 423.422 268.574 425.648 269.241L432.108 270.815C437.763 272.139 442.02 274.018 444.877 276.453C447.74 278.83 448.979 282.023 448.594 286.03L447.981 289.724C445.892 297.178 441.591 302.621 435.078 306.052C428.629 309.425 421.393 311.147 413.372 311.216C405.809 311.281 399.949 309.416 395.791 305.62C392.219 302.276 390.686 297.971 391.192 292.704L391.484 290.557L410.993 290.388C410.762 292.792 411.456 294.502 413.076 295.518C414.759 296.475 416.632 296.945 418.694 296.928C423.565 296.885 426.564 295.458 427.693 292.646L427.972 291.528C428.087 290.326 427.491 289.387 426.182 288.712C424.878 287.98 422.026 286.975 417.626 285.697C411.243 284.208 406.414 282.334 403.138 280.074C399.87 277.758 398.466 274.195 398.927 269.386L399.416 266.98L399.872 264.917C400.895 261.419 402.833 258.227 405.686 255.343C408.544 252.401 412.228 250.11 416.737 248.469C421.25 246.771 426.286 245.898 431.843 245.85C438.662 245.791 444.157 247.288 448.329 250.341C452.122 253.168 453.678 258.13 452.997 265.229L433.659 265.396Z"
                fill="#1A1A1A" />
            <path
                d="M95.2774 250.695L114.443 250.529L127.273 284.136L130.312 270.382L135.756 250.345L155.094 250.177L138.233 312.183L119.24 312.347L106.324 278.741L103.338 292.837L97.9261 312.532L78.417 312.701L95.2774 250.695Z"
                fill="#303030" />
            <path
                d="M197.366 248.181C206.475 248.102 213.034 250.448 217.042 255.218C218.942 257.489 220.367 260.222 221.321 263.417C221.745 264.958 222.018 266.586 222.14 268.301C222.266 269.958 222.231 271.817 222.033 273.878L221.72 277.141L221.121 279.806C219.706 285.595 217.061 291.081 213.185 296.262C209.367 301.443 204.503 305.603 198.592 308.743C192.68 311.883 186.314 313.483 179.496 313.542C170.271 313.621 163.63 311.248 159.571 306.421C155.575 301.537 153.923 295.488 154.615 288.275L155.104 285.869L155.634 283.033L156.131 280.54C157.911 274.519 160.568 269.205 164.102 264.599C167.642 259.935 172.335 256.062 178.185 252.98C184.097 249.84 190.49 248.241 197.366 248.181ZM193.078 263.319C184.255 263.395 178.301 271.14 175.219 286.553C174.454 294.51 177.252 298.461 183.611 298.406C188.654 298.362 192.78 295.924 195.992 291.092C199.21 286.202 201.091 280.923 201.635 275.256C201.993 271.535 201.471 268.622 200.07 266.518C198.732 264.356 196.402 263.29 193.078 263.319Z"
                fill="#303030" />
            <path
                d="M284.103 249.06L304.815 248.881L310.128 310.695L289.932 310.87L289.692 302.635L269.409 302.811L264.923 311.086L245.155 311.257L284.103 249.06ZM276.834 289.877L289.64 289.766L289.275 267.634L276.834 289.877Z"
                fill="#303030" />
            <path
                d="M333.292 248.635L360.02 248.403C362.942 248.378 365.644 248.555 368.127 248.934C370.615 249.255 372.826 249.779 374.76 250.506C378.754 251.845 381.788 254.221 383.865 257.634C385.947 260.991 386.743 265.217 386.254 270.312L385.6 274.436L384.857 277.702C382.757 285.271 379.662 291.561 375.574 296.572C371.8 301.295 367.059 304.768 361.349 306.991C355.697 309.214 349.577 310.353 342.988 310.41L316.432 310.64L333.292 248.635ZM349.697 262.906L340.677 296.016L345.232 295.977C354.859 295.894 361.227 290.09 364.336 278.566C364.895 276.331 365.257 274.354 365.421 272.637C365.762 269.088 365.002 266.578 363.139 265.107C361.283 263.578 357.976 262.835 353.221 262.876L349.697 262.906Z"
                fill="#303030" />
            <path
                d="M427.94 265.747C428.281 262.198 425.93 260.445 420.888 260.488C416.935 260.523 414.593 261.658 413.863 263.895C413.56 265.271 413.907 266.412 414.908 267.318C416.029 268.166 417.702 268.924 419.928 269.591L426.389 271.165C432.044 272.489 436.3 274.369 439.158 276.803C442.021 279.181 443.26 282.373 442.875 286.38L442.263 290.075C440.172 297.529 435.871 302.971 429.36 306.402C422.91 309.776 415.675 311.497 407.654 311.566C400.091 311.632 394.229 309.767 390.072 305.97C386.5 302.627 384.967 298.321 385.473 293.055L385.765 290.907L405.274 290.738C405.043 293.143 405.738 294.853 407.358 295.868C409.04 296.826 410.913 297.296 412.976 297.278C417.846 297.236 420.845 295.809 421.974 292.996L422.253 291.878C422.369 290.676 421.772 289.738 420.463 289.063C419.159 288.33 416.307 287.325 411.908 286.048C405.524 284.559 400.694 282.685 397.42 280.425C394.15 278.108 392.746 274.545 393.208 269.737L393.696 267.33L394.153 265.267C395.175 261.769 397.114 258.578 399.966 255.693C402.825 252.751 406.509 250.46 411.017 248.82C415.531 247.122 420.566 246.249 426.125 246.201C432.942 246.142 438.438 247.639 442.61 250.691C446.403 253.518 447.958 258.481 447.277 265.579L427.94 265.747Z"
                fill="#303030" />
            <path
                d="M105.978 170.345L125.143 170.179L137.974 203.786L141.011 190.032L146.457 169.994L165.794 169.827L148.934 231.832L129.941 231.997L117.024 198.39L114.039 212.487L108.626 232.181L89.1172 232.35L105.978 170.345Z"
                fill="#1A1A1A" />
            <path
                d="M208.066 167.831C217.176 167.752 223.735 170.097 227.742 174.867C229.642 177.139 231.069 179.872 232.021 183.067C232.445 184.607 232.718 186.235 232.84 187.95C232.968 189.608 232.932 191.467 232.733 193.528L232.421 196.791L231.821 199.456C230.406 205.245 227.762 210.73 223.886 215.912C220.069 221.093 215.204 225.253 209.292 228.393C203.38 231.533 197.014 233.132 190.197 233.191C180.972 233.271 174.33 230.898 170.271 226.071C166.275 221.186 164.623 215.138 165.315 207.925L165.805 205.518L166.335 202.682L166.832 200.19C168.612 194.169 171.269 188.855 174.803 184.248C178.342 179.585 183.037 175.712 188.886 172.63C194.797 169.49 201.191 167.89 208.066 167.831ZM203.778 182.968C194.955 183.044 189.002 190.789 185.919 206.202C185.155 214.159 187.952 218.11 194.312 218.055C199.355 218.012 203.481 215.573 206.693 210.741C209.91 205.851 211.791 200.573 212.335 194.906C212.693 191.185 212.171 188.272 210.77 186.168C209.432 184.006 207.102 182.939 203.778 182.968Z"
                fill="#1A1A1A" />
            <path
                d="M294.803 168.71L315.516 168.531L320.828 230.344L300.633 230.519L300.393 222.285L280.11 222.46L275.623 230.736L255.855 230.907L294.803 168.71ZM287.534 209.526L300.341 209.416L299.975 187.283L287.534 209.526Z"
                fill="#1A1A1A" />
            <path
                d="M343.992 168.284L370.721 168.053C373.643 168.027 376.346 168.204 378.827 168.583C381.316 168.905 383.527 169.429 385.461 170.156C389.454 171.494 392.488 173.87 394.566 177.284C396.647 180.641 397.444 184.866 396.955 189.961L396.301 194.085L395.558 197.352C393.457 204.92 390.362 211.21 386.275 216.222C382.501 220.945 377.759 224.418 372.05 226.641C366.398 228.863 360.277 230.003 353.689 230.06L327.132 230.29L343.992 168.284ZM360.397 182.556L351.379 215.666L355.934 215.626C365.559 215.543 371.927 209.74 375.037 198.216C375.595 195.98 375.957 194.004 376.122 192.287C376.463 188.737 375.702 186.227 373.84 184.756C371.983 183.228 368.676 182.484 363.921 182.525L360.397 182.556Z"
                fill="#1A1A1A" />
            <path
                d="M438.64 185.396C438.981 181.847 436.631 180.094 431.588 180.138C427.635 180.172 425.294 181.308 424.564 183.545C424.26 184.92 424.608 186.061 425.609 186.968C426.73 187.816 428.403 188.574 430.629 189.241L437.09 190.815C442.745 192.139 447.001 194.018 449.858 196.453C452.722 198.83 453.96 202.023 453.576 206.03L452.963 209.724C450.874 217.178 446.573 222.621 440.06 226.052C433.611 229.425 426.375 231.147 418.354 231.216C410.791 231.281 404.931 229.416 400.772 225.62C397.201 222.276 395.667 217.971 396.173 212.704L396.465 210.557L415.975 210.388C415.743 212.792 416.438 214.502 418.058 215.518C419.741 216.475 421.614 216.945 423.676 216.928C428.547 216.885 431.546 215.458 432.674 212.646L432.953 211.528C433.069 210.326 432.472 209.387 431.163 208.712C429.86 207.98 427.007 206.975 422.608 205.697C416.225 204.208 411.396 202.334 408.12 200.074C404.851 197.758 403.447 194.195 403.909 189.386L404.398 186.98L404.853 184.917C405.876 181.419 407.814 178.227 410.667 175.343C413.526 172.401 417.209 170.11 421.718 168.469C426.231 166.771 431.268 165.898 436.825 165.85C443.644 165.791 449.138 167.288 453.311 170.341C457.103 173.168 458.66 178.13 457.978 185.229L438.64 185.396Z"
                fill="#1A1A1A" />
            <path
                d="M100.259 170.695L119.424 170.529L132.254 204.136L135.293 190.382L140.738 170.345L160.076 170.177L143.215 232.183L124.221 232.347L111.305 198.741L108.32 212.837L102.908 232.532L83.3984 232.701L100.259 170.695Z"
                fill="#303030" />
            <path
                d="M202.348 168.181C211.457 168.102 218.015 170.448 222.023 175.218C223.923 177.489 225.349 180.222 226.302 183.417C226.727 184.958 227 186.586 227.121 188.301C227.248 189.958 227.213 191.817 227.015 193.878L226.702 197.141L226.102 199.806C224.687 205.595 222.042 211.081 218.167 216.262C214.349 221.443 209.484 225.603 203.573 228.743C197.661 231.883 191.296 233.483 184.477 233.542C175.252 233.621 168.611 231.248 164.552 226.421C160.556 221.537 158.904 215.488 159.597 208.275L160.086 205.869L160.615 203.033L161.112 200.54C162.892 194.519 165.55 189.205 169.083 184.599C172.623 179.935 177.317 176.062 183.166 172.98C189.078 169.84 195.471 168.241 202.348 168.181ZM198.06 183.319C189.236 183.395 183.283 191.14 180.2 206.553C179.436 214.51 182.233 218.461 188.593 218.406C193.635 218.362 197.762 215.924 200.974 211.092C204.192 206.202 206.073 200.923 206.617 195.256C206.974 191.535 206.452 188.622 205.051 186.518C203.713 184.356 201.383 183.29 198.06 183.319Z"
                fill="#303030" />
            <path
                d="M289.085 169.06L309.797 168.881L315.11 230.695L294.913 230.87L294.674 222.635L274.39 222.811L269.904 231.086L250.137 231.257L289.085 169.06ZM281.816 209.877L294.621 209.766L294.256 187.634L281.816 209.877Z"
                fill="#303030" />
            <path
                d="M338.273 168.635L365.002 168.403C367.924 168.378 370.626 168.555 373.109 168.934C375.596 169.255 377.807 169.779 379.742 170.506C383.735 171.845 386.77 174.221 388.846 177.634C390.928 180.991 391.724 185.217 391.235 190.312L390.581 194.436L389.838 197.702C387.738 205.271 384.644 211.561 380.556 216.572C376.782 221.295 372.041 224.768 366.331 226.991C360.679 229.214 354.559 230.353 347.969 230.41L321.413 230.64L338.273 168.635ZM354.678 182.906L345.659 216.016L350.214 215.977C359.84 215.894 366.208 210.09 369.318 198.566C369.877 196.331 370.238 194.354 370.403 192.637C370.743 189.088 369.983 186.578 368.12 185.107C366.264 183.578 362.957 182.835 358.202 182.876L354.678 182.906Z"
                fill="#303030" />
            <path
                d="M432.921 185.747C433.262 182.198 430.912 180.445 425.87 180.488C421.916 180.523 419.574 181.658 418.845 183.895C418.541 185.271 418.889 186.412 419.89 187.318C421.011 188.166 422.684 188.924 424.909 189.591L431.37 191.165C437.025 192.489 441.281 194.369 444.14 196.803C447.002 199.181 448.241 202.373 447.857 206.38L447.244 210.075C445.154 217.529 440.853 222.971 434.341 226.402C427.891 229.776 420.656 231.497 412.635 231.566C405.072 231.632 399.211 229.767 395.053 225.97C391.482 222.627 389.948 218.321 390.455 213.055L390.746 210.907L410.256 210.738C410.025 213.143 410.719 214.853 412.339 215.868C414.022 216.826 415.895 217.296 417.957 217.278C422.827 217.236 425.827 215.809 426.956 212.996L427.235 211.878C427.35 210.676 426.753 209.738 425.444 209.063C424.14 208.33 421.289 207.325 416.889 206.048C410.506 204.559 405.676 202.685 402.401 200.425C399.131 198.108 397.727 194.545 398.19 189.737L398.678 187.33L399.134 185.267C400.156 181.769 402.095 178.578 404.948 175.693C407.807 172.751 411.49 170.46 415.998 168.82C420.513 167.122 425.548 166.249 431.106 166.201C437.924 166.142 443.419 167.639 447.592 170.691C451.385 173.518 452.94 178.481 452.258 185.579L432.921 185.747Z"
                fill="#303030" />
            <path
                d="M105.978 90.3445L125.143 90.1786L137.974 123.786L141.011 110.032L146.457 89.9941L165.794 89.8267L148.934 151.832L129.941 151.997L117.024 118.39L114.039 132.487L108.626 152.181L89.1172 152.35L105.978 90.3445Z"
                fill="#1A1A1A" />
            <path
                d="M208.066 87.8305C217.176 87.7517 223.735 90.0972 227.742 94.8671C229.642 97.1386 231.069 99.8718 232.021 103.067C232.445 104.607 232.718 106.235 232.84 107.95C232.968 109.608 232.932 111.467 232.733 113.528L232.421 116.791L231.821 119.456C230.406 125.245 227.762 130.73 223.886 135.912C220.069 141.093 215.204 145.253 209.292 148.393C203.38 151.533 197.014 153.132 190.197 153.191C180.972 153.271 174.33 150.898 170.271 146.071C166.275 141.186 164.623 135.138 165.315 127.925L165.805 125.518L166.335 122.682L166.832 120.19C168.612 114.169 171.269 108.855 174.803 104.248C178.342 99.5846 183.037 95.7117 188.886 92.6296C194.797 89.4897 201.191 87.89 208.066 87.8305ZM203.778 102.968C194.955 103.044 189.002 110.789 185.919 126.202C185.155 134.159 187.952 138.11 194.312 138.055C199.355 138.012 203.481 135.573 206.693 130.741C209.91 125.851 211.791 120.573 212.335 114.906C212.693 111.185 212.171 108.272 210.77 106.168C209.432 104.006 207.102 102.939 203.778 102.968Z"
                fill="#1A1A1A" />
            <path
                d="M294.803 88.7101L315.516 88.5308L320.828 150.344L300.633 150.519L300.393 142.285L280.11 142.46L275.623 150.736L255.855 150.907L294.803 88.7101ZM287.534 129.526L300.341 129.416L299.975 107.283L287.534 129.526Z"
                fill="#1A1A1A" />
            <path
                d="M343.992 88.2841L370.721 88.0527C373.643 88.0274 376.346 88.2042 378.827 88.5831C381.316 88.9047 383.527 89.429 385.461 90.1558C389.454 91.494 392.488 93.8701 394.566 97.284C396.647 100.641 397.444 104.866 396.955 109.961L396.301 114.085L395.558 117.352C393.457 124.92 390.362 131.21 386.275 136.222C382.501 140.945 377.759 144.418 372.05 146.641C366.398 148.863 360.277 150.003 353.689 150.06L327.132 150.29L343.992 88.2841ZM360.397 102.556L351.379 135.666L355.934 135.626C365.559 135.543 371.927 129.74 375.037 118.216C375.595 115.98 375.957 114.004 376.122 112.287C376.463 108.737 375.702 106.227 373.84 104.756C371.983 103.228 368.676 102.484 363.921 102.525L360.397 102.556Z"
                fill="#1A1A1A" />
            <path
                d="M438.64 105.396C438.981 101.847 436.631 100.094 431.588 100.138C427.635 100.172 425.294 101.308 424.564 103.545C424.26 104.92 424.608 106.061 425.609 106.968C426.73 107.816 428.403 108.574 430.629 109.241L437.09 110.815C442.745 112.139 447.001 114.018 449.858 116.453C452.722 118.83 453.96 122.023 453.576 126.03L452.963 129.724C450.874 137.178 446.573 142.621 440.06 146.052C433.611 149.425 426.375 151.147 418.354 151.216C410.791 151.281 404.931 149.416 400.772 145.62C397.201 142.276 395.667 137.971 396.173 132.704L396.465 130.557L415.975 130.388C415.743 132.792 416.438 134.502 418.058 135.518C419.741 136.475 421.614 136.945 423.676 136.928C428.547 136.885 431.546 135.458 432.674 132.646L432.953 131.528C433.069 130.326 432.472 129.387 431.163 128.712C429.86 127.98 427.007 126.975 422.608 125.697C416.225 124.208 411.396 122.334 408.12 120.074C404.851 117.758 403.447 114.195 403.909 109.386L404.398 106.98L404.853 104.917C405.876 101.419 407.814 98.2274 410.667 95.3428C413.526 92.401 417.209 90.1098 421.718 88.4692C426.231 86.7714 431.268 85.8984 436.825 85.8503C443.644 85.7913 449.138 87.2881 453.311 90.3406C457.103 93.1677 458.66 98.1305 457.978 105.229L438.64 105.396Z"
                fill="#1A1A1A" />
            <path
                d="M100.259 90.695L119.424 90.5291L132.254 124.136L135.293 110.382L140.738 90.3446L160.076 90.1772L143.215 152.183L124.221 152.347L111.305 118.741L108.32 132.837L102.908 152.532L83.3984 152.701L100.259 90.695Z"
                fill="#303030" />
            <path
                d="M202.348 88.1811C211.457 88.1023 218.015 90.4478 222.023 95.2178C223.923 97.4892 225.349 100.222 226.302 103.417C226.727 104.958 227 106.586 227.121 108.301C227.248 109.958 227.213 111.817 227.015 113.878L226.702 117.141L226.102 119.806C224.687 125.595 222.042 131.081 218.167 136.262C214.349 141.443 209.484 145.603 203.573 148.743C197.661 151.883 191.296 153.483 184.477 153.542C175.252 153.621 168.611 151.248 164.552 146.421C160.556 141.537 158.904 135.488 159.597 128.275L160.086 125.869L160.615 123.033L161.112 120.54C162.892 114.519 165.55 109.205 169.083 104.599C172.623 99.9353 177.317 96.0623 183.166 92.9802C189.078 89.8403 195.471 88.2406 202.348 88.1811ZM198.06 103.319C189.236 103.395 183.283 111.14 180.2 126.553C179.436 134.51 182.233 138.461 188.593 138.406C193.635 138.362 197.762 135.924 200.974 131.092C204.192 126.202 206.073 120.923 206.617 115.256C206.974 111.535 206.452 108.622 205.051 106.518C203.713 104.356 201.383 103.29 198.06 103.319Z"
                fill="#303030" />
            <path
                d="M289.085 89.0602L309.797 88.8809L315.11 150.695L294.913 150.87L294.674 142.635L274.39 142.811L269.904 151.086L250.137 151.257L289.085 89.0602ZM281.816 129.877L294.621 129.766L294.256 107.634L281.816 129.877Z"
                fill="#303030" />
            <path
                d="M338.273 88.6347L365.002 88.4033C367.924 88.378 370.626 88.5548 373.109 88.9337C375.596 89.2554 377.807 89.7796 379.742 90.5064C383.735 91.8446 386.77 94.2207 388.846 97.6346C390.928 100.991 391.724 105.217 391.235 110.312L390.581 114.436L389.838 117.702C387.738 125.271 384.644 131.561 380.556 136.572C376.782 141.295 372.041 144.768 366.331 146.991C360.679 149.214 354.559 150.353 347.969 150.41L321.413 150.64L338.273 88.6347ZM354.678 102.906L345.659 136.016L350.214 135.977C359.84 135.894 366.208 130.09 369.318 118.566C369.877 116.331 370.238 114.354 370.403 112.637C370.743 109.088 369.983 106.578 368.12 105.107C366.264 103.578 362.957 102.835 358.202 102.876L354.678 102.906Z"
                fill="#303030" />
            <path
                d="M432.921 105.747C433.262 102.198 430.912 100.445 425.87 100.488C421.916 100.523 419.574 101.658 418.845 103.895C418.541 105.271 418.889 106.412 419.89 107.318C421.011 108.166 422.684 108.924 424.909 109.591L431.37 111.165C437.025 112.489 441.281 114.369 444.14 116.803C447.002 119.181 448.241 122.373 447.857 126.38L447.244 130.075C445.154 137.529 440.853 142.971 434.341 146.402C427.891 149.776 420.656 151.497 412.635 151.566C405.072 151.632 399.211 149.767 395.053 145.97C391.482 142.627 389.948 138.321 390.455 133.055L390.746 130.907L410.256 130.738C410.025 133.143 410.719 134.853 412.339 135.868C414.022 136.826 415.895 137.296 417.957 137.278C422.827 137.236 425.827 135.809 426.956 132.996L427.235 131.878C427.35 130.676 426.753 129.738 425.444 129.063C424.14 128.33 421.289 127.325 416.889 126.048C410.506 124.559 405.676 122.685 402.401 120.425C399.131 118.108 397.727 114.545 398.19 109.737L398.678 107.33L399.134 105.267C400.156 101.769 402.095 98.578 404.948 95.6934C407.807 92.7516 411.49 90.4604 415.998 88.8198C420.513 87.122 425.548 86.249 431.106 86.2009C437.924 86.1419 443.419 87.6387 447.592 90.6912C451.385 93.5183 452.94 98.4811 452.258 105.579L432.921 105.747Z"
                fill="#303030" />
        </g>
    </g>
    <defs>
        <linearGradient id="paint0_linear_1326_16346" x1="281.821" y1="-62" x2="281.821" y2="617.287"
            gradientUnits="userSpaceOnUse">
            <stop stop-color="#111111" />
            <stop offset="1" stop-color="#181818" />
        </linearGradient>
        <clipPath id="clip0_1326_16346">
            <rect width="537" height="377" fill="white" />
        </clipPath>
    </defs>
</svg>
