<svg width="537" height="377" viewBox="0 0 537 377" fill="none" xmlns="http://www.w3.org/2000/svg">
<g clip-path="url(#clip0_1197_4609)">
<path d="M522.056 0H14.9443C6.69081 0 0 6.71573 0 15V362C0 370.284 6.69081 377 14.9443 377H522.056C530.309 377 537 370.284 537 362V15C537 6.71573 530.309 0 522.056 0Z" fill="#0E0E10"/>
<mask id="mask0_1197_4609" style="mask-type:luminance" maskUnits="userSpaceOnUse" x="0" y="0" width="537" height="377">
<path d="M537 0H0V377H537V0Z" fill="white"/>
</mask>
<g mask="url(#mask0_1197_4609)">
<path fill-rule="evenodd" clip-rule="evenodd" d="M304.126 -8.18039C302.673 -5.82161 308.775 -5.82161 312.414 -8.18039C314.574 -9.58051 314.097 -9.97764 310.221 -9.9998C307.495 -10.0146 304.753 -9.1963 304.126 -8.18039ZM328.99 -2.63901C326.744 -1.18348 326.982 -0.843611 330.262 -0.819598C332.482 -0.804821 334.809 -1.6231 335.436 -2.63901C336.885 -4.9904 332.617 -4.9904 328.99 -2.63901ZM265.45 -0.719852C262.625 0.550968 263.482 0.844662 269.134 0.534346C274.794 0.225876 276.363 0.761539 275.903 2.85064C275.412 5.09489 275.894 5.04686 278.666 2.5791C280.513 0.935161 283.683 -0.815903 285.709 -1.31093C287.735 -1.80596 284.834 -2.24928 279.263 -2.29545C273.692 -2.34163 267.476 -1.63233 265.45 -0.719852ZM300.018 -1.35896C301.809 -0.88979 304.296 -0.921193 305.543 -1.4273C306.789 -1.93342 305.324 -2.31577 302.284 -2.27883C299.245 -2.24188 298.225 -1.82813 300.018 -1.35896ZM315.256 -0.919345C314.672 0.0263824 314.963 1.27504 315.9 1.85688C318.303 3.34566 323.656 1.01274 322.424 -0.985847C321.09 -3.15067 316.604 -3.10818 315.256 -0.919345ZM413.971 0.852044C409.636 3.60796 414.456 4.54629 419.258 1.88274C423.312 -0.368908 423.416 -0.664435 420.154 -0.697683C418.129 -0.718002 415.345 -0.0216455 413.971 0.852044ZM427.824 4.2175C420.48 9.45779 418.997 13.9851 424.628 13.9851C426.58 13.9851 429.346 15.1562 430.772 16.5858C433.947 19.7703 445.804 23.2355 448.013 21.623C451.16 19.327 449.519 13.8096 445.001 11.5044C442.404 10.1782 440.638 7.84526 440.933 6.12929C441.218 4.45949 439.903 2.2651 438.012 1.24919C435.345 -0.182337 433.057 0.484466 427.824 4.2175ZM291.234 2.90236C291.86 3.91827 293.201 4.74948 294.214 4.74948C295.227 4.74948 295.544 3.91827 294.918 2.90236C294.292 1.88644 292.951 1.05523 291.938 1.05523C290.924 1.05523 290.608 1.88644 291.234 2.90236ZM302.745 4.12516C304.012 4.63866 306.084 4.63866 307.349 4.12516C308.617 3.61351 307.579 3.1942 305.047 3.1942C302.515 3.1942 301.48 3.61351 302.745 4.12516ZM452.81 24.885L448.861 30.2435L457.966 29.8334C468.998 29.3365 471.05 27.7905 464.593 24.8406C461.93 23.6234 459.751 21.9296 459.751 21.0762C459.751 17.962 456.664 19.6558 452.81 24.885ZM334.514 40.6428C331.983 42.017 326.181 44.2151 321.622 45.5284C311.907 48.3268 297.68 57.821 297.68 61.506C297.68 62.9154 295.608 67.7918 293.076 72.3413C290.544 76.8907 288.472 81.3959 288.472 82.3508C288.472 84.7318 295.645 89.1926 301.997 90.7589L307.235 92.0519L304.3 86.3591C299.056 76.1907 300.387 71.6283 311.953 60.0985C319.87 52.2076 325.45 48.4894 334.054 45.3696C340.386 43.0754 345.565 40.4765 345.565 39.5973C345.565 37.2385 339.782 37.7853 334.514 40.6428ZM456.067 41.559C456.067 45.5044 448.999 47.4143 422.314 50.68C414.386 51.6498 407.38 52.9649 406.743 53.6022C406.107 54.2413 406.572 57.3777 407.774 60.5732C408.977 63.7688 409.697 66.6503 409.372 66.9735C409.051 67.2986 403.271 67.7678 396.53 68.019C382.724 68.5325 381.248 70.4868 389.135 77.818C395.503 83.738 393.745 85.1529 383.296 82.5152C373.708 80.0936 369.969 81.2075 373.474 85.4411C375.432 87.8091 375.102 88.1286 371.26 87.5856C367.914 87.1127 366.783 85.8548 366.898 82.7295C366.982 80.4095 366.422 79.1627 365.654 79.9588C364.886 80.7549 364.022 85.9767 363.737 91.5643C363.262 100.811 363.579 101.777 367.266 102.311C369.494 102.636 372.566 104.69 374.095 106.879C378.229 112.799 377.456 114.905 372.73 110.593C367.564 105.878 363.61 106.98 365.048 112.732C366.391 118.093 356.847 125.721 351.091 123.889C345.889 122.234 346.517 119.622 352.285 118.931C359.039 118.122 361.938 113.093 358.674 107.85C355.628 102.959 354.409 86.3517 356.545 78.8783C357.984 73.8485 357.706 73.4015 352.676 72.6608C347.725 71.933 346.876 72.659 342.889 81.0154L338.52 90.166L343.104 98.4005C345.626 102.93 347.186 107.948 346.572 109.552C345.628 112.019 344.682 111.755 340.445 107.841C332.555 100.554 326.674 97.1057 322.132 97.1057C317.563 97.1057 316.788 98.9066 319.978 102.106C321.47 103.602 320.912 104.745 317.902 106.362C314.965 107.937 313.433 107.993 312.547 106.556C311.696 105.178 309.394 105.091 305.244 106.284C301.911 107.243 296.813 107.553 293.915 106.971C290.006 106.188 286.245 107.398 279.324 111.67C274.195 114.834 268.858 117.424 267.462 117.424C266.065 117.424 264.469 118.615 263.911 120.069C263.354 121.525 260.157 122.98 256.808 123.302C252.595 123.708 250.156 125.171 248.899 128.045C247.744 130.685 245.477 132.201 242.687 132.201C239.007 132.201 238.662 132.646 240.569 134.95C242.405 137.168 242.299 137.909 240.018 138.786C234.815 140.788 229.537 136.25 229.537 129.776C229.537 126.482 228.246 121.94 226.67 119.683C223.278 114.827 223.866 114.696 232.583 118.348C243.71 123.01 251.753 121.092 251.562 113.822C251.486 110.959 240.281 104.986 227.235 100.853C223.437 99.651 220.328 97.863 220.328 96.8821C220.328 95.8995 219.293 95.2308 218.026 95.3971C213.628 95.9697 211.12 95.2474 211.12 93.4114C211.12 92.3955 212.571 91.5384 214.343 91.5052C217.258 91.4516 217.225 91.1893 213.991 88.7345C209.409 85.2601 204.817 85.2822 201.911 88.7936C200.65 90.3175 198.762 91.5643 197.718 91.5643C196.671 91.5643 197.316 89.9019 199.148 87.87C201.943 84.7743 202.026 84.1758 199.658 84.1758C198.108 84.1758 195.753 85.4873 194.425 87.0906C193.099 88.6939 188.005 92.0427 183.107 94.5326C176.978 97.6469 171.63 102.562 165.956 110.292C161.421 116.469 157.71 122.635 157.71 123.991C157.71 127.125 140.075 144.632 135.428 146.114C132.504 147.043 131.926 149.039 131.926 158.184C131.926 168.556 132.166 169.143 136.396 169.143C139 169.143 142.417 167.167 144.577 164.413L148.288 159.683L152.999 169.672C155.591 175.165 157.71 180.618 157.71 181.789C157.71 185.145 162.675 184.275 163.992 180.688C166.545 173.726 171.723 165.455 175.219 162.749C178.69 160.061 178.714 159.771 175.667 157.396C173.895 156.014 172.444 153.064 172.444 150.842C172.444 146.869 180.479 137.742 183.979 137.742C184.96 137.742 185.297 135.945 184.724 133.749C183.634 129.569 186.18 122.965 188.88 122.965C189.745 122.965 192.36 124.515 194.692 126.408L198.931 129.851L192.207 137C185.581 144.045 185.177 145.931 188.194 155.752C188.665 157.285 193.104 158.105 201.394 158.19C214.562 158.327 213.077 161.371 199.718 161.626C192.467 161.764 188.732 164.745 193.507 166.583C196.799 167.85 197.375 173.854 194.384 175.708C193.283 176.39 191.46 176.024 190.332 174.894C186.739 171.29 185.336 172.653 185.321 179.764C185.31 185.474 184.435 187.097 180.35 189C177.622 190.271 172.726 191.309 169.468 191.309C166.208 191.309 163.267 192.011 162.927 192.868C162.59 193.725 159.144 194.043 155.27 193.574C146.312 192.487 143.139 186.905 146.651 178.403C149.225 172.165 148.348 169.945 143.977 171.628C140.796 172.852 140.194 181.196 142.79 188.049C144.489 192.526 143.274 193.538 131.465 197.501C129.529 198.151 128.242 200.447 128.242 203.258C128.242 206.725 127.276 207.933 124.502 207.933C122.443 207.933 120.211 209.387 119.541 211.166C117.813 215.739 114.243 219.016 110.986 219.016C109.455 219.016 107.645 219.919 106.964 221.024C106.284 222.128 104.162 222.621 102.25 222.121C100.06 221.546 98.7753 222.171 98.7753 223.807C98.7753 225.235 99.6777 226.404 100.783 226.404C105.013 226.404 109.704 234.787 109.765 242.46L109.826 250.203L96.9336 249.118L84.0416 248.034L83.8242 258.923C83.7044 264.911 83.4982 272.381 83.3638 275.521C83.1685 280.113 83.7524 281.064 86.3529 280.383C88.132 279.915 90.6258 280.399 91.8965 281.458C97.0809 285.773 111.857 279.177 112.62 272.207C113.275 266.223 117.294 259.869 121.215 258.622C122.925 258.077 124.585 255.799 124.904 253.563C125.334 250.519 126.731 249.493 130.442 249.493C133.171 249.493 136.446 248.455 137.716 247.184C141.347 243.56 146.599 244.475 148.333 249.032C149.201 251.318 154.185 256.797 159.406 261.208C167.127 267.728 168.667 269.971 167.645 273.199C166.562 276.618 166.783 276.842 169.227 274.808C170.929 273.39 171.654 270.874 171.037 268.509C170.2 265.305 170.625 264.808 173.31 265.84C175.124 266.539 172.09 262.721 166.569 257.357C156.507 247.585 152.673 240.391 156.32 238.13C157.392 237.467 160.422 239.427 163.053 242.485C165.687 245.544 170.532 249.883 173.825 252.127C178.033 254.998 179.827 257.68 179.869 261.163C179.901 263.888 181.144 267.732 182.632 269.703C184.118 271.675 185.336 274.69 185.336 276.404C185.336 278.116 186.509 280.495 187.944 281.689C191.625 284.753 193.212 278.961 190.905 270.892C188.619 262.896 189.999 260.864 196.789 262.227C199.804 262.831 204.218 262.837 206.601 262.237C210.206 261.33 210.592 260.602 208.901 257.887C207.324 255.352 207.851 252.257 211.269 243.985C215.516 233.71 220.255 228.952 221.752 233.46C222.152 234.659 223.752 235.64 225.312 235.64C227.543 235.64 227.688 236.194 225.989 238.246C223.22 241.593 226.288 243.725 231.493 242.068C234.629 241.07 234.867 240.402 232.925 238.056C231.005 235.732 231.211 234.79 234.102 232.67C236.031 231.255 239.729 230.165 242.32 230.244C244.914 230.324 245.998 230.81 244.732 231.321C243.466 231.835 242.429 233.457 242.429 234.929C242.429 236.399 241.186 238.082 239.666 238.666C235.955 240.095 236.174 242.543 240.127 243.823C241.898 244.397 246.081 247.439 249.418 250.583C254.438 255.314 255.093 256.778 253.207 259.058C250.93 261.81 246.772 261.736 229.294 258.638C225.187 257.911 222.124 258.234 221.358 259.475C220.673 260.589 218.503 261.5 216.537 261.5C214.569 261.5 212.962 262.275 212.962 263.225C212.962 264.172 210.681 265.212 207.897 265.534C203.456 266.045 202.909 266.801 203.462 271.659C204.346 279.419 209.021 284.145 214.731 283.05C217.282 282.561 220.844 282.954 222.649 283.922C224.454 284.89 226.95 285.045 228.194 284.264C234.236 280.479 235.565 281.91 234.486 291.041C232.845 304.948 227.413 311.481 220.557 307.8C218.597 306.749 216.339 306.75 214.703 307.803C211.261 310.02 202.749 308.252 194.305 303.568C186.839 299.425 180.77 300.997 180.746 307.077C180.728 311.464 173.411 310.842 166.642 305.879C163.959 303.91 159.815 301.798 157.434 301.183C150.315 299.349 145.831 295.219 147.999 292.496C151.203 288.471 149.531 280.837 145.546 281.295C143.626 281.517 137.082 282.01 131.005 282.394C124.928 282.777 116.64 284.748 112.588 286.77C107.285 289.421 103.556 290.086 99.2835 289.149C94.403 288.078 93.147 288.47 92.2372 291.345C91.6276 293.27 89.1136 296.17 86.6513 297.788C83.7524 299.694 81.7855 303.16 81.0764 307.613C80.2918 312.532 78.5035 315.369 74.8091 317.558C71.9433 319.256 66.6116 326.143 62.8508 333.006C56.6479 344.323 56.2353 345.965 58.0513 352.047C59.5099 356.928 59.4694 360.223 57.8984 364.396C55.9296 369.628 56.3845 371.13 63.558 383.039C74.1018 400.54 81.7191 405.559 96.3166 404.628C102.308 404.245 109.51 403.054 112.321 401.983C119.856 399.11 129.501 399.541 130.751 402.805C131.348 404.365 134.089 405.575 137.026 405.575C144.724 405.575 146.473 408.401 145.442 419.181C144.658 427.366 145.136 429.3 148.945 433.301C151.539 436.027 154.651 443.107 156.498 450.477C159.351 461.87 159.382 463.771 156.832 471.302C153.065 482.43 153.292 487.166 158.023 496.273C160.222 500.504 162.636 507.865 163.388 512.635C164.14 517.402 166.898 524.473 169.519 528.346C172.142 532.22 174.312 537.144 174.345 539.289C174.376 541.431 175.532 544.68 176.914 546.507C179.196 549.525 180.551 549.629 191.842 547.658C199.357 546.345 206.046 543.94 208.779 541.566C215.459 535.766 224.012 522.352 224.012 517.672C224.012 515.204 225.655 512.862 228.155 511.761C231.681 510.209 232.3 508.517 232.3 500.436C232.3 490.89 236.421 483.154 241.509 483.154C246.269 483.154 249.796 476.372 249.796 467.216C249.796 462.166 249.077 457.243 248.198 456.279C247.319 455.313 246.121 451.951 245.538 448.805C244.293 442.1 252.013 429.287 265.153 416.244C274.012 407.454 283.894 392.451 285.724 385.013L286.921 380.15L274.924 383.029C261.927 386.147 257.162 384.738 257.162 377.776C257.162 375.942 255.05 372.776 252.468 370.739C245.779 365.461 238.746 354.454 238.746 349.266C238.746 346.829 238.015 344.386 237.119 343.831C235.705 342.952 222.171 315.903 222.171 313.951C222.171 313.548 222.998 313.219 224.012 313.219C225.025 313.219 225.854 314.568 225.854 316.215C225.854 318.522 226.427 318.736 228.338 317.144C230.305 315.508 231.523 316.629 234.169 322.514C236.007 326.605 239.447 332.584 241.812 335.798C244.177 339.014 246.112 343.043 246.112 344.753C246.112 346.464 247.417 348.948 249.01 350.274C252.895 353.507 259.004 365.748 259.004 370.297C259.004 377.9 262.765 377.388 286.241 366.584C298.818 360.797 300.868 359.399 308.911 351.135C314.969 344.912 315.519 342.112 311.36 338.689C309.769 337.379 306.957 334.943 305.112 333.273C302.34 330.765 301.325 330.66 299.258 332.662C295.278 336.517 289.73 336.498 285.249 332.614C282.969 330.639 281.105 328.295 281.105 327.409C281.105 326.522 279.456 323.474 277.444 320.639C274.249 316.139 274.128 315.194 276.499 313.221C279.777 310.493 284.788 312.055 284.788 315.807C284.788 319.23 294.338 326.149 299.063 326.149C301.031 326.149 305.459 327.566 308.908 329.298C315.729 332.723 325.105 333.351 333.246 330.927C337.676 329.609 338.576 329.965 339.471 333.403C340.139 335.965 342.445 337.806 345.834 338.486C349.799 339.282 350.668 340.134 349.255 341.842C346.143 345.601 351.792 349.196 355.293 345.682C357.733 343.235 358.188 344.271 359.317 354.853C360.204 363.162 362.577 370.567 367.133 379.252C370.73 386.11 373.96 392.049 374.309 392.448C376.209 394.618 380.27 387.695 382.455 378.557C384.611 369.543 386.591 366.514 396.958 356.37C403.562 349.907 410.086 344.62 411.458 344.62C412.827 344.62 415.722 343.669 417.886 342.509C420.866 340.909 421.996 340.924 422.545 342.577C422.943 343.776 425.261 347.132 427.698 350.034C430.133 352.938 432.126 357.478 432.126 360.125C432.126 364.953 434.6 366.547 436.729 363.091C437.356 362.076 438.615 361.244 439.529 361.244C442.1 361.244 445.435 375.929 444.536 383.288C443.894 388.561 444.778 391.085 448.979 395.943C451.865 399.278 454.226 403.595 454.226 405.535C454.226 408.557 461.311 415.709 462.814 414.203C464.199 412.814 459.203 399.707 456.959 398.843C455.548 398.301 452.755 395.067 450.749 391.659C447.66 386.41 447.429 384.596 449.226 379.817C450.396 376.714 451.789 374.178 452.327 374.182C455.449 374.204 465.816 382.311 466.608 385.349C467.125 387.331 468.193 388.951 468.983 388.951C471.967 388.951 482.058 375.528 481.05 372.898C480.478 371.402 480.01 369.444 480.01 368.546C480.01 367.648 477.35 363.875 474.098 360.162L468.186 353.409L473.302 348.994C476.301 346.408 480.465 344.705 483.358 344.879C491.189 345.354 503.284 341.251 509.484 336.018C516.161 330.384 525.062 313.965 522.351 312.284C521.349 311.662 520.527 308.454 520.527 305.151C520.527 301.85 519.342 297.535 517.89 295.562C515.52 292.339 515.741 291.464 520.076 286.898L524.9 281.818H519.095C515.268 281.818 512.649 280.617 511.409 278.292C509.818 275.312 510.541 274.165 516.054 270.903C523.242 266.649 526.053 266.082 526.053 268.888C526.053 269.904 528.125 270.735 530.657 270.735C534.057 270.735 535.261 271.716 535.261 274.487C535.261 276.552 536.37 278.667 537.725 279.188C539.155 279.738 540.314 283.331 540.486 287.749C540.848 296.974 541.347 297.616 545.172 293.78C548.835 290.108 548.944 282.095 545.395 277.394C543.044 274.28 543.205 273.319 546.833 268.735C549.08 265.898 552.438 261.405 554.298 258.749C557.045 254.822 558.178 254.338 560.357 256.152C562.539 257.968 564.254 257.212 569.571 252.09C579.741 242.293 588.586 221.713 588.649 207.697C588.673 202.259 583.109 196.097 581.772 200.083C580.696 203.288 575.888 202.979 574.604 199.621C574.02 198.097 572.182 196.824 570.517 196.791C568.327 196.751 569.018 195.411 573.017 191.95C576.056 189.32 582.415 183.531 587.15 179.085L595.758 171.004L609.626 171.811C617.254 172.254 625.063 173.458 626.981 174.487C629.839 176.022 631.2 175.363 634.556 170.811C638.622 165.292 641.868 163.467 651.982 161.009C656.31 159.956 657.08 160.246 656.185 162.584C654.649 166.596 657.449 166.153 661.419 161.755C665.842 156.851 668.407 157.069 666.883 162.217C665.391 167.252 654.732 177.097 645.304 182.145C638.784 185.635 638.397 186.344 638.397 194.765C638.397 210.565 645.254 221.969 648.531 211.618C649.175 209.581 651.767 205.452 654.289 202.445C659.597 196.119 663.328 185.175 660.502 184.229C656.818 182.999 658.787 178.244 664.401 174.822C668.39 172.389 672.743 171.493 678.641 171.892C684.952 172.319 689.512 171.244 696.378 167.714C701.461 165.1 708.39 162.483 711.777 161.895L717.933 160.831L713.945 155.752C710.683 151.596 710.484 150.672 712.852 150.672C714.445 150.672 717.562 148.855 719.779 146.633C722.371 144.032 724.066 143.372 724.536 144.785C724.938 145.992 726.751 146.978 728.57 146.978C730.388 146.978 732.832 148.134 734 149.549C737.075 153.262 743.156 154.424 744.76 151.601C745.518 150.27 748.209 148.866 750.742 148.482C754.961 147.842 754.655 147.423 747.059 143.47C742.501 141.099 732.09 135.138 723.927 130.226C710.581 122.197 698.229 117.596 689.678 117.468C687.525 117.437 686.91 118.512 687.589 121.118C688.735 125.509 685.173 126.05 680.867 122.142C679.248 120.673 674.211 119.347 669.672 119.195C654.673 118.693 651.289 117.535 651.289 112.9C651.289 109.476 649.744 108.235 643.195 106.395C638.742 105.146 633.331 104.686 631.166 105.373C628.297 106.288 625.557 105.148 621.017 101.151C614.228 95.1717 592.08 86.8726 587.559 88.6126C585.746 89.3089 585.137 90.9732 585.859 93.2526C587.394 98.1087 582.807 99.2834 570.254 97.2516C562.389 95.9789 559.478 96.1895 557.233 98.1918C554.806 100.357 553.8 100.371 550.962 98.2915C548.393 96.4074 547.828 94.2943 548.607 89.4844C549.975 81.0227 546.654 76.7873 538.65 76.7873C535.166 76.7873 531.526 77.5465 530.565 78.4756C528.637 80.3338 524.204 81.0191 516.187 80.694C512.312 80.537 511.205 79.7519 511.986 77.7109C512.842 75.4703 511.032 74.8718 502.513 74.5855C487.442 74.0776 485.454 74.1736 477.248 75.8102L469.881 77.2786L474.461 72.2914C476.979 69.5503 482.988 65.1523 487.813 62.5183C497.512 57.2226 498.958 52.8929 492.442 48.6611C486.791 44.9928 478.168 42.9923 478.168 45.3511C478.168 46.3855 476.008 47.2333 473.367 47.2333C469.857 47.2333 468.851 46.4889 469.626 44.4626C470.271 42.7744 469.628 41.6919 467.982 41.6919C466.494 41.6919 465.276 40.8607 465.276 39.8448C465.276 38.8289 463.204 37.9977 460.672 37.9977C457.354 37.9977 456.067 38.9915 456.067 41.559ZM576.494 61.0517C573.098 63.5841 573.104 63.7318 576.742 67.4372C579.84 70.5902 581.464 70.9411 586.387 69.5263C590.018 68.4826 592.714 68.4863 593.362 69.5392C593.992 70.5606 596.006 70.4036 598.342 69.1513L602.263 67.0456L597.874 63.4825C595.381 61.4562 591.921 60.3294 589.861 60.8688C587.867 61.3934 584.826 61.0646 583.101 60.1392C581.004 59.0124 578.825 59.3135 576.494 61.0517ZM351.09 67.5517C351.09 68.5676 351.968 69.3988 353.04 69.3988C354.112 69.3988 354.479 68.5676 353.852 67.5517C353.226 66.5358 352.35 65.7046 351.902 65.7046C351.455 65.7046 351.09 66.5358 351.09 67.5517ZM606.853 70.0324C608.346 71.8389 612.081 73.093 615.969 73.093C624.327 73.093 621.706 70.1746 611.693 68.3293C604.972 67.0917 604.548 67.2414 606.853 70.0324ZM586.044 77.2491C587.448 80.6903 596.038 86.5771 596.038 84.0964C596.038 81.9482 588.813 75.1119 586.426 75.0011C585.699 74.9679 585.527 75.9801 586.044 77.2491ZM310.572 93.1935C310.572 94.2094 311.401 95.5541 312.414 96.1821C313.427 96.8101 314.256 96.4924 314.256 95.4765C314.256 94.4606 313.427 93.1159 312.414 92.4878C311.401 91.8598 310.572 92.1775 310.572 93.1935ZM277.422 100.8C275.187 102.248 275.453 102.595 278.803 102.619C281.083 102.634 282.946 101.816 282.946 100.8C282.946 98.4855 280.992 98.4855 277.422 100.8ZM261.667 110.196C260.988 111.301 261.474 113.172 262.75 114.352C264.528 115.998 264.767 115.961 263.771 114.192C263.056 112.923 263.349 111.883 264.421 111.883C265.492 111.883 266.371 111.051 266.371 110.036C266.371 107.57 263.22 107.677 261.667 110.196ZM713.907 111.988C713.907 112.947 717.361 113.73 721.581 113.73C725.802 113.73 728.656 113.129 727.923 112.394C725.889 110.355 713.907 110.008 713.907 111.988ZM748.9 159.908C750.419 160.892 752.906 161.653 754.425 161.596C756.246 161.53 755.934 160.955 753.505 159.908C748.441 157.726 745.533 157.726 748.9 159.908ZM92.1579 165.015C91.0512 165.761 89.5851 169.256 88.9 172.78C87.922 177.818 88.1356 178.706 89.9001 176.936C93.2225 173.604 95.4675 174.206 93.5632 177.917C91.5318 181.881 92.7215 185.768 95.9685 185.768C98.3038 185.768 100.617 189.619 100.617 193.505C100.617 194.547 99.3204 194.9 97.7347 194.288C95.5467 193.448 95.1213 194.035 95.9721 196.725C96.7088 199.048 95.9574 200.934 93.7916 202.198C90.9258 203.871 91.1745 204.134 95.6554 204.183L100.823 204.239L95.6554 208.951L90.4876 213.665L96.0127 212.708C99.0515 212.183 104.57 211.232 108.275 210.593C113.067 209.767 115.319 208.282 116.077 205.451C117.793 199.037 117.373 196.85 114.43 196.85C112.91 196.85 111.667 196.019 111.667 195.003C111.667 193.987 112.524 193.156 113.57 193.156C114.618 193.156 112.574 190.247 109.028 186.691C105.483 183.135 101.726 180.226 100.678 180.226C98.0772 180.226 98.2762 179.011 101.75 173.697C104.661 169.24 104.617 169.143 99.6837 169.143C95.4104 169.143 94.9905 168.72 96.9336 166.373C98.7826 164.138 98.7365 163.608 96.6978 163.63C95.3091 163.646 93.2648 164.269 92.1579 165.015ZM78.5164 186.493C78.5164 187.908 77.1867 189.578 75.5623 190.203C73.8034 190.88 73.0557 192.508 73.715 194.229C74.3229 195.818 73.9269 198.792 72.8347 200.836C69.9874 206.175 71.7647 206.843 79.2881 203.264C83.7984 201.115 85.8906 198.877 85.909 196.178C85.922 194.008 86.434 190.363 87.0435 188.076C87.9884 184.541 87.4339 183.92 83.3362 183.92C80.4447 183.92 78.5164 184.949 78.5164 186.493ZM593.506 204.47C591.821 212.922 592.101 238.959 593.889 240.067C594.732 240.59 595.355 237.522 595.27 233.25C595.161 227.718 595.821 225.627 597.557 225.989C599.977 226.493 599.922 225.828 596.635 214.86C595.949 212.573 595.598 208.001 595.854 204.701C596.447 197.061 595.012 196.919 593.506 204.47ZM275.429 237.949C270.935 243.623 270.817 244.301 273.285 250.328C274.72 253.836 277.24 257.693 278.887 258.901C281.401 260.744 281.522 261.88 279.649 266.003C275.71 274.675 276.786 279.387 283.221 281.637C286.411 282.753 290.647 283.665 292.636 283.665C295.8 283.665 296.096 282.806 295.024 276.738C294.351 272.93 293.374 268.358 292.853 266.579C292.334 264.8 292.792 263.347 293.873 263.347C294.954 263.347 295.838 262.1 295.838 260.576C295.838 259.052 294.457 257.805 292.769 257.805C291.082 257.805 290.225 257.279 290.868 256.634C291.508 255.99 290.485 253.487 288.589 251.071C283.517 244.604 285.431 239.835 292.743 240.727C296.031 241.13 297.735 240.779 296.625 239.927C295.538 239.092 294.115 236.957 293.459 235.178C292.658 232.999 290.303 231.946 286.227 231.946C281.613 231.946 279.061 233.364 275.429 237.949ZM591.355 250.999C590.708 253.579 589.011 256.141 587.585 256.69C584.672 257.811 583.997 263.347 586.773 263.347C587.752 263.347 588.03 261.976 587.389 260.299C586.426 257.78 587.069 257.466 591.107 258.481C593.959 259.2 597.537 258.746 599.699 257.39C603.804 254.819 604.576 252.264 601.248 252.264C600.062 252.264 597.614 250.923 595.81 249.286C592.752 246.512 592.448 246.628 591.355 250.999ZM143.821 254.235C143.153 255.317 143.002 256.601 143.485 257.085C143.967 257.569 144.853 256.682 145.453 255.114C146.699 251.86 145.638 251.287 143.821 254.235ZM141.716 263.502C140.617 264.605 140.12 267.041 140.608 268.916C141.861 273.718 146.66 271.341 146.66 265.92C146.66 261.162 144.906 260.303 141.716 263.502ZM586.216 266.426C585.54 267.102 584.987 270.011 584.987 272.891C584.987 279.271 577.994 287.261 575.689 283.517C574.623 281.788 573.827 282.542 572.93 286.127C572.011 289.798 570.81 290.893 568.51 290.161C564.286 288.817 548.549 300.099 551.82 302.125C553.122 302.932 553.527 304.582 552.737 305.864C551.815 307.362 552.21 307.851 553.883 307.275C555.29 306.791 556.408 304.189 556.369 301.494C556.29 296.159 558.189 294.975 559.854 299.323C560.755 301.68 561.719 301.617 566.955 298.861C570.287 297.107 573.436 295.115 573.952 294.436C574.467 293.758 577.785 292.927 581.321 292.589C588.086 291.946 587.923 292.262 590.667 274.43C591.806 267.03 589.588 263.042 586.216 266.426ZM120.876 268.888C120.876 269.904 121.705 270.735 122.718 270.735C123.73 270.735 124.559 269.904 124.559 268.888C124.559 267.872 123.73 267.041 122.718 267.041C121.705 267.041 120.876 267.872 120.876 268.888ZM160.086 277.754C158.478 278.78 158.863 279.805 161.468 281.436C164.602 283.399 165.077 283.209 165.077 279.986C165.077 276.051 163.714 275.442 160.086 277.754ZM195.005 290.479C196.776 290.945 199.679 290.945 201.451 290.479C203.222 290.016 201.773 289.635 198.228 289.635C194.683 289.635 193.233 290.016 195.005 290.479ZM223.091 291.054C219.577 292.568 219.597 292.648 223.551 292.771C225.831 292.842 227.695 292.07 227.695 291.054C227.695 290.038 227.487 289.266 227.235 289.336C226.983 289.408 225.117 290.18 223.091 291.054ZM519.386 334.372C517.883 338.301 520.548 342.018 522.572 338.815C524.744 335.377 524.609 331.69 522.313 331.69C521.267 331.69 519.949 332.897 519.386 334.372ZM480.855 352.132C480.187 353.215 480.102 354.565 480.668 355.13C482.181 356.651 487.377 354.279 487.377 352.066C487.377 349.559 482.409 349.609 480.855 352.132ZM518.589 360.579C517.154 364.362 517.395 366.182 519.664 368.697C522.624 371.976 532.291 374.979 530.493 372.061C529.957 371.191 528.297 370.48 526.808 370.48C523.003 370.48 521.89 366.444 524.09 360.638C525.603 356.649 525.432 355.703 523.198 355.703C521.679 355.703 519.605 357.897 518.589 360.579ZM520.527 377.776C520.527 378.742 521.844 380.272 523.456 381.175C525.065 382.078 526.309 383.367 526.219 384.038C525.757 387.451 526.276 387.505 528.622 384.287C530.853 381.228 530.791 380.458 528.162 378.45C524.54 375.687 520.527 375.332 520.527 377.776ZM534.033 378.711C534.033 380.19 534.738 380.964 535.598 380.43C536.458 379.897 536.687 378.687 536.103 377.741C534.615 375.325 534.033 375.596 534.033 378.711ZM534.801 389.153C530.791 391.428 530.528 398.187 534.449 398.187C536.028 398.187 536.853 397.426 536.28 396.497C535.707 395.568 536.167 394.498 537.302 394.118C538.437 393.739 539.062 392.054 538.695 390.375C538.183 388.042 537.265 387.754 534.801 389.153ZM382.399 393.46C382.399 397.884 385.337 401.399 387.347 399.382C388.916 397.808 386.248 388.951 384.206 388.951C383.212 388.951 382.399 390.979 382.399 393.46ZM525.817 392.184C523.528 395.113 523.592 395.178 526.513 392.882C529.582 390.468 530.556 388.951 529.04 388.951C528.659 388.951 527.207 390.407 525.817 392.184ZM502.702 400.496C495.192 408.804 487.145 414.606 484.527 413.599C481.157 412.301 480.973 417.716 484.154 424.588C485.743 428.02 487.882 429.571 491.06 429.599C493.593 429.621 497.454 430.12 499.641 430.707C502.895 431.583 504.216 430.487 506.912 424.68C508.724 420.775 511.025 417.022 512.026 416.337C513.17 415.553 512.935 413.993 511.391 412.127C509.612 409.979 509.441 408.03 510.769 405.058C514.608 396.469 509.139 393.375 502.702 400.496ZM439.898 406.504C442.632 409.048 447.11 415.073 449.849 419.896C456.36 431.363 463.303 438.824 467.462 438.824C472.399 438.824 471.637 431.367 466.172 426.169C463.661 423.779 462.027 421.143 462.539 420.31C463.053 419.475 459.529 416.137 454.706 412.89C449.883 409.643 445.276 405.836 444.465 404.434C443.655 403.03 441.178 401.881 438.96 401.881C435.06 401.881 435.091 402.034 439.898 406.504ZM543.888 412.502C543.45 413.265 543.756 415.55 544.571 417.582C545.864 420.807 546.068 420.631 546.183 416.196C546.31 411.185 545.448 409.798 543.888 412.502ZM519.782 417.242C519.485 418.444 518.348 422.168 517.254 425.513C515.138 431.973 516.24 444.365 518.927 444.365C519.808 444.365 520.572 441.249 520.623 437.438C520.72 430.604 520.759 430.567 523.611 434.668C527.546 440.325 530.059 439.915 527.81 433.98C526.502 430.534 526.609 428.371 528.176 426.475C530.031 424.235 529.602 424.01 525.454 425.055C521.281 426.104 520.527 425.7 520.527 422.399C520.527 419.022 521.616 418.505 528.707 418.505C540.026 418.505 540.657 415.812 529.436 415.395C523.694 415.18 520.121 415.864 519.782 417.242ZM558.283 422.199C558.909 423.215 560.589 424.047 562.018 424.047C563.485 424.047 564.184 425.17 563.624 426.632C562.953 428.384 564.906 429.952 569.666 431.49C578.931 434.485 581.748 436.919 580.683 441.003C580.14 443.089 580.8 444.365 582.422 444.365C583.86 444.365 586.638 445.368 588.594 446.592C591.496 448.41 592.785 448.24 595.62 445.669C600.086 441.615 603.233 441.744 608.93 446.212C611.463 448.2 614.757 449.843 616.253 449.866C621.404 449.943 596.694 428.097 589.303 426.038C580.411 423.563 574.486 423.509 573.017 425.894C571.099 429.006 566.886 427.95 565.649 424.047C564.996 421.981 562.864 420.352 560.813 420.352C558.795 420.352 557.657 421.183 558.283 422.199ZM545.434 429.52C544.809 430.532 546.665 431.128 549.75 430.905C552.726 430.689 554.778 429.889 554.313 429.126C553.089 427.137 546.728 427.418 545.434 429.52ZM536.759 430.85C538.087 431.383 539.676 431.317 540.288 430.704C540.898 430.09 539.813 429.654 537.871 429.734C535.726 429.823 535.289 430.26 536.759 430.85ZM623.049 432.226C622.498 433.665 620.131 435.209 617.79 435.658C614.041 436.376 613.985 436.504 617.327 436.725C622.037 437.037 628.689 432.486 625.977 430.803C624.918 430.148 623.599 430.787 623.049 432.226ZM471.982 442.593C474.428 445.046 486.112 447.954 493.773 448.015C498.932 448.057 499.038 447.915 495.615 445.56C490.955 442.357 468.998 439.601 471.982 442.593ZM534.449 449.042C532.483 450.532 531.654 451.727 532.607 451.694C533.56 451.663 535.95 450.416 537.916 448.924C539.882 447.433 540.711 446.238 539.757 446.271C538.805 446.303 536.414 447.549 534.449 449.042ZM515.003 450.632C515.003 451.031 516.288 451.853 517.861 452.459C519.5 453.089 520.238 452.779 519.594 451.733C518.513 449.976 515.003 449.136 515.003 450.632ZM591.704 456.331C591.049 458.043 590.513 462.6 590.513 466.455C590.513 476.695 587.468 478.21 578.081 472.644C570.085 467.901 569.004 465.832 572.028 461.037C573.158 459.243 572.993 457.838 571.537 456.911C568.333 454.868 561.045 455.134 561.045 457.295C561.045 458.311 559.418 459.142 557.426 459.142C555.437 459.142 552.839 461.011 551.652 463.298C548.678 469.03 548.92 468.919 544.56 466.578C541.232 464.792 539.546 465.359 533.202 470.396C529.106 473.651 525.033 478.219 524.149 480.546C523.127 483.247 520.102 485.456 515.794 486.649C512.08 487.678 506.335 490.379 503.026 492.654C497.43 496.498 497.039 497.446 497.443 506.135C497.683 511.273 499.247 518.569 500.915 522.347C504.486 530.422 504.761 535.171 501.831 538.11C500.228 539.717 500.844 540.757 504.338 542.353C508.035 544.043 510.111 543.875 514.656 541.518C517.786 539.896 522.185 538.568 524.436 538.568C526.684 538.568 530.077 537.161 531.972 535.439C536.295 531.516 547.446 527.55 554.261 527.513C559.791 527.484 566.639 530.424 568.816 533.766C569.77 535.229 571.14 535.177 573.705 533.583C576.772 531.678 577.412 531.935 578.298 535.43C578.864 537.665 581.739 542.129 584.689 545.354C589.478 550.593 591.007 551.167 599.029 550.743C614.297 549.937 617.888 548.206 619.916 540.681C620.914 536.98 623.078 532.028 624.724 529.678C626.371 527.33 628.168 520.407 628.721 514.297C629.603 504.555 629.229 502.69 625.695 499.173C623.476 496.965 619.418 492.599 616.678 489.468C613.935 486.337 610.241 483.247 608.47 482.6C606.586 481.911 605.247 479.527 605.247 476.856C605.247 474.346 604.405 471.767 603.376 471.13C602.346 470.491 601.983 469.19 602.571 468.237C603.158 467.284 602.25 465.971 600.554 465.317C598.858 464.665 596.442 461.674 595.183 458.675C593.334 454.267 592.666 453.817 591.704 456.331ZM276.771 470.256C276.007 474.083 274.08 476.429 270.614 477.75C262.373 480.894 260.645 483.021 262.903 487.253C264.426 490.105 264.141 492.348 261.671 496.949C258.829 502.239 258.754 503.606 261.023 508.745C263.502 514.363 267.122 515.957 271.003 513.142C273.186 511.558 279.263 489.204 279.263 482.759C279.263 480.336 280.124 477.489 281.173 476.436C282.475 475.131 282.49 472.956 281.22 469.602C278.834 463.313 278.134 463.416 276.771 470.256ZM702.321 541.76C701.783 544.577 702.091 547.787 703.005 548.897C703.918 550.007 704.467 551.302 704.222 551.775C703.979 552.25 706.056 550.126 708.843 547.058C714.482 540.844 715.328 538.138 711.122 539.756C709.589 540.347 707.204 539.885 705.819 538.734C703.815 537.066 703.102 537.682 702.321 541.76ZM688.774 559.45C685.588 562.695 681.221 566.968 679.072 568.942C676.922 570.919 675.476 573.412 675.862 574.484C676.873 577.312 684.997 575.902 686.851 572.577C687.721 571.02 690.847 566.986 693.802 563.612C703.337 552.719 698.949 549.088 688.774 559.45ZM611.676 558.912C610.921 560.139 608.453 560.551 605.829 559.889C601.894 558.899 601.368 559.311 601.887 562.972C602.755 569.118 609.414 569.5 612.568 563.589C615.031 558.973 614.23 554.769 611.676 558.912Z" fill="url(#paint0_linear_1197_4609)"/>
<g filter="url(#filter0_dddddd_1197_4609)">
<path d="M265.505 178.113C289.254 160.088 347.855 143.43 392.269 221" stroke="#008CFF"/>
</g>
<g filter="url(#filter1_dddddd_1197_4609)">
<path d="M215.599 196.072C248.538 186.001 357.671 186.132 392.27 220" stroke="#008CFF"/>
</g>
<g filter="url(#filter2_dddddd_1197_4609)">
<path d="M215.599 196C218.68 180.391 232.974 155.049 265.506 178.555" stroke="#008CFF"/>
</g>
<g filter="url(#filter3_dddddd_1197_4609)">
<path d="M215.599 198C216.701 198 217.595 197.105 217.595 196C217.595 194.895 216.701 194 215.599 194C214.496 194 213.603 194.895 213.603 196C213.603 197.105 214.496 198 215.599 198Z" fill="#D9D9D9"/>
</g>
<g filter="url(#filter4_dddddd_1197_4609)">
<path d="M391.271 222C392.373 222 393.267 221.105 393.267 220C393.267 218.895 392.373 218 391.271 218C390.168 218 389.274 218.895 389.274 220C389.274 221.105 390.168 222 391.271 222Z" fill="#D9D9D9"/>
</g>
<g filter="url(#filter5_dddddd_1197_4609)">
<path d="M265.505 180C266.608 180 267.501 179.105 267.501 178C267.501 176.895 266.608 176 265.505 176C264.403 176 263.509 176.895 263.509 178C263.509 179.105 264.403 180 265.505 180Z" fill="#D9D9D9"/>
</g>
</g>
<path d="M180.62 328H108.724C104.322 328 100.754 331.582 100.754 336V350C100.754 354.418 104.322 358 108.724 358H180.62C185.022 358 188.59 354.418 188.59 350V336C188.59 331.582 185.022 328 180.62 328Z" fill="#303030"/>
<path d="M115.736 348H114.609V338.9H115.736V342.852H117.407L120.386 338.9H121.694L118.365 343.307L121.901 348H120.528L117.407 343.892H115.736V348ZM128.428 347.025H128.765V348H128.182C127.301 348 127.003 347.623 126.99 346.973C126.576 347.571 125.915 348.078 124.776 348.078C123.325 348.078 122.341 347.35 122.341 346.141C122.341 344.815 123.26 344.074 124.996 344.074H126.938V343.619C126.938 342.761 126.33 342.241 125.294 342.241C124.361 342.241 123.739 342.683 123.61 343.359H122.548C122.703 342.059 123.752 341.292 125.345 341.292C127.029 341.292 128.001 342.137 128.001 343.684V346.583C128.001 346.934 128.13 347.025 128.428 347.025ZM126.938 345.296V344.971H124.892C123.947 344.971 123.416 345.322 123.416 346.076C123.416 346.726 123.973 347.168 124.853 347.168C126.174 347.168 126.938 346.401 126.938 345.296ZM133.572 344.594C134.388 344.724 134.893 345.218 134.893 346.089C134.893 347.311 133.779 348.078 131.992 348.078C130.114 348.078 129.311 347.311 129.246 345.959H130.347C130.502 346.752 130.904 347.168 132.005 347.168C133.105 347.168 133.805 346.765 133.805 346.076C133.805 345.374 133.3 345.101 132.471 345.101H131.344V344.178H132.406C133.183 344.178 133.649 343.892 133.649 343.19C133.649 342.592 133.067 342.202 132.069 342.202C130.994 342.202 130.528 342.657 130.386 343.372H129.285C129.362 342.137 130.386 341.292 132.095 341.292C133.766 341.292 134.737 342.033 134.737 343.164C134.737 343.983 134.258 344.451 133.572 344.594ZM141.912 347.025H142.248V348H141.666C140.785 348 140.487 347.623 140.474 346.973C140.06 347.571 139.399 348.078 138.259 348.078C136.809 348.078 135.824 347.35 135.824 346.141C135.824 344.815 136.744 344.074 138.479 344.074H140.422V343.619C140.422 342.761 139.814 342.241 138.777 342.241C137.845 342.241 137.223 342.683 137.094 343.359H136.032C136.187 342.059 137.236 341.292 138.829 341.292C140.513 341.292 141.484 342.137 141.484 343.684V346.583C141.484 346.934 141.614 347.025 141.912 347.025ZM140.422 345.296V344.971H138.376C137.43 344.971 136.899 345.322 136.899 346.076C136.899 346.726 137.456 347.168 138.337 347.168C139.658 347.168 140.422 346.401 140.422 345.296ZM142.516 348L145.029 344.594L142.685 341.37H143.954L145.703 343.827L147.477 341.37H148.681L146.324 344.594L148.85 348H147.581L145.651 345.335L143.721 348H142.516ZM152.279 348.078C150.349 348.078 149.08 346.765 149.08 344.698C149.08 342.67 150.388 341.292 152.305 341.292C153.924 341.292 154.947 342.202 155.219 343.658H154.105C153.911 342.774 153.263 342.241 152.292 342.241C151.023 342.241 150.168 343.255 150.168 344.698C150.168 346.141 151.023 347.129 152.292 347.129C153.237 347.129 153.885 346.583 154.092 345.738H155.219C154.96 347.168 153.885 348.078 152.279 348.078ZM159.018 348H157.956V342.345H155.573V341.37H161.401V342.345H159.018V348ZM167.777 347.025H168.114V348H167.531C166.651 348 166.353 347.623 166.34 346.973C165.925 347.571 165.265 348.078 164.125 348.078C162.674 348.078 161.69 347.35 161.69 346.141C161.69 344.815 162.61 344.074 164.345 344.074H166.288V343.619C166.288 342.761 165.679 342.241 164.643 342.241C163.71 342.241 163.089 342.683 162.959 343.359H161.897C162.053 342.059 163.102 341.292 164.695 341.292C166.379 341.292 167.35 342.137 167.35 343.684V346.583C167.35 346.934 167.479 347.025 167.777 347.025ZM166.288 345.296V344.971H164.242C163.296 344.971 162.765 345.322 162.765 346.076C162.765 346.726 163.322 347.168 164.203 347.168C165.524 347.168 166.288 346.401 166.288 345.296ZM173.709 344.139V341.37H174.771V348H173.709V345.114H169.992V348H168.93V341.37H169.992V344.139H173.709Z" fill="white"/>
<path d="M82.8214 328H28.8922C24.4903 328 20.9219 331.582 20.9219 336V350C20.9219 354.418 24.4903 358 28.8922 358H82.8214C87.2233 358 90.7917 354.418 90.7917 350V336C90.7917 331.582 87.2233 328 82.8214 328Z" fill="#008CFF" fill-opacity="0.9"/>
<path d="M34.7783 348V338.9H38.2623C40.0756 338.9 41.2672 339.992 41.2672 341.695C41.2672 343.398 40.0756 344.503 38.2623 344.503H35.9051V348H34.7783ZM38.1717 339.94H35.9051V343.463H38.1587C39.3503 343.463 40.1144 342.774 40.1144 341.695C40.1144 340.616 39.3632 339.94 38.1717 339.94ZM45.0152 348.078C43.0854 348.078 41.7384 346.7 41.7384 344.685C41.7384 342.67 43.0854 341.292 45.0152 341.292C46.945 341.292 48.292 342.67 48.292 344.685C48.292 346.7 46.945 348.078 45.0152 348.078ZM45.0152 347.129C46.3233 347.129 47.204 346.102 47.204 344.685C47.204 343.268 46.3233 342.241 45.0152 342.241C43.7071 342.241 42.8263 343.268 42.8263 344.685C42.8263 346.102 43.7071 347.129 45.0152 347.129ZM52.4758 348.078C50.546 348.078 49.2767 346.765 49.2767 344.698C49.2767 342.67 50.5849 341.292 52.5017 341.292C54.1207 341.292 55.1439 342.202 55.4159 343.658H54.302C54.1077 342.774 53.4601 342.241 52.4888 342.241C51.2195 342.241 50.3647 343.255 50.3647 344.698C50.3647 346.141 51.2195 347.129 52.4888 347.129C53.4342 347.129 54.0818 346.583 54.2891 345.738H55.4159C55.1568 347.168 54.0818 348.078 52.4758 348.078ZM59.5462 348.078C57.6164 348.078 56.3471 346.765 56.3471 344.698C56.3471 342.67 57.6552 341.292 59.5721 341.292C61.191 341.292 62.2142 342.202 62.4862 343.658H61.3724C61.1781 342.774 60.5305 342.241 59.5591 342.241C58.2899 342.241 57.435 343.255 57.435 344.698C57.435 346.141 58.2899 347.129 59.5591 347.129C60.5046 347.129 61.1522 346.583 61.3594 345.738H62.4862C62.2272 347.168 61.1522 348.078 59.5462 348.078ZM64.5831 348H63.6506V341.37H64.6867V346.388L68.6241 341.37H69.5566V348H68.5205V342.969L64.5831 348ZM73.3302 341.37H76.2314V348H75.1694V345.725H73.408L71.789 348H70.5456L72.3589 345.582C71.2968 345.348 70.714 344.62 70.714 343.554C70.714 342.189 71.6595 341.37 73.3302 341.37ZM73.3561 344.802H75.1694V342.28H73.3561C72.3589 342.28 71.789 342.709 71.789 343.528C71.789 344.386 72.3589 344.802 73.3561 344.802Z" fill="white"/>
<path d="M272.431 328H206.524C202.122 328 198.554 331.582 198.554 336V350C198.554 354.418 202.122 358 206.524 358H272.431C276.833 358 280.401 354.418 280.401 350V336C280.401 331.582 276.833 328 272.431 328Z" fill="#303030"/>
<path d="M215.971 348H212.409V338.9H217.991V339.94H213.536V342.618H215.958C217.693 342.618 218.872 343.502 218.872 345.296C218.872 346.999 217.706 348 215.971 348ZM213.536 343.658V346.96H215.867C217.007 346.96 217.719 346.323 217.719 345.309C217.719 344.295 216.994 343.658 215.854 343.658H213.536ZM223.039 348.078C221.057 348.078 219.762 346.713 219.762 344.685C219.762 342.67 221.031 341.292 222.896 341.292C224.761 341.292 225.979 342.475 226.03 344.438C226.03 344.581 226.017 344.737 226.005 344.893H220.876V344.984C220.915 346.245 221.705 347.129 222.961 347.129C223.893 347.129 224.619 346.635 224.839 345.777H225.914C225.655 347.103 224.567 348.078 223.039 348.078ZM220.94 344.009H224.891C224.787 342.865 224.01 342.228 222.909 342.228C221.938 342.228 221.044 342.93 220.94 344.009ZM226.716 348H226.353V347.025H226.548C227.299 347.025 227.584 346.57 227.584 344.581V341.37H232.583V348H231.521V342.345H228.62V344.62C228.62 347.259 227.998 348 226.716 348ZM239.876 347.025H240.213V348H239.63C238.749 348 238.451 347.623 238.438 346.973C238.024 347.571 237.363 348.078 236.223 348.078C234.773 348.078 233.789 347.35 233.789 346.141C233.789 344.815 234.708 344.074 236.444 344.074H238.386V343.619C238.386 342.761 237.778 342.241 236.742 342.241C235.809 342.241 235.187 342.683 235.058 343.359H233.996C234.151 342.059 235.2 341.292 236.793 341.292C238.477 341.292 239.448 342.137 239.448 343.684V346.583C239.448 346.934 239.578 347.025 239.876 347.025ZM238.386 345.296V344.971H236.34C235.395 344.971 234.864 345.322 234.864 346.076C234.864 346.726 235.42 347.168 236.301 347.168C237.622 347.168 238.386 346.401 238.386 345.296ZM244.357 341.292C246.183 341.292 247.53 342.527 247.53 344.685C247.53 346.713 246.183 348.078 244.357 348.078C243.243 348.078 242.492 347.623 242.091 346.986V350.6H241.029V341.37H241.948L242.091 342.436C242.531 341.825 243.243 341.292 244.357 341.292ZM244.254 347.129C245.562 347.129 246.442 346.128 246.442 344.685C246.442 343.242 245.562 342.241 244.254 342.241C242.958 342.241 242.078 343.242 242.078 344.659C242.078 346.115 242.958 347.129 244.254 347.129ZM250.32 348.039L247.743 341.37H248.869L250.903 346.661L252.871 341.37H253.998L250.955 349.118C250.54 350.184 250.294 350.6 249.362 350.6H248.092V349.625H249.038C249.646 349.625 249.75 349.469 249.996 348.845L250.32 348.039ZM257.503 348.078C255.573 348.078 254.304 346.765 254.304 344.698C254.304 342.67 255.612 341.292 257.529 341.292C259.148 341.292 260.171 342.202 260.443 343.658H259.329C259.135 342.774 258.488 342.241 257.516 342.241C256.247 342.241 255.392 343.255 255.392 344.698C255.392 346.141 256.247 347.129 257.516 347.129C258.462 347.129 259.109 346.583 259.316 345.738H260.443C260.184 347.168 259.109 348.078 257.503 348.078ZM264.444 348H261.608V341.37H262.67V343.528H264.444C266.089 343.528 267.035 344.347 267.035 345.764C267.035 347.168 266.089 348 264.444 348ZM262.67 344.438V347.09H264.276C265.364 347.09 265.96 346.609 265.96 345.764C265.96 344.893 265.364 344.438 264.276 344.438H262.67Z" fill="white"/>
</g>
<defs>
<filter id="filter0_dddddd_1197_4609" x="52.9001" y="-49.8018" width="552.105" height="483.352" filterUnits="userSpaceOnUse" color-interpolation-filters="sRGB">
<feFlood flood-opacity="0" result="BackgroundImageFix"/>
<feColorMatrix in="SourceAlpha" type="matrix" values="0 0 0 0 0 0 0 0 0 0 0 0 0 0 0 0 0 0 127 0" result="hardAlpha"/>
<feOffset/>
<feGaussianBlur stdDeviation="2.5274"/>
<feColorMatrix type="matrix" values="0 0 0 0 0.0196078 0 0 0 0 0.501961 0 0 0 0 0.905882 0 0 0 1 0"/>
<feBlend mode="normal" in2="BackgroundImageFix" result="effect1_dropShadow_1197_4609"/>
<feColorMatrix in="SourceAlpha" type="matrix" values="0 0 0 0 0 0 0 0 0 0 0 0 0 0 0 0 0 0 127 0" result="hardAlpha"/>
<feOffset/>
<feGaussianBlur stdDeviation="5.0548"/>
<feColorMatrix type="matrix" values="0 0 0 0 0.0196078 0 0 0 0 0.501961 0 0 0 0 0.905882 0 0 0 1 0"/>
<feBlend mode="normal" in2="effect1_dropShadow_1197_4609" result="effect2_dropShadow_1197_4609"/>
<feColorMatrix in="SourceAlpha" type="matrix" values="0 0 0 0 0 0 0 0 0 0 0 0 0 0 0 0 0 0 127 0" result="hardAlpha"/>
<feOffset/>
<feGaussianBlur stdDeviation="17.6918"/>
<feColorMatrix type="matrix" values="0 0 0 0 0.0196078 0 0 0 0 0.501961 0 0 0 0 0.905882 0 0 0 1 0"/>
<feBlend mode="normal" in2="effect2_dropShadow_1197_4609" result="effect3_dropShadow_1197_4609"/>
<feColorMatrix in="SourceAlpha" type="matrix" values="0 0 0 0 0 0 0 0 0 0 0 0 0 0 0 0 0 0 127 0" result="hardAlpha"/>
<feOffset/>
<feGaussianBlur stdDeviation="35.3836"/>
<feColorMatrix type="matrix" values="0 0 0 0 0.0196078 0 0 0 0 0.501961 0 0 0 0 0.905882 0 0 0 1 0"/>
<feBlend mode="normal" in2="effect3_dropShadow_1197_4609" result="effect4_dropShadow_1197_4609"/>
<feColorMatrix in="SourceAlpha" type="matrix" values="0 0 0 0 0 0 0 0 0 0 0 0 0 0 0 0 0 0 127 0" result="hardAlpha"/>
<feOffset/>
<feGaussianBlur stdDeviation="60.6576"/>
<feColorMatrix type="matrix" values="0 0 0 0 0.0196078 0 0 0 0 0.501961 0 0 0 0 0.905882 0 0 0 1 0"/>
<feBlend mode="normal" in2="effect4_dropShadow_1197_4609" result="effect5_dropShadow_1197_4609"/>
<feColorMatrix in="SourceAlpha" type="matrix" values="0 0 0 0 0 0 0 0 0 0 0 0 0 0 0 0 0 0 127 0" result="hardAlpha"/>
<feOffset/>
<feGaussianBlur stdDeviation="106.151"/>
<feColorMatrix type="matrix" values="0 0 0 0 0.0196078 0 0 0 0 0.501961 0 0 0 0 0.905882 0 0 0 1 0"/>
<feBlend mode="normal" in2="effect5_dropShadow_1197_4609" result="effect6_dropShadow_1197_4609"/>
<feBlend mode="normal" in="SourceGraphic" in2="effect6_dropShadow_1197_4609" result="shape"/>
</filter>
<filter id="filter1_dddddd_1197_4609" x="66.9348" y="41.2382" width="474.202" height="327.636" filterUnits="userSpaceOnUse" color-interpolation-filters="sRGB">
<feFlood flood-opacity="0" result="BackgroundImageFix"/>
<feColorMatrix in="SourceAlpha" type="matrix" values="0 0 0 0 0 0 0 0 0 0 0 0 0 0 0 0 0 0 127 0" result="hardAlpha"/>
<feOffset/>
<feGaussianBlur stdDeviation="1.76806"/>
<feColorMatrix type="matrix" values="0 0 0 0 0.0313726 0 0 0 0 0.513726 0 0 0 0 0.905882 0 0 0 1 0"/>
<feBlend mode="normal" in2="BackgroundImageFix" result="effect1_dropShadow_1197_4609"/>
<feColorMatrix in="SourceAlpha" type="matrix" values="0 0 0 0 0 0 0 0 0 0 0 0 0 0 0 0 0 0 127 0" result="hardAlpha"/>
<feOffset/>
<feGaussianBlur stdDeviation="3.53613"/>
<feColorMatrix type="matrix" values="0 0 0 0 0.0313726 0 0 0 0 0.513726 0 0 0 0 0.905882 0 0 0 1 0"/>
<feBlend mode="normal" in2="effect1_dropShadow_1197_4609" result="effect2_dropShadow_1197_4609"/>
<feColorMatrix in="SourceAlpha" type="matrix" values="0 0 0 0 0 0 0 0 0 0 0 0 0 0 0 0 0 0 127 0" result="hardAlpha"/>
<feOffset/>
<feGaussianBlur stdDeviation="12.3764"/>
<feColorMatrix type="matrix" values="0 0 0 0 0.0313726 0 0 0 0 0.513726 0 0 0 0 0.905882 0 0 0 1 0"/>
<feBlend mode="normal" in2="effect2_dropShadow_1197_4609" result="effect3_dropShadow_1197_4609"/>
<feColorMatrix in="SourceAlpha" type="matrix" values="0 0 0 0 0 0 0 0 0 0 0 0 0 0 0 0 0 0 127 0" result="hardAlpha"/>
<feOffset/>
<feGaussianBlur stdDeviation="24.7529"/>
<feColorMatrix type="matrix" values="0 0 0 0 0.0313726 0 0 0 0 0.513726 0 0 0 0 0.905882 0 0 0 1 0"/>
<feBlend mode="normal" in2="effect3_dropShadow_1197_4609" result="effect4_dropShadow_1197_4609"/>
<feColorMatrix in="SourceAlpha" type="matrix" values="0 0 0 0 0 0 0 0 0 0 0 0 0 0 0 0 0 0 127 0" result="hardAlpha"/>
<feOffset/>
<feGaussianBlur stdDeviation="42.4335"/>
<feColorMatrix type="matrix" values="0 0 0 0 0.0313726 0 0 0 0 0.513726 0 0 0 0 0.905882 0 0 0 1 0"/>
<feBlend mode="normal" in2="effect4_dropShadow_1197_4609" result="effect5_dropShadow_1197_4609"/>
<feColorMatrix in="SourceAlpha" type="matrix" values="0 0 0 0 0 0 0 0 0 0 0 0 0 0 0 0 0 0 127 0" result="hardAlpha"/>
<feOffset/>
<feGaussianBlur stdDeviation="74.2587"/>
<feColorMatrix type="matrix" values="0 0 0 0 0.0313726 0 0 0 0 0.513726 0 0 0 0 0.905882 0 0 0 1 0"/>
<feBlend mode="normal" in2="effect5_dropShadow_1197_4609" result="effect6_dropShadow_1197_4609"/>
<feBlend mode="normal" in="SourceGraphic" in2="effect6_dropShadow_1197_4609" result="shape"/>
</filter>
<filter id="filter2_dddddd_1197_4609" x="26.1084" y="-20.4998" width="428.69" height="405.597" filterUnits="userSpaceOnUse" color-interpolation-filters="sRGB">
<feFlood flood-opacity="0" result="BackgroundImageFix"/>
<feColorMatrix in="SourceAlpha" type="matrix" values="0 0 0 0 0 0 0 0 0 0 0 0 0 0 0 0 0 0 127 0" result="hardAlpha"/>
<feOffset/>
<feGaussianBlur stdDeviation="2.25"/>
<feColorMatrix type="matrix" values="0 0 0 0 0.0196078 0 0 0 0 0.501961 0 0 0 0 0.905882 0 0 0 1 0"/>
<feBlend mode="normal" in2="BackgroundImageFix" result="effect1_dropShadow_1197_4609"/>
<feColorMatrix in="SourceAlpha" type="matrix" values="0 0 0 0 0 0 0 0 0 0 0 0 0 0 0 0 0 0 127 0" result="hardAlpha"/>
<feOffset/>
<feGaussianBlur stdDeviation="4.5"/>
<feColorMatrix type="matrix" values="0 0 0 0 0.0196078 0 0 0 0 0.501961 0 0 0 0 0.905882 0 0 0 1 0"/>
<feBlend mode="normal" in2="effect1_dropShadow_1197_4609" result="effect2_dropShadow_1197_4609"/>
<feColorMatrix in="SourceAlpha" type="matrix" values="0 0 0 0 0 0 0 0 0 0 0 0 0 0 0 0 0 0 127 0" result="hardAlpha"/>
<feOffset/>
<feGaussianBlur stdDeviation="15.75"/>
<feColorMatrix type="matrix" values="0 0 0 0 0.0196078 0 0 0 0 0.501961 0 0 0 0 0.905882 0 0 0 1 0"/>
<feBlend mode="normal" in2="effect2_dropShadow_1197_4609" result="effect3_dropShadow_1197_4609"/>
<feColorMatrix in="SourceAlpha" type="matrix" values="0 0 0 0 0 0 0 0 0 0 0 0 0 0 0 0 0 0 127 0" result="hardAlpha"/>
<feOffset/>
<feGaussianBlur stdDeviation="31.5"/>
<feColorMatrix type="matrix" values="0 0 0 0 0.0196078 0 0 0 0 0.501961 0 0 0 0 0.905882 0 0 0 1 0"/>
<feBlend mode="normal" in2="effect3_dropShadow_1197_4609" result="effect4_dropShadow_1197_4609"/>
<feColorMatrix in="SourceAlpha" type="matrix" values="0 0 0 0 0 0 0 0 0 0 0 0 0 0 0 0 0 0 127 0" result="hardAlpha"/>
<feOffset/>
<feGaussianBlur stdDeviation="54"/>
<feColorMatrix type="matrix" values="0 0 0 0 0.0196078 0 0 0 0 0.501961 0 0 0 0 0.905882 0 0 0 1 0"/>
<feBlend mode="normal" in2="effect4_dropShadow_1197_4609" result="effect5_dropShadow_1197_4609"/>
<feColorMatrix in="SourceAlpha" type="matrix" values="0 0 0 0 0 0 0 0 0 0 0 0 0 0 0 0 0 0 127 0" result="hardAlpha"/>
<feOffset/>
<feGaussianBlur stdDeviation="94.5"/>
<feColorMatrix type="matrix" values="0 0 0 0 0.0196078 0 0 0 0 0.501961 0 0 0 0 0.905882 0 0 0 1 0"/>
<feBlend mode="normal" in2="effect5_dropShadow_1197_4609" result="effect6_dropShadow_1197_4609"/>
<feBlend mode="normal" in="SourceGraphic" in2="effect6_dropShadow_1197_4609" result="shape"/>
</filter>
<filter id="filter3_dddddd_1197_4609" x="205.831" y="186.229" width="19.5343" height="19.5421" filterUnits="userSpaceOnUse" color-interpolation-filters="sRGB">
<feFlood flood-opacity="0" result="BackgroundImageFix"/>
<feColorMatrix in="SourceAlpha" type="matrix" values="0 0 0 0 0 0 0 0 0 0 0 0 0 0 0 0 0 0 127 0" result="hardAlpha"/>
<feOffset/>
<feGaussianBlur stdDeviation="0.0925125"/>
<feColorMatrix type="matrix" values="0 0 0 0 0.85098 0 0 0 0 0.85098 0 0 0 0 0.85098 0 0 0 1 0"/>
<feBlend mode="normal" in2="BackgroundImageFix" result="effect1_dropShadow_1197_4609"/>
<feColorMatrix in="SourceAlpha" type="matrix" values="0 0 0 0 0 0 0 0 0 0 0 0 0 0 0 0 0 0 127 0" result="hardAlpha"/>
<feOffset/>
<feGaussianBlur stdDeviation="0.185025"/>
<feColorMatrix type="matrix" values="0 0 0 0 0.85098 0 0 0 0 0.85098 0 0 0 0 0.85098 0 0 0 1 0"/>
<feBlend mode="normal" in2="effect1_dropShadow_1197_4609" result="effect2_dropShadow_1197_4609"/>
<feColorMatrix in="SourceAlpha" type="matrix" values="0 0 0 0 0 0 0 0 0 0 0 0 0 0 0 0 0 0 127 0" result="hardAlpha"/>
<feOffset/>
<feGaussianBlur stdDeviation="0.647587"/>
<feColorMatrix type="matrix" values="0 0 0 0 0.85098 0 0 0 0 0.85098 0 0 0 0 0.85098 0 0 0 1 0"/>
<feBlend mode="normal" in2="effect2_dropShadow_1197_4609" result="effect3_dropShadow_1197_4609"/>
<feColorMatrix in="SourceAlpha" type="matrix" values="0 0 0 0 0 0 0 0 0 0 0 0 0 0 0 0 0 0 127 0" result="hardAlpha"/>
<feOffset/>
<feGaussianBlur stdDeviation="1.29517"/>
<feColorMatrix type="matrix" values="0 0 0 0 0.85098 0 0 0 0 0.85098 0 0 0 0 0.85098 0 0 0 1 0"/>
<feBlend mode="normal" in2="effect3_dropShadow_1197_4609" result="effect4_dropShadow_1197_4609"/>
<feColorMatrix in="SourceAlpha" type="matrix" values="0 0 0 0 0 0 0 0 0 0 0 0 0 0 0 0 0 0 127 0" result="hardAlpha"/>
<feOffset/>
<feGaussianBlur stdDeviation="2.2203"/>
<feColorMatrix type="matrix" values="0 0 0 0 0.85098 0 0 0 0 0.85098 0 0 0 0 0.85098 0 0 0 1 0"/>
<feBlend mode="normal" in2="effect4_dropShadow_1197_4609" result="effect5_dropShadow_1197_4609"/>
<feColorMatrix in="SourceAlpha" type="matrix" values="0 0 0 0 0 0 0 0 0 0 0 0 0 0 0 0 0 0 127 0" result="hardAlpha"/>
<feOffset/>
<feGaussianBlur stdDeviation="3.88552"/>
<feColorMatrix type="matrix" values="0 0 0 0 0.85098 0 0 0 0 0.85098 0 0 0 0 0.85098 0 0 0 1 0"/>
<feBlend mode="normal" in2="effect5_dropShadow_1197_4609" result="effect6_dropShadow_1197_4609"/>
<feBlend mode="normal" in="SourceGraphic" in2="effect6_dropShadow_1197_4609" result="shape"/>
</filter>
<filter id="filter4_dddddd_1197_4609" x="381.503" y="210.229" width="19.5343" height="19.5421" filterUnits="userSpaceOnUse" color-interpolation-filters="sRGB">
<feFlood flood-opacity="0" result="BackgroundImageFix"/>
<feColorMatrix in="SourceAlpha" type="matrix" values="0 0 0 0 0 0 0 0 0 0 0 0 0 0 0 0 0 0 127 0" result="hardAlpha"/>
<feOffset/>
<feGaussianBlur stdDeviation="0.0925125"/>
<feColorMatrix type="matrix" values="0 0 0 0 0.85098 0 0 0 0 0.85098 0 0 0 0 0.85098 0 0 0 1 0"/>
<feBlend mode="normal" in2="BackgroundImageFix" result="effect1_dropShadow_1197_4609"/>
<feColorMatrix in="SourceAlpha" type="matrix" values="0 0 0 0 0 0 0 0 0 0 0 0 0 0 0 0 0 0 127 0" result="hardAlpha"/>
<feOffset/>
<feGaussianBlur stdDeviation="0.185025"/>
<feColorMatrix type="matrix" values="0 0 0 0 0.85098 0 0 0 0 0.85098 0 0 0 0 0.85098 0 0 0 1 0"/>
<feBlend mode="normal" in2="effect1_dropShadow_1197_4609" result="effect2_dropShadow_1197_4609"/>
<feColorMatrix in="SourceAlpha" type="matrix" values="0 0 0 0 0 0 0 0 0 0 0 0 0 0 0 0 0 0 127 0" result="hardAlpha"/>
<feOffset/>
<feGaussianBlur stdDeviation="0.647587"/>
<feColorMatrix type="matrix" values="0 0 0 0 0.85098 0 0 0 0 0.85098 0 0 0 0 0.85098 0 0 0 1 0"/>
<feBlend mode="normal" in2="effect2_dropShadow_1197_4609" result="effect3_dropShadow_1197_4609"/>
<feColorMatrix in="SourceAlpha" type="matrix" values="0 0 0 0 0 0 0 0 0 0 0 0 0 0 0 0 0 0 127 0" result="hardAlpha"/>
<feOffset/>
<feGaussianBlur stdDeviation="1.29517"/>
<feColorMatrix type="matrix" values="0 0 0 0 0.85098 0 0 0 0 0.85098 0 0 0 0 0.85098 0 0 0 1 0"/>
<feBlend mode="normal" in2="effect3_dropShadow_1197_4609" result="effect4_dropShadow_1197_4609"/>
<feColorMatrix in="SourceAlpha" type="matrix" values="0 0 0 0 0 0 0 0 0 0 0 0 0 0 0 0 0 0 127 0" result="hardAlpha"/>
<feOffset/>
<feGaussianBlur stdDeviation="2.2203"/>
<feColorMatrix type="matrix" values="0 0 0 0 0.85098 0 0 0 0 0.85098 0 0 0 0 0.85098 0 0 0 1 0"/>
<feBlend mode="normal" in2="effect4_dropShadow_1197_4609" result="effect5_dropShadow_1197_4609"/>
<feColorMatrix in="SourceAlpha" type="matrix" values="0 0 0 0 0 0 0 0 0 0 0 0 0 0 0 0 0 0 127 0" result="hardAlpha"/>
<feOffset/>
<feGaussianBlur stdDeviation="3.88552"/>
<feColorMatrix type="matrix" values="0 0 0 0 0.85098 0 0 0 0 0.85098 0 0 0 0 0.85098 0 0 0 1 0"/>
<feBlend mode="normal" in2="effect5_dropShadow_1197_4609" result="effect6_dropShadow_1197_4609"/>
<feBlend mode="normal" in="SourceGraphic" in2="effect6_dropShadow_1197_4609" result="shape"/>
</filter>
<filter id="filter5_dddddd_1197_4609" x="255.738" y="168.229" width="19.5343" height="19.5421" filterUnits="userSpaceOnUse" color-interpolation-filters="sRGB">
<feFlood flood-opacity="0" result="BackgroundImageFix"/>
<feColorMatrix in="SourceAlpha" type="matrix" values="0 0 0 0 0 0 0 0 0 0 0 0 0 0 0 0 0 0 127 0" result="hardAlpha"/>
<feOffset/>
<feGaussianBlur stdDeviation="0.0925125"/>
<feColorMatrix type="matrix" values="0 0 0 0 0.85098 0 0 0 0 0.85098 0 0 0 0 0.85098 0 0 0 1 0"/>
<feBlend mode="normal" in2="BackgroundImageFix" result="effect1_dropShadow_1197_4609"/>
<feColorMatrix in="SourceAlpha" type="matrix" values="0 0 0 0 0 0 0 0 0 0 0 0 0 0 0 0 0 0 127 0" result="hardAlpha"/>
<feOffset/>
<feGaussianBlur stdDeviation="0.185025"/>
<feColorMatrix type="matrix" values="0 0 0 0 0.85098 0 0 0 0 0.85098 0 0 0 0 0.85098 0 0 0 1 0"/>
<feBlend mode="normal" in2="effect1_dropShadow_1197_4609" result="effect2_dropShadow_1197_4609"/>
<feColorMatrix in="SourceAlpha" type="matrix" values="0 0 0 0 0 0 0 0 0 0 0 0 0 0 0 0 0 0 127 0" result="hardAlpha"/>
<feOffset/>
<feGaussianBlur stdDeviation="0.647587"/>
<feColorMatrix type="matrix" values="0 0 0 0 0.85098 0 0 0 0 0.85098 0 0 0 0 0.85098 0 0 0 1 0"/>
<feBlend mode="normal" in2="effect2_dropShadow_1197_4609" result="effect3_dropShadow_1197_4609"/>
<feColorMatrix in="SourceAlpha" type="matrix" values="0 0 0 0 0 0 0 0 0 0 0 0 0 0 0 0 0 0 127 0" result="hardAlpha"/>
<feOffset/>
<feGaussianBlur stdDeviation="1.29517"/>
<feColorMatrix type="matrix" values="0 0 0 0 0.85098 0 0 0 0 0.85098 0 0 0 0 0.85098 0 0 0 1 0"/>
<feBlend mode="normal" in2="effect3_dropShadow_1197_4609" result="effect4_dropShadow_1197_4609"/>
<feColorMatrix in="SourceAlpha" type="matrix" values="0 0 0 0 0 0 0 0 0 0 0 0 0 0 0 0 0 0 127 0" result="hardAlpha"/>
<feOffset/>
<feGaussianBlur stdDeviation="2.2203"/>
<feColorMatrix type="matrix" values="0 0 0 0 0.85098 0 0 0 0 0.85098 0 0 0 0 0.85098 0 0 0 1 0"/>
<feBlend mode="normal" in2="effect4_dropShadow_1197_4609" result="effect5_dropShadow_1197_4609"/>
<feColorMatrix in="SourceAlpha" type="matrix" values="0 0 0 0 0 0 0 0 0 0 0 0 0 0 0 0 0 0 127 0" result="hardAlpha"/>
<feOffset/>
<feGaussianBlur stdDeviation="3.88552"/>
<feColorMatrix type="matrix" values="0 0 0 0 0.85098 0 0 0 0 0.85098 0 0 0 0 0.85098 0 0 0 1 0"/>
<feBlend mode="normal" in2="effect5_dropShadow_1197_4609" result="effect6_dropShadow_1197_4609"/>
<feBlend mode="normal" in="SourceGraphic" in2="effect6_dropShadow_1197_4609" result="shape"/>
</filter>
<linearGradient id="paint0_linear_1197_4609" x1="167.188" y1="-28" x2="248.836" y2="726.967" gradientUnits="userSpaceOnUse">
<stop stop-color="#121212"/>
<stop offset="1" stop-color="#272727"/>
</linearGradient>
<clipPath id="clip0_1197_4609">
<rect width="537" height="377" fill="white"/>
</clipPath>
</defs>
</svg>
