<svg width="537" height="377" viewBox="0 0 537 377" fill="none" xmlns="http://www.w3.org/2000/svg">
    <mask id="mask0_1197_2725" style="mask-type:luminance" maskUnits="userSpaceOnUse" x="0" y="0" width="537"
        height="377">
        <path
            d="M522.056 0H14.9443C6.69081 0 0 6.71573 0 15V362C0 370.284 6.69081 377 14.9443 377H522.056C530.309 377 537 370.284 537 362V15C537 6.71573 530.309 0 522.056 0Z"
            fill="white" />
    </mask>
    <g mask="url(#mask0_1197_2725)">
        <path
            d="M522.056 0H14.9443C6.69081 0 0 6.71573 0 15V362C0 370.284 6.69081 377 14.9443 377H522.056C530.309 377 537 370.284 537 362V15C537 6.71573 530.309 0 522.056 0Z"
            fill="#0E0E10" />
        <path
            d="M68.7436 322.695C48.0208 212.695 -58.4493 156.195 -109.094 141.695L-147.451 12.6954C-59.2796 1.19546 129.617 -12.9046 179.83 22.6954C242.596 67.1954 107.303 241.718 191.785 322.695C298.309 424.8 490.506 266.362 551.446 208.695V433.195C530.026 443.862 473.835 464.995 420.434 464.195L419.164 464.176C350.463 463.153 94.4858 459.339 68.7436 322.695Z"
            fill="url(#paint0_linear_1197_2725)" />
        <path
            d="M476.927 44H60.6732C54.6761 44 49.8145 48.8797 49.8145 54.8992V322.536C49.8145 328.555 54.6761 333.435 60.6732 333.435H476.927C482.925 333.435 487.786 328.555 487.786 322.536V54.8992C487.786 48.8797 482.925 44 476.927 44Z"
            fill="#1C1C1C" />
        <path
            d="M154.676 149.733H132.742C128.704 149.733 125.431 153.018 125.431 157.071V179.087C125.431 183.14 128.704 186.426 132.742 186.426H154.676C158.714 186.426 161.987 183.14 161.987 179.087V157.071C161.987 153.018 158.714 149.733 154.676 149.733Z"
            fill="#008CFF" />
        <path
            d="M216.77 149.733H194.836C190.798 149.733 187.524 153.018 187.524 157.071V179.087C187.524 183.14 190.798 186.426 194.836 186.426H216.77C220.808 186.426 224.081 183.14 224.081 179.087V157.071C224.081 153.018 220.808 149.733 216.77 149.733Z"
            fill="#008CFF" />
        <path
            d="M279.928 149.733H257.994C253.956 149.733 250.683 153.018 250.683 157.071V179.087C250.683 183.14 253.956 186.426 257.994 186.426H279.928C283.966 186.426 287.239 183.14 287.239 179.087V157.071C287.239 153.018 283.966 149.733 279.928 149.733Z"
            fill="#008CFF" />
        <path
            d="M342.021 149.733H320.087C316.049 149.733 312.775 153.018 312.775 157.071V179.087C312.775 183.14 316.049 186.426 320.087 186.426H342.021C346.059 186.426 349.332 183.14 349.332 179.087V157.071C349.332 153.018 346.059 149.733 342.021 149.733Z"
            fill="#008CFF" />
        <path
            d="M404.116 149.733H382.182C378.144 149.733 374.871 153.018 374.871 157.071V179.087C374.871 183.14 378.144 186.426 382.182 186.426H404.116C408.154 186.426 411.428 183.14 411.428 179.087V157.071C411.428 153.018 408.154 149.733 404.116 149.733Z"
            fill="#008CFF" />
        <path
            d="M85.0403 167.79C86.466 168.095 87.7016 169.202 87.7016 171.091C87.7016 173.304 85.8386 174.849 82.7021 174.849C79.5655 174.849 77.7217 173.304 77.7217 171.091C77.7217 169.24 78.9382 168.133 80.3639 167.809C79.1474 167.503 78.0828 166.435 78.0828 164.813C78.0828 162.733 79.8697 161.264 82.7021 161.264C85.5535 161.264 87.3405 162.733 87.3405 164.813C87.3405 166.378 86.2759 167.503 85.0403 167.79ZM82.7021 162.905C81.2003 162.905 80.2119 163.706 80.2119 164.87C80.2119 166.053 81.2003 166.855 82.7021 166.855C84.2229 166.855 85.2114 166.053 85.2114 164.87C85.2114 163.706 84.2229 162.905 82.7021 162.905ZM82.7021 173.228C84.3939 173.228 85.5535 172.274 85.5535 170.976C85.5535 169.679 84.3939 168.744 82.7021 168.744C81.0293 168.744 79.8697 169.679 79.8697 170.976C79.8697 172.274 81.0293 173.228 82.7021 173.228Z"
            fill="white" />
        <path
            d="M330.992 119.803C333.578 119.803 335.44 121.634 335.44 124.325C335.44 127.32 333.216 128.904 330.612 128.904C327.589 128.904 325.802 126.977 325.669 124.592H327.76C327.913 125.985 328.958 127.13 330.612 127.13C331.999 127.13 333.31 126.176 333.31 124.325C333.31 122.703 332.265 121.539 330.63 121.539C329.851 121.539 328.445 121.787 327.95 123.18L325.916 123.142L326.334 115.452H334.642V117.303H328.254L328.026 120.928C328.767 120.127 329.776 119.803 330.992 119.803Z"
            fill="white" />
        <path
            d="M326.013 162.732V161.378H328.086V174.734H325.976V165.575C325.785 165.69 325.5 165.747 325.139 165.747H322.972V163.934H325.044C325.728 163.934 326.013 163.438 326.013 162.732ZM329.736 174.734V173.036L334.849 168.666C336.047 167.655 336.941 166.72 336.941 165.442C336.941 163.915 335.933 163.076 334.412 163.076C332.892 163.076 331.866 164.106 331.866 165.766V165.995H329.755V165.652C329.755 163.114 331.58 161.263 334.412 161.263C337.397 161.263 339.07 162.904 339.07 165.346C339.07 167.331 337.872 168.571 336.256 169.926L332.72 172.883H339.164V174.734H329.736Z"
            fill="white" />
        <path
            d="M324.95 207.84V206.485H327.021V219.841H324.911V210.683C324.722 210.797 324.436 210.855 324.075 210.855H321.908V209.042H323.979C324.664 209.042 324.95 208.546 324.95 207.84ZM333.69 219.956C331.125 219.956 329.413 218.525 329.109 216.178H331.182C331.467 217.399 332.36 218.2 333.786 218.2C335.877 218.2 336.998 216.369 336.998 213.64C336.998 213.488 336.998 213.354 336.979 213.106C336.922 213.22 336.884 213.335 336.79 213.507C336.181 214.632 334.965 215.338 333.405 215.338C330.763 215.338 328.919 213.602 328.919 210.874C328.919 208.26 330.858 206.371 333.69 206.371C335.516 206.371 336.866 207.153 337.759 208.469C338.5 209.614 338.938 211.236 338.938 213.068C338.938 217.361 337.017 219.956 333.69 219.956ZM333.671 213.621C335.287 213.621 336.409 212.476 336.409 210.835C336.409 209.233 335.325 208.107 333.71 208.107C332.094 208.107 331.029 209.271 331.029 210.874C331.029 212.457 332.036 213.621 333.671 213.621Z"
            fill="white" />
        <path
            d="M320.083 265.341V263.643L325.197 259.273C326.394 258.262 327.288 257.327 327.288 256.049C327.288 254.522 326.28 253.683 324.76 253.683C323.239 253.683 322.212 254.713 322.212 256.373V256.602H320.102V256.259C320.102 253.721 321.927 251.87 324.76 251.87C327.744 251.87 329.417 253.511 329.417 255.953C329.417 257.938 328.22 259.178 326.604 260.533L323.068 263.49H329.512V265.341H320.083ZM331.924 263.299C331.202 262.135 330.802 260.552 330.802 258.758C330.802 254.427 332.779 251.87 336.049 251.87C338.482 251.87 340.269 253.301 340.592 255.648H338.501C338.234 254.408 337.323 253.626 335.916 253.626C333.863 253.626 332.722 255.419 332.722 258.186V258.701C332.76 258.625 332.799 258.51 332.874 258.377C333.463 257.213 334.718 256.449 336.315 256.449C338.977 256.449 340.801 258.243 340.801 260.952C340.801 263.585 338.881 265.455 336.03 265.455C334.185 265.455 332.799 264.654 331.924 263.299ZM338.71 260.952C338.71 259.35 337.683 258.186 336.067 258.186C334.433 258.186 333.331 259.331 333.331 260.971C333.331 262.574 334.414 263.719 336.011 263.719C337.646 263.719 338.71 262.555 338.71 260.952Z"
            fill="white" />
        <path
            d="M389.628 126.767C388.905 125.603 388.506 124.019 388.506 122.226C388.506 117.895 390.482 115.338 393.752 115.338C396.186 115.338 397.973 116.769 398.295 119.116H396.205C395.938 117.876 395.027 117.093 393.62 117.093C391.566 117.093 390.426 118.887 390.426 121.654V122.169C390.464 122.092 390.502 121.978 390.578 121.844C391.167 120.68 392.422 119.917 394.018 119.917C396.68 119.917 398.505 121.711 398.505 124.42C398.505 127.053 396.585 128.923 393.733 128.923C391.889 128.923 390.502 128.122 389.628 126.767ZM396.413 124.42C396.413 122.817 395.387 121.654 393.771 121.654C392.136 121.654 391.034 122.798 391.034 124.439C391.034 126.042 392.117 127.187 393.714 127.187C395.349 127.187 396.413 126.023 396.413 124.42Z"
            fill="white" />
        <path
            d="M387.726 162.732V161.378H389.799V174.734H387.688V165.575C387.498 165.69 387.213 165.747 386.852 165.747H384.685V163.934H386.757C387.441 163.934 387.726 163.438 387.726 162.732ZM398.749 167.789C400.079 168.037 401.297 168.991 401.297 170.994C401.297 173.284 399.357 174.848 396.354 174.848C393.35 174.848 391.43 173.265 391.43 170.517H393.522C393.541 172.158 394.776 173.093 396.468 173.093C397.969 173.093 399.148 172.234 399.148 170.861C399.148 169.62 398.159 168.819 396.335 168.819H395.118V167.064H396.221C397.969 167.064 398.844 166.186 398.844 164.965C398.844 163.744 397.761 163.019 396.373 163.019C394.89 163.019 393.769 163.934 393.75 165.327H391.678C391.715 162.923 393.616 161.263 396.373 161.263C399.224 161.263 400.973 162.694 400.973 164.831C400.973 166.472 400.022 167.445 398.749 167.789Z"
            fill="white" />
        <path
            d="M381.799 219.841V218.143L386.912 213.774C388.109 212.763 389.003 211.828 389.003 210.549C389.003 209.023 387.996 208.183 386.474 208.183C384.954 208.183 383.928 209.214 383.928 210.874V211.103H381.818V210.759C381.818 208.221 383.642 206.371 386.474 206.371C389.459 206.371 391.132 208.012 391.132 210.454C391.132 212.438 389.935 213.678 388.319 215.033L384.783 217.991H391.227V219.841H381.799ZM392.517 213.469V212.858C392.517 208.985 394.665 206.371 397.764 206.371C400.844 206.371 402.992 208.985 402.992 212.858V213.469C402.992 217.494 400.844 219.956 397.764 219.956C394.665 219.956 392.517 217.494 392.517 213.469ZM400.882 213.392V212.934C400.882 209.958 399.626 208.221 397.764 208.221C395.882 208.221 394.627 209.958 394.627 212.934V213.392C394.627 216.388 395.882 218.105 397.764 218.105C399.626 218.105 400.882 216.388 400.882 213.392Z"
            fill="white" />
        <path
            d="M382.862 265.341V263.643L387.975 259.273C389.174 258.262 390.066 257.327 390.066 256.049C390.066 254.522 389.059 253.683 387.539 253.683C386.018 253.683 384.991 254.713 384.991 256.373V256.602H382.881V256.259C382.881 253.721 384.706 251.87 387.539 251.87C390.523 251.87 392.196 253.511 392.196 255.953C392.196 257.938 390.998 259.178 389.382 260.533L385.847 263.49H392.291V265.341H382.862ZM392.955 253.835V251.985H402.497V253.397L396.262 265.341H394L400.198 253.835H392.955Z"
            fill="white" />
        <path d="M449.63 117.303V115.452H459.172V116.864L452.938 128.809H450.675L456.873 117.303H449.63Z"
            fill="white" />
        <path
            d="M449.443 162.732V161.378H451.514V174.734H449.404V165.575C449.215 165.69 448.929 165.747 448.568 165.747H446.401V163.934H448.473C449.157 163.934 449.443 163.438 449.443 162.732ZM452.975 171.643V169.849L459.382 161.378H461.853V169.811H463.867V171.643H461.853V174.734H459.781V171.643H452.975ZM459.781 163.686L455.143 169.811H459.781V163.686Z"
            fill="white" />
        <path
            d="M444.576 265.341V263.643L449.69 259.273C450.888 258.262 451.781 257.327 451.781 256.049C451.781 254.522 450.773 253.683 449.253 253.683C447.732 253.683 446.705 254.713 446.705 256.373V256.602H444.595V256.259C444.595 253.721 446.42 251.87 449.253 251.87C452.238 251.87 453.91 253.511 453.91 255.953C453.91 257.938 452.713 259.178 451.097 260.533L447.561 263.49H454.005V265.341H444.576ZM462.464 258.396C463.889 258.701 465.125 259.808 465.125 261.696C465.125 263.91 463.263 265.455 460.125 265.455C456.989 265.455 455.145 263.91 455.145 261.696C455.145 259.846 456.361 258.739 457.787 258.415C456.571 258.109 455.506 257.041 455.506 255.419C455.506 253.339 457.293 251.87 460.125 251.87C462.977 251.87 464.764 253.339 464.764 255.419C464.764 256.984 463.699 258.109 462.464 258.396ZM460.125 253.511C458.624 253.511 457.636 254.312 457.636 255.476C457.636 256.659 458.624 257.461 460.125 257.461C461.647 257.461 462.635 256.659 462.635 255.476C462.635 254.312 461.647 253.511 460.125 253.511ZM460.125 263.833C461.817 263.833 462.977 262.879 462.977 261.582C462.977 260.285 461.817 259.35 460.125 259.35C458.452 259.35 457.293 260.285 457.293 261.582C457.293 262.879 458.452 263.833 460.125 263.833Z"
            fill="white" />
        <path
            d="M446.705 219.841V218.143L451.819 213.774C453.017 212.763 453.909 211.828 453.909 210.549C453.909 209.023 452.902 208.183 451.382 208.183C449.86 208.183 448.834 209.214 448.834 210.874V211.103H446.724V210.759C446.724 208.221 448.549 206.371 451.382 206.371C454.366 206.371 456.038 208.012 456.038 210.454C456.038 212.438 454.841 213.678 453.226 215.033L449.69 217.991H456.134V219.841H446.705ZM459.838 207.84V206.485H461.91V219.841H459.8V210.683C459.61 210.797 459.325 210.855 458.963 210.855H456.796V209.042H458.869C459.553 209.042 459.838 208.546 459.838 207.84Z"
            fill="white" />
        <path
            d="M82.3383 116.807V115.452H84.4104V128.809H82.3004V119.65C82.1103 119.765 81.8252 119.822 81.4639 119.822H79.2969V118.009H81.3689C82.0532 118.009 82.3383 117.513 82.3383 116.807Z"
            fill="white" />
        <path
            d="M77.019 207.84V206.485H79.091V219.841H76.981V210.683C76.7909 210.797 76.5057 210.855 76.1446 210.855H73.9775V209.042H76.0495C76.7339 209.042 77.019 208.546 77.019 207.84ZM86.3306 210.835C88.9159 210.835 90.7789 212.667 90.7789 215.357C90.7789 218.353 88.5547 219.937 85.9504 219.937C82.928 219.937 81.1411 218.01 81.0081 215.625H83.0991C83.2511 217.017 84.2966 218.162 85.9504 218.162C87.3382 218.162 88.6498 217.208 88.6498 215.357C88.6498 213.736 87.6043 212.572 85.9695 212.572C85.1901 212.572 83.7834 212.82 83.2892 214.213L81.2551 214.174L81.6734 206.485H89.9804V208.336H83.5933L83.3652 211.961C84.1065 211.16 85.1141 210.835 86.3306 210.835Z"
            fill="white" />
        <path
            d="M72.1523 310.84V309.142L77.2659 304.773C78.4635 303.762 79.3569 302.827 79.3569 301.548C79.3569 300.022 78.3495 299.182 76.8287 299.182C75.3079 299.182 74.2814 300.213 74.2814 301.873V302.102H72.1714V301.758C72.1714 299.22 73.9963 297.37 76.8287 297.37C79.8132 297.37 81.486 299.011 81.486 301.453C81.486 303.437 80.2884 304.677 78.6726 306.032L75.1368 308.99H81.581V310.84H72.1523ZM87.5666 310.955C85.0004 310.955 83.2896 309.524 82.9854 307.177H85.0574C85.3425 308.398 86.236 309.199 87.6617 309.199C89.7527 309.199 90.8743 307.368 90.8743 304.639C90.8743 304.487 90.8743 304.353 90.8553 304.105C90.7983 304.219 90.7602 304.334 90.6652 304.506C90.0569 305.631 88.8403 306.337 87.2815 306.337C84.6392 306.337 82.7953 304.601 82.7953 301.873C82.7953 299.259 84.7343 297.37 87.5666 297.37C89.3915 297.37 90.7412 298.152 91.6347 299.469C92.376 300.613 92.8133 302.235 92.8133 304.067C92.8133 308.36 90.8933 310.955 87.5666 310.955ZM87.5476 304.62C89.1635 304.62 90.285 303.475 90.285 301.834C90.285 300.232 89.2014 299.106 87.5857 299.106C85.9699 299.106 84.9053 300.27 84.9053 301.873C84.9053 303.456 85.9128 304.62 87.5476 304.62Z"
            fill="white" />
        <path
            d="M72.1523 265.341V263.643L77.2659 259.273C78.4635 258.262 79.3569 257.327 79.3569 256.049C79.3569 254.522 78.3495 253.683 76.8287 253.683C75.3079 253.683 74.2814 254.713 74.2814 256.373V256.602H72.1714V256.259C72.1714 253.721 73.9963 251.87 76.8287 251.87C79.8132 251.87 81.486 253.511 81.486 255.953C81.486 257.938 80.2884 259.178 78.6726 260.533L75.1368 263.49H81.581V265.341H72.1523ZM82.5481 265.341V263.643L87.6617 259.273C88.8593 258.262 89.7527 257.327 89.7527 256.049C89.7527 254.522 88.7452 253.683 87.2245 253.683C85.7037 253.683 84.6772 254.713 84.6772 256.373V256.602H82.5672V256.259C82.5672 253.721 84.3921 251.87 87.2245 251.87C90.209 251.87 91.8818 253.511 91.8818 255.953C91.8818 257.938 90.6842 259.178 89.0684 260.533L85.5326 263.49H91.9768V265.341H82.5481Z"
            fill="white" />
        <path
            d="M140.252 128.809V127.11L145.366 122.741C146.563 121.73 147.457 120.795 147.457 119.517C147.457 117.99 146.449 117.151 144.929 117.151C143.408 117.151 142.381 118.181 142.381 119.841V120.07H140.271V119.726C140.271 117.189 142.096 115.338 144.929 115.338C147.913 115.338 149.586 116.979 149.586 119.421C149.586 121.405 148.389 122.646 146.773 124L143.237 126.958H149.681V128.809H140.252Z"
            fill="white" />
        <path
            d="M144.207 174.848C141.64 174.848 139.93 173.417 139.626 171.07H141.697C141.983 172.292 142.876 173.093 144.301 173.093C146.393 173.093 147.514 171.261 147.514 168.533C147.514 168.38 147.514 168.247 147.496 167.999C147.439 168.113 147.401 168.228 147.305 168.399C146.698 169.525 145.48 170.231 143.922 170.231C141.28 170.231 139.436 168.495 139.436 165.766C139.436 163.152 141.374 161.263 144.207 161.263C146.032 161.263 147.381 162.046 148.275 163.362C149.016 164.507 149.453 166.129 149.453 167.96C149.453 172.253 147.533 174.848 144.207 174.848ZM144.188 168.514C145.804 168.514 146.926 167.369 146.926 165.728C146.926 164.125 145.842 163 144.226 163C142.61 163 141.546 164.163 141.546 165.766C141.546 167.35 142.553 168.514 144.188 168.514Z"
            fill="white" />
        <path
            d="M138.734 207.84V206.485H140.806V219.841H138.696V210.683C138.506 210.797 138.221 210.855 137.86 210.855H135.692V209.042H137.765C138.449 209.042 138.734 208.546 138.734 207.84ZM143.902 217.8C143.18 216.636 142.78 215.052 142.78 213.259C142.78 208.927 144.758 206.371 148.027 206.371C150.46 206.371 152.247 207.802 152.571 210.149H150.479C150.213 208.908 149.301 208.126 147.894 208.126C145.841 208.126 144.701 209.92 144.701 212.686V213.201C144.739 213.125 144.777 213.011 144.852 212.877C145.442 211.713 146.696 210.95 148.293 210.95C150.955 210.95 152.78 212.743 152.78 215.453C152.78 218.086 150.86 219.956 148.008 219.956C146.164 219.956 144.777 219.154 143.902 217.8ZM150.689 215.453C150.689 213.85 149.661 212.686 148.046 212.686C146.411 212.686 145.309 213.831 145.309 215.472C145.309 217.075 146.393 218.219 147.989 218.219C149.623 218.219 150.689 217.056 150.689 215.453Z"
            fill="white" />
        <path
            d="M141.168 303.895C142.498 304.143 143.716 305.097 143.716 307.101C143.716 309.39 141.776 310.955 138.773 310.955C135.769 310.955 133.85 309.371 133.85 306.624H135.941C135.96 308.264 137.195 309.199 138.887 309.199C140.389 309.199 141.568 308.341 141.568 306.967C141.568 305.727 140.579 304.925 138.754 304.925H137.538V303.17H138.64C140.389 303.17 141.263 302.292 141.263 301.071C141.263 299.85 140.18 299.125 138.792 299.125C137.31 299.125 136.188 300.041 136.169 301.434H134.097C134.135 299.03 136.035 297.37 138.792 297.37C141.644 297.37 143.392 298.801 143.392 300.938C143.392 302.579 142.442 303.552 141.168 303.895ZM145.163 304.468V303.857C145.163 299.984 147.311 297.37 150.41 297.37C153.489 297.37 155.637 299.984 155.637 303.857V304.468C155.637 308.493 153.489 310.955 150.41 310.955C147.311 310.955 145.163 308.493 145.163 304.468ZM153.527 304.391V303.933C153.527 300.957 152.273 299.22 150.41 299.22C148.528 299.22 147.273 300.957 147.273 303.933V304.391C147.273 307.387 148.528 309.104 150.41 309.104C152.273 309.104 153.527 307.387 153.527 304.391Z"
            fill="white" />
        <path
            d="M133.868 265.341V263.643L138.982 259.273C140.18 258.262 141.072 257.327 141.072 256.049C141.072 254.522 140.065 253.683 138.545 253.683C137.023 253.683 135.997 254.713 135.997 256.373V256.602H133.887V256.259C133.887 253.721 135.712 251.87 138.545 251.87C141.529 251.87 143.201 253.511 143.201 255.953C143.201 257.938 142.004 259.178 140.389 260.533L136.853 263.49H143.297V265.341H133.868ZM151.563 258.396C152.894 258.644 154.111 259.598 154.111 261.601C154.111 263.891 152.172 265.455 149.168 265.455C146.165 265.455 144.245 263.872 144.245 261.124H146.336C146.355 262.765 147.591 263.7 149.283 263.7C150.784 263.7 151.963 262.841 151.963 261.468C151.963 260.227 150.974 259.426 149.149 259.426H147.933V257.671H149.036C150.784 257.671 151.659 256.793 151.659 255.572C151.659 254.351 150.575 253.626 149.187 253.626C147.705 253.626 146.583 254.541 146.564 255.934H144.493C144.53 253.53 146.431 251.87 149.187 251.87C152.038 251.87 153.788 253.301 153.788 255.438C153.788 257.079 152.838 258.052 151.563 258.396Z"
            fill="white" />
        <path
            d="M209.269 121.863C210.6 122.111 211.816 123.065 211.816 125.069C211.816 127.358 209.878 128.923 206.874 128.923C203.871 128.923 201.95 127.339 201.95 124.592H204.041C204.06 126.233 205.297 127.168 206.988 127.168C208.49 127.168 209.668 126.309 209.668 124.935C209.668 123.695 208.68 122.894 206.855 122.894H205.638V121.138H206.741C208.49 121.138 209.365 120.261 209.365 119.04C209.365 117.818 208.281 117.093 206.893 117.093C205.41 117.093 204.288 118.009 204.27 119.402H202.197C202.236 116.998 204.137 115.338 206.893 115.338C209.744 115.338 211.494 116.769 211.494 118.906C211.494 120.547 210.543 121.52 209.269 121.863Z"
            fill="white" />
        <path
            d="M200.452 162.732V161.378H202.523V174.734H200.413V165.575C200.224 165.69 199.938 165.747 199.577 165.747H197.41V163.934H199.481C200.166 163.934 200.452 163.438 200.452 162.732ZM204.498 168.361V167.751C204.498 163.877 206.646 161.263 209.744 161.263C212.824 161.263 214.972 163.877 214.972 167.751V168.361C214.972 172.387 212.824 174.848 209.744 174.848C206.646 174.848 204.498 172.387 204.498 168.361ZM212.862 168.285V167.827C212.862 164.85 211.607 163.114 209.744 163.114C207.862 163.114 206.608 164.85 206.608 167.827V168.285C206.608 171.28 207.862 172.998 209.744 172.998C211.607 172.998 212.862 171.28 212.862 168.285Z"
            fill="white" />
        <path
            d="M201.516 207.84V206.485H203.589V219.841H201.478V210.683C201.288 210.797 201.003 210.855 200.642 210.855H198.475V209.042H200.547C201.231 209.042 201.516 208.546 201.516 207.84ZM204.973 208.336V206.485H214.516V207.897L208.281 219.841H206.019L212.215 208.336H204.973Z"
            fill="white" />
        <path
            d="M206.079 303.895C207.41 304.143 208.626 305.097 208.626 307.101C208.626 309.39 206.687 310.955 203.683 310.955C200.68 310.955 198.76 309.371 198.76 306.624H200.851C200.87 308.264 202.105 309.199 203.798 309.199C205.299 309.199 206.478 308.341 206.478 306.967C206.478 305.727 205.49 304.925 203.665 304.925H202.448V303.17H203.551C205.299 303.17 206.174 302.292 206.174 301.071C206.174 299.85 205.09 299.125 203.702 299.125C202.22 299.125 201.098 300.041 201.079 301.434H199.007C199.045 299.03 200.947 297.37 203.702 297.37C206.554 297.37 208.303 298.801 208.303 300.938C208.303 302.579 207.353 303.552 206.079 303.895ZM212.488 298.839V297.484H214.56V310.84H212.45V301.682C212.259 301.796 211.975 301.854 211.613 301.854H209.446V300.041H211.518C212.203 300.041 212.488 299.545 212.488 298.839Z"
            fill="white" />
        <path
            d="M196.65 265.341V263.643L201.763 259.273C202.961 258.262 203.855 257.327 203.855 256.049C203.855 254.522 202.847 253.683 201.326 253.683C199.806 253.683 198.779 254.713 198.779 256.373V256.602H196.669V256.259C196.669 253.721 198.494 251.87 201.326 251.87C204.311 251.87 205.984 253.511 205.984 255.953C205.984 257.938 204.786 259.178 203.17 260.533L199.634 263.49H206.078V265.341H196.65ZM206.651 262.25V260.456L213.057 251.985H215.529V260.418H217.544V262.25H215.529V265.341H213.457V262.25H206.651ZM213.457 254.293L208.819 260.418H213.457V254.293Z"
            fill="white" />
        <path
            d="M263.497 125.718V123.924L269.903 115.452H272.374V123.886H274.389V125.718H272.374V128.809H270.303V125.718H263.497ZM270.303 117.761L265.664 123.886H270.303V117.761Z"
            fill="white" />
        <path
            d="M265.36 162.732V161.378H267.432V174.734H265.322V165.575C265.132 165.69 264.847 165.747 264.485 165.747H262.318V163.934H264.391C265.075 163.934 265.36 163.438 265.36 162.732ZM271.82 162.732V161.378H273.892V174.734H271.782V165.575C271.592 165.69 271.307 165.747 270.946 165.747H268.778V163.934H270.851C271.535 163.934 271.82 163.438 271.82 162.732Z"
            fill="white" />
        <path
            d="M263.233 207.84V206.485H265.305V219.841H263.195V210.683C263.005 210.797 262.72 210.855 262.359 210.855H260.191V209.042H262.264C262.948 209.042 263.233 208.546 263.233 207.84ZM274.522 212.896C275.948 213.201 277.183 214.308 277.183 216.197C277.183 218.41 275.32 219.956 272.184 219.956C269.047 219.956 267.203 218.41 267.203 216.197C267.203 214.346 268.42 213.24 269.845 212.915C268.629 212.61 267.565 211.541 267.565 209.92C267.565 207.84 269.351 206.371 272.184 206.371C275.035 206.371 276.822 207.84 276.822 209.92C276.822 211.484 275.757 212.61 274.522 212.896ZM272.184 208.012C270.682 208.012 269.693 208.813 269.693 209.977C269.693 211.16 270.682 211.961 272.184 211.961C273.704 211.961 274.693 211.16 274.693 209.977C274.693 208.813 273.704 208.012 272.184 208.012ZM272.184 218.334C273.875 218.334 275.035 217.38 275.035 216.083C275.035 214.785 273.875 213.85 272.184 213.85C270.511 213.85 269.351 214.785 269.351 216.083C269.351 217.38 270.511 218.334 272.184 218.334Z"
            fill="white" />
        <path
            d="M258.367 265.341V263.643L263.481 259.273C264.679 258.262 265.571 257.327 265.571 256.049C265.571 254.522 264.564 253.683 263.044 253.683C261.522 253.683 260.496 254.713 260.496 256.373V256.602H258.386V256.259C258.386 253.721 260.211 251.87 263.044 251.87C266.028 251.87 267.7 253.511 267.7 255.953C267.7 257.938 266.503 259.178 264.887 260.533L261.352 263.49H267.796V265.341H258.367ZM274.352 256.335C276.937 256.335 278.8 258.167 278.8 260.857C278.8 263.853 276.575 265.436 273.971 265.436C270.949 265.436 269.162 263.509 269.03 261.124H271.12C271.272 262.517 272.317 263.662 273.971 263.662C275.359 263.662 276.671 262.708 276.671 260.857C276.671 259.235 275.625 258.071 273.99 258.071C273.211 258.071 271.804 258.319 271.31 259.712L269.277 259.674L269.694 251.985H278.001V253.835H271.614L271.387 257.461C272.128 256.659 273.135 256.335 274.352 256.335Z"
            fill="white" />
        <path
            d="M465.208 59.8159H70.3963C66.3584 59.8159 63.085 63.1015 63.085 67.1545V75.9608C63.085 80.0137 66.3584 83.2993 70.3963 83.2993H465.208C469.246 83.2993 472.519 80.0137 472.519 75.9608V67.1545C472.519 63.1015 469.246 59.8159 465.208 59.8159Z"
            fill="#008CFF" />
        <path
            d="M76.3419 76.5444H74.7627V69.0298H81.5037V76.5444H79.9245V70.4241H76.3419V76.5444ZM88.3673 72.0386V69.0298H89.9465V76.5444H88.3673V73.4329H84.6385V76.5444H83.0593V69.0298H84.6385V72.0386H88.3673Z"
            fill="white" />
        <path
            d="M140.862 76.5444H137.542V69.0298H140.803C142.748 69.0298 143.713 69.7489 143.713 71.0258C143.713 72.0239 143.099 72.5082 142.397 72.655C143.347 72.8018 143.976 73.3301 143.976 74.3869C143.976 75.8399 142.923 76.5444 140.862 76.5444ZM139.092 70.2333V72.1707H140.847C141.724 72.1707 142.119 71.8037 142.119 71.202C142.119 70.5562 141.724 70.2333 140.847 70.2333H139.092ZM139.092 73.3155V75.3409H140.993C141.885 75.3409 142.382 75.018 142.382 74.3429C142.382 73.6824 141.885 73.3155 140.993 73.3155H139.092ZM148.52 76.5444H146.94V70.4241H144.396V69.0298H151.064V70.4241H148.52V76.5444Z"
            fill="white" />
        <path
            d="M201.632 76.6327C199.366 76.6327 197.918 75.1503 197.918 72.802C197.918 70.483 199.409 68.9419 201.676 68.9419C203.607 68.9419 204.805 70.0133 205.112 71.7159H203.46C203.255 70.8352 202.626 70.2922 201.647 70.2922C200.375 70.2922 199.541 71.3196 199.541 72.802C199.541 74.2697 200.375 75.2824 201.647 75.2824C202.612 75.2824 203.255 74.7247 203.445 73.8587H205.112C204.82 75.5613 203.548 76.6327 201.632 76.6327ZM210.328 68.9419C212.375 68.9419 213.867 70.3802 213.867 72.7873C213.867 75.1063 212.375 76.6327 210.328 76.6327C209.173 76.6327 208.368 76.163 207.901 75.4879V79.4801H206.322V69.03H207.696L207.886 70.1454C208.383 69.4849 209.158 68.9419 210.328 68.9419ZM210.065 75.2971C211.381 75.2971 212.259 74.255 212.259 72.7873C212.259 71.3049 211.381 70.2922 210.065 70.2922C208.749 70.2922 207.886 71.3049 207.886 72.7579C207.886 74.255 208.749 75.2971 210.065 75.2971Z"
            fill="white" />
        <path
            d="M265.564 72.3761V69.0298H267.158V76.5444H265.564V73.7118C265.023 74.02 264.307 74.1814 263.606 74.1814C261.749 74.1814 260.637 73.3889 260.637 71.3487V69.0298H262.216V71.1433C262.216 72.3761 262.772 72.8164 263.971 72.8164C264.585 72.8164 265.126 72.6844 265.564 72.3761ZM272.237 76.5444H270.657V70.4241H268.113V69.0298H274.781V70.4241H272.237V76.5444Z"
            fill="white" />
        <path
            d="M323.206 76.5444H321.627V69.0298H328.368V76.5444H326.789V70.4241H323.206V76.5444ZM333.461 76.5444H331.882V70.4241H329.337V69.0298H336.005V70.4241H333.461V76.5444Z"
            fill="white" />
        <path
            d="M386.779 76.6327C384.512 76.6327 383.064 75.1503 383.064 72.802C383.064 70.483 384.556 68.9419 386.822 68.9419C388.753 68.9419 389.952 70.0133 390.259 71.7159H388.607C388.402 70.8352 387.773 70.2922 386.794 70.2922C385.521 70.2922 384.687 71.3196 384.687 72.802C384.687 74.2697 385.521 75.2824 386.794 75.2824C387.759 75.2824 388.402 74.7247 388.592 73.8587H390.259C389.967 75.5613 388.694 76.6327 386.779 76.6327ZM395.402 69.5877C397.346 69.5877 398.779 70.8939 398.779 73.0368C398.779 75.1063 397.331 76.6327 394.992 76.6327C392.696 76.6327 391.263 75.2677 391.263 72.3029C391.263 68.4429 392.257 66.9164 395.548 66.5055L398.15 66.1826V67.6063L395.913 67.8851C393.617 68.1787 392.96 68.7364 392.711 70.7325C393.238 70.0427 394.158 69.5877 395.402 69.5877ZM395.021 75.3558C396.293 75.3558 397.171 74.4165 397.171 73.1102C397.171 71.8186 396.308 70.8793 395.051 70.8793C393.735 70.8793 392.872 71.8039 392.872 72.9928C392.872 74.4605 393.764 75.3558 395.021 75.3558Z"
            fill="white" />
        <path
            d="M449.441 76.5446H446.122V69.03H449.383C451.328 69.03 452.292 69.7491 452.292 71.026C452.292 72.0241 451.678 72.5084 450.977 72.6552C451.927 72.802 452.556 73.3303 452.556 74.3871C452.556 75.8401 451.503 76.5446 449.441 76.5446ZM447.672 70.2335V72.1709H449.427C450.304 72.1709 450.699 71.8039 450.699 71.2022C450.699 70.5564 450.304 70.2335 449.427 70.2335H447.672ZM447.672 73.3157V75.3411H449.573C450.465 75.3411 450.962 75.0182 450.962 74.3431C450.962 73.6826 450.465 73.3157 449.573 73.3157H447.672ZM457.255 76.6327C454.988 76.6327 453.54 75.1503 453.54 72.802C453.54 70.483 455.032 68.9419 457.298 68.9419C459.229 68.9419 460.428 70.0133 460.736 71.7159H459.083C458.879 70.8352 458.249 70.2922 457.27 70.2922C455.997 70.2922 455.164 71.3196 455.164 72.802C455.164 74.2697 455.997 75.2824 457.27 75.2824C458.235 75.2824 458.879 74.7247 459.068 73.8587H460.736C460.443 75.5613 459.17 76.6327 457.255 76.6327Z"
            fill="white" />
    </g>
    <defs>
        <linearGradient id="paint0_linear_1197_2725" x1="201.997" y1="2.46757e-05" x2="201.997" y2="464.218"
            gradientUnits="userSpaceOnUse">
            <stop stop-color="#121212" />
            <stop offset="1" stop-color="#161616" />
        </linearGradient>
    </defs>
</svg>
