<svg viewBox="0 0 836 367" fill="none" xmlns="http://www.w3.org/2000/svg">
    <g clip-path="url(#clip0_1197_2586)">
        <mask id="mask0_1197_2586" style="mask-type:luminance" maskUnits="userSpaceOnUse" x="0" y="0" width="836"
            height="367">
            <path
                d="M821 0H15C6.71573 0 0 6.53759 0 14.6021V352.398C0 360.462 6.71573 367 15 367H821C829.284 367 836 360.462 836 352.398V14.6021C836 6.53759 829.284 0 821 0Z"
                fill="white" />
        </mask>
        <g mask="url(#mask0_1197_2586)">
            <path
                d="M821 375.762H14C5.71573 375.762 -1 369.224 -1 361.16V14.6026C-1 6.53812 5.71573 0.000518799 14 0.000518799H821C829.284 0.000518799 836 6.53812 836 14.6026V361.16C836 369.224 829.284 375.762 821 375.762Z"
                fill="#0E0E10" />
            <path
                d="M427 -49.1027C320.6 140.53 44.6667 193.779 -80 196.7V508.211H131C153.333 445.747 229.6 290.737 356 170.416C482.4 50.0938 830.667 94.322 989 131.477V-49.1027C846 -128.117 533.4 -238.736 427 -49.1027Z"
                fill="url(#paint0_linear_1197_2586)" />
            <path
                d="M432.905 332.404C432.274 333.016 432.72 334.067 433.611 334.067H509.806C510.655 334.067 511.118 333.103 510.574 332.469L503.467 324.187C503.277 323.965 502.996 323.837 502.7 323.837H442.139C441.874 323.837 441.62 323.94 441.433 324.122L432.905 332.404Z"
                fill="#282828" />
            <path
                d="M620.784 305.083L654.137 342.59L650.582 351.799C649.553 354.465 646.934 356.23 644.009 356.23H299.129C296.203 356.23 293.585 354.465 292.556 351.799L289 342.59L322.354 305.083M289 342.59H654.137M322.354 305.083L320.662 122.741C320.627 118.942 323.781 115.844 327.684 115.844H613.762C617.64 115.844 620.784 118.904 620.784 122.679V305.083M322.354 305.083H620.784M606.74 286.314V134.613C606.74 130.838 603.596 127.778 599.718 127.778H343.42C339.541 127.778 336.398 130.838 336.398 134.613V286.314C336.398 290.089 339.541 293.149 343.42 293.149H599.718C603.596 293.149 606.74 290.089 606.74 286.314ZM442.139 323.837H502.7C502.996 323.837 503.277 323.965 503.467 324.187L510.574 332.469C511.118 333.103 510.655 334.067 509.806 334.067H433.611C432.72 334.067 432.274 333.016 432.905 332.404L441.433 324.122C441.62 323.94 441.874 323.837 442.139 323.837Z"
                stroke="#999999" stroke-opacity="0.2" />
            <mask id="mask1_1197_2586" style="mask-type:luminance" maskUnits="userSpaceOnUse" x="336" y="125"
                width="270" height="162">
                <path
                    d="M598.848 125.382H343.162C339.527 125.382 336.58 128.252 336.58 131.79V279.671C336.58 283.21 339.527 286.079 343.162 286.079H598.848C602.483 286.079 605.43 283.21 605.43 279.671V131.79C605.43 128.252 602.483 125.382 598.848 125.382Z"
                    fill="white" />
                <path
                    d="M343.162 125.869H598.849C602.207 125.87 604.931 128.52 604.931 131.79V279.672C604.931 282.942 602.207 285.592 598.849 285.593H343.162C339.803 285.593 337.08 282.942 337.08 279.672V131.79C337.08 128.52 339.803 125.869 343.162 125.869Z"
                    stroke="white" />
            </mask>
            <g mask="url(#mask1_1197_2586)">
                <path
                    d="M598.849 125.382H343.179C339.544 125.382 336.598 128.252 336.598 131.79V279.671C336.598 283.21 339.544 286.079 343.179 286.079H598.849C602.484 286.079 605.43 283.21 605.43 279.671V131.79C605.43 128.252 602.484 125.382 598.849 125.382Z"
                    fill="#474747" fill-opacity="0.32" />
                <path
                    d="M491.405 217.035H450.556C447.853 217.035 445.662 219.169 445.662 221.8C445.662 224.431 447.853 226.564 450.556 226.564H491.405C494.108 226.564 496.299 224.431 496.299 221.8C496.299 219.169 494.108 217.035 491.405 217.035Z"
                    fill="black" fill-opacity="0.25" />
                <path
                    d="M456.995 224.006C455.689 224.006 454.871 223.107 454.871 221.754C454.871 220.415 455.722 219.503 457.04 219.503C458.047 219.503 458.781 220.072 458.949 220.989H458.352C458.177 220.376 457.696 220.009 457.014 220.009C456.06 220.009 455.449 220.73 455.449 221.754C455.449 222.772 456.034 223.5 456.988 223.5C457.69 223.5 458.177 223.139 458.346 222.519H458.943C458.774 223.436 458.021 224.006 456.995 224.006ZM461.073 224.006C460.106 224.006 459.43 223.335 459.43 222.356C459.43 221.374 460.106 220.705 461.073 220.705C462.041 220.705 462.717 221.374 462.717 222.356C462.717 223.335 462.041 224.006 461.073 224.006ZM461.073 223.543C461.73 223.543 462.171 223.044 462.171 222.356C462.171 221.666 461.73 221.166 461.073 221.166C460.418 221.166 459.976 221.666 459.976 222.356C459.976 223.044 460.418 223.543 461.073 223.543ZM464.951 220.705C465.698 220.705 466.289 221.103 466.289 222.172V223.968H465.756V222.204C465.756 221.533 465.438 221.179 464.86 221.179C464.236 221.179 463.86 221.628 463.86 222.356V223.968H463.327V220.743H463.788L463.86 221.179C464.055 220.932 464.392 220.705 464.951 220.705ZM468.592 220.705C469.338 220.705 469.929 221.103 469.929 222.172V223.968H469.397V222.204C469.397 221.533 469.079 221.179 468.5 221.179C467.877 221.179 467.5 221.628 467.5 222.356V223.968H466.968V220.743H467.429L467.5 221.179C467.695 220.932 468.033 220.705 468.592 220.705ZM472.097 224.006C471.103 224.006 470.454 223.341 470.454 222.356C470.454 221.374 471.09 220.705 472.025 220.705C472.96 220.705 473.57 221.28 473.596 222.235C473.596 222.305 473.59 222.381 473.583 222.456H471.012V222.501C471.031 223.114 471.427 223.543 472.058 223.543C472.525 223.543 472.889 223.304 472.999 222.886H473.538C473.408 223.531 472.863 224.006 472.097 224.006ZM471.044 222.027H473.025C472.973 221.47 472.584 221.16 472.032 221.16C471.544 221.16 471.096 221.501 471.044 222.027ZM475.691 224.006C474.724 224.006 474.087 223.366 474.087 222.362C474.087 221.374 474.743 220.705 475.704 220.705C476.516 220.705 477.029 221.148 477.166 221.855H476.607C476.51 221.425 476.185 221.166 475.698 221.166C475.062 221.166 474.633 221.66 474.633 222.362C474.633 223.063 475.062 223.543 475.698 223.543C476.172 223.543 476.497 223.279 476.601 222.867H477.166C477.036 223.563 476.497 224.006 475.691 224.006ZM477.997 223.127V221.217H477.399V220.743H477.997V219.838H478.529V220.743H479.386V221.217H478.529V223.12C478.529 223.391 478.626 223.493 478.912 223.493H479.438V223.968H478.86C478.224 223.968 477.997 223.696 477.997 223.127ZM481.344 224.006C480.35 224.006 479.701 223.341 479.701 222.356C479.701 221.374 480.337 220.705 481.272 220.705C482.207 220.705 482.817 221.28 482.843 222.235C482.843 222.305 482.837 222.381 482.83 222.456H480.259V222.501C480.278 223.114 480.674 223.543 481.304 223.543C481.772 223.543 482.136 223.304 482.246 222.886H482.785C482.655 223.531 482.11 224.006 481.344 224.006ZM480.291 222.027H482.272C482.22 221.47 481.831 221.16 481.278 221.16C480.791 221.16 480.343 221.501 480.291 222.027ZM486.062 221.236V219.541H486.594V223.968H486.133L486.062 223.449C485.841 223.747 485.484 224.006 484.925 224.006C484.01 224.006 483.334 223.404 483.334 222.356C483.334 221.369 484.01 220.705 484.925 220.705C485.484 220.705 485.861 220.926 486.062 221.236ZM484.977 223.543C485.627 223.543 486.069 223.057 486.069 222.368C486.069 221.66 485.627 221.166 484.977 221.166C484.322 221.166 483.88 221.653 483.88 222.356C483.88 223.057 484.322 223.543 484.977 223.543Z"
                    fill="white" />
                <path
                    d="M448.475 236.059H448.96C448.998 236.552 449.391 236.878 449.968 236.878C450.475 236.878 450.836 236.652 450.836 236.253C450.836 235.796 450.373 235.702 449.802 235.607C449.192 235.507 448.566 235.312 448.566 234.599C448.566 233.974 449.089 233.554 449.855 233.554C450.696 233.554 451.214 234.011 451.257 234.673H450.772C450.718 234.247 450.368 233.969 449.855 233.969C449.365 233.969 449.036 234.178 449.036 234.572C449.036 235.013 449.494 235.103 450.06 235.197C450.675 235.297 451.306 235.496 451.306 236.211C451.306 236.846 450.756 237.292 449.963 237.292C449.041 237.292 448.502 236.783 448.475 236.059ZM453.103 237.292C452.279 237.292 451.739 236.741 451.739 235.922C451.739 235.108 452.268 234.552 453.044 234.552C453.821 234.552 454.328 235.029 454.349 235.822C454.349 235.88 454.344 235.943 454.339 236.006H452.203V236.042C452.219 236.553 452.548 236.909 453.072 236.909C453.46 236.909 453.762 236.709 453.853 236.363H454.3C454.193 236.898 453.74 237.292 453.103 237.292ZM452.23 235.649H453.875C453.832 235.187 453.508 234.93 453.049 234.93C452.645 234.93 452.273 235.213 452.23 235.649ZM456.089 237.292C455.285 237.292 454.757 236.762 454.757 235.927C454.757 235.108 455.301 234.552 456.099 234.552C456.773 234.552 457.2 234.919 457.313 235.507H456.849C456.768 235.15 456.499 234.935 456.094 234.935C455.566 234.935 455.21 235.344 455.21 235.927C455.21 236.51 455.566 236.909 456.094 236.909C456.488 236.909 456.758 236.689 456.843 236.347H457.313C457.205 236.924 456.758 237.292 456.089 237.292ZM459.722 235.922V234.583H460.165V237.261H459.782L459.722 236.904C459.561 237.103 459.297 237.292 458.843 237.292C458.24 237.292 457.76 236.961 457.76 236.075V234.583H458.202V236.047C458.202 236.605 458.46 236.898 458.919 236.898C459.421 236.898 459.722 236.525 459.722 235.922ZM462.04 234.583H462.164V235.003H461.943C461.366 235.003 461.21 235.471 461.21 235.895V237.261H460.768V234.583H461.15L461.21 234.987C461.339 234.783 461.549 234.583 462.04 234.583ZM463.657 237.292C462.831 237.292 462.292 236.741 462.292 235.922C462.292 235.108 462.82 234.552 463.597 234.552C464.374 234.552 464.88 235.029 464.902 235.822C464.902 235.88 464.897 235.943 464.891 236.006H462.756V236.042C462.772 236.553 463.101 236.909 463.624 236.909C464.012 236.909 464.314 236.709 464.406 236.363H464.854C464.746 236.898 464.293 237.292 463.657 237.292ZM462.783 235.649H464.428C464.384 235.187 464.061 234.93 463.603 234.93C463.198 234.93 462.826 235.213 462.783 235.649ZM468.053 237.292C467.249 237.292 466.721 236.762 466.721 235.927C466.721 235.108 467.265 234.552 468.064 234.552C468.738 234.552 469.164 234.919 469.277 235.507H468.813C468.732 235.15 468.462 234.935 468.058 234.935C467.53 234.935 467.174 235.344 467.174 235.927C467.174 236.51 467.53 236.909 468.058 236.909C468.452 236.909 468.722 236.689 468.808 236.347H469.277C469.169 236.924 468.722 237.292 468.053 237.292ZM471.029 237.292C470.225 237.292 469.665 236.736 469.665 235.922C469.665 235.108 470.225 234.552 471.029 234.552C471.832 234.552 472.393 235.108 472.393 235.922C472.393 236.736 471.832 237.292 471.029 237.292ZM471.029 236.909C471.573 236.909 471.94 236.494 471.94 235.922C471.94 235.35 471.573 234.935 471.029 234.935C470.484 234.935 470.117 235.35 470.117 235.922C470.117 236.494 470.484 236.909 471.029 236.909ZM474.248 234.552C474.868 234.552 475.359 234.882 475.359 235.77V237.261H474.917V235.796C474.917 235.239 474.653 234.945 474.173 234.945C473.655 234.945 473.342 235.318 473.342 235.922V237.261H472.9V234.583H473.283L473.342 234.945C473.504 234.741 473.785 234.552 474.248 234.552ZM477.271 234.552C477.891 234.552 478.381 234.882 478.381 235.77V237.261H477.939V235.796C477.939 235.239 477.675 234.945 477.195 234.945C476.677 234.945 476.365 235.318 476.365 235.922V237.261H475.923V234.583H476.305L476.365 234.945C476.527 234.741 476.807 234.552 477.271 234.552ZM480.181 237.292C479.356 237.292 478.816 236.741 478.816 235.922C478.816 235.108 479.345 234.552 480.122 234.552C480.898 234.552 481.405 235.029 481.427 235.822C481.427 235.88 481.421 235.943 481.416 236.006H479.281V236.042C479.297 236.553 479.625 236.909 480.149 236.909C480.537 236.909 480.839 236.709 480.93 236.363H481.378C481.27 236.898 480.817 237.292 480.181 237.292ZM479.307 235.649H480.952C480.909 235.187 480.585 234.93 480.127 234.93C479.723 234.93 479.351 235.213 479.307 235.649ZM483.166 237.292C482.362 237.292 481.834 236.762 481.834 235.927C481.834 235.108 482.379 234.552 483.177 234.552C483.851 234.552 484.277 234.919 484.39 235.507H483.926C483.846 235.15 483.576 234.935 483.171 234.935C482.643 234.935 482.287 235.344 482.287 235.927C482.287 236.51 482.643 236.909 483.171 236.909C483.565 236.909 483.835 236.689 483.921 236.347H484.39C484.282 236.924 483.835 237.292 483.166 237.292ZM485.08 236.562V234.977H484.584V234.583H485.08V233.833H485.522V234.583H486.233V234.977H485.522V236.557C485.522 236.783 485.603 236.867 485.84 236.867H486.277V237.261H485.797C485.269 237.261 485.08 237.035 485.08 236.562ZM486.887 234.131C486.725 234.131 486.601 234.017 486.601 233.853C486.601 233.69 486.725 233.575 486.887 233.575C487.048 233.575 487.172 233.69 487.172 233.853C487.172 234.017 487.048 234.131 486.887 234.131ZM486.66 237.261V234.583H487.102V237.261H486.66ZM488.975 237.292C488.172 237.292 487.611 236.736 487.611 235.922C487.611 235.108 488.172 234.552 488.975 234.552C489.779 234.552 490.34 235.108 490.34 235.922C490.34 236.736 489.779 237.292 488.975 237.292ZM488.975 236.909C489.52 236.909 489.886 236.494 489.886 235.922C489.886 235.35 489.52 234.935 488.975 234.935C488.43 234.935 488.063 235.35 488.063 235.922C488.063 236.494 488.43 236.909 488.975 236.909ZM492.194 234.552C492.814 234.552 493.305 234.882 493.305 235.77V237.261H492.863V235.796C492.863 235.239 492.599 234.945 492.119 234.945C491.602 234.945 491.289 235.318 491.289 235.922V237.261H490.847V234.583H491.229L491.289 234.945C491.45 234.741 491.731 234.552 492.194 234.552Z"
                    fill="white" />
                <path
                    d="M479.42 172.788H462.541C457.88 172.788 454.102 176.467 454.102 181.005V197.439C454.102 201.978 457.88 205.656 462.541 205.656H479.42C484.081 205.656 487.859 201.978 487.859 197.439V181.005C487.859 176.467 484.081 172.788 479.42 172.788Z"
                    fill="#191919" />
                <path
                    d="M470.98 201.233C477.792 201.233 483.316 195.855 483.316 189.223C483.316 182.59 477.792 177.213 470.98 177.213C464.168 177.213 458.646 182.59 458.646 189.223C458.646 195.855 464.168 201.233 470.98 201.233Z"
                    fill="#008CFF" />
                <path
                    d="M469.034 184.166H467.087C466.728 184.166 466.438 184.449 466.438 184.798V194.279C466.438 194.629 466.728 194.911 467.087 194.911H469.034C469.393 194.911 469.683 194.629 469.683 194.279V184.798C469.683 184.449 469.393 184.166 469.034 184.166Z"
                    fill="#D9D9D9" />
                <path
                    d="M474.875 184.166H472.927C472.569 184.166 472.278 184.449 472.278 184.798V194.279C472.278 194.629 472.569 194.911 472.927 194.911H474.875C475.234 194.911 475.524 194.629 475.524 194.279V184.798C475.524 184.449 475.234 184.166 474.875 184.166Z"
                    fill="#D9D9D9" />
            </g>
            <mask id="mask2_1197_2586" style="mask-type:luminance" maskUnits="userSpaceOnUse" x="30" y="202" width="230"
                height="139">
                <path
                    d="M254.238 202.54H36.4864C33.3905 202.54 30.8809 205.007 30.8809 208.052V335.263C30.8809 338.307 33.3905 340.776 36.4864 340.776H254.238C257.334 340.776 259.844 338.307 259.844 335.263V208.052C259.844 205.007 257.334 202.54 254.238 202.54Z"
                    fill="white" />
            </mask>
            <g mask="url(#mask2_1197_2586)">
                <path
                    d="M254.238 202.54H36.4864C33.3905 202.54 30.8809 205.007 30.8809 208.052V335.263C30.8809 338.307 33.3905 340.776 36.4864 340.776H254.238C257.334 340.776 259.844 338.307 259.844 335.263V208.052C259.844 205.007 257.334 202.54 254.238 202.54Z"
                    fill="#202022" fill-opacity="0.68" />
                <path
                    d="M162.729 281.381H127.937C125.635 281.381 123.77 283.216 123.77 285.481C123.77 287.744 125.635 289.579 127.937 289.579H162.729C165.031 289.579 166.897 287.744 166.897 285.481C166.897 283.216 165.031 281.381 162.729 281.381Z"
                    fill="black" fill-opacity="0.25" />
                <path
                    d="M133.422 287.379C132.31 287.379 131.613 286.606 131.613 285.442C131.613 284.289 132.338 283.505 133.461 283.505C134.318 283.505 134.943 283.995 135.087 284.784H134.578C134.429 284.256 134.02 283.941 133.438 283.941C132.626 283.941 132.105 284.561 132.105 285.442C132.105 286.318 132.604 286.943 133.416 286.943C134.014 286.943 134.429 286.633 134.572 286.1H135.081C134.937 286.888 134.296 287.379 133.422 287.379ZM136.896 287.379C136.072 287.379 135.496 286.802 135.496 285.959C135.496 285.115 136.072 284.539 136.896 284.539C137.72 284.539 138.295 285.115 138.295 285.959C138.295 286.802 137.72 287.379 136.896 287.379ZM136.896 286.981C137.455 286.981 137.831 286.551 137.831 285.959C137.831 285.366 137.455 284.936 136.896 284.936C136.337 284.936 135.961 285.366 135.961 285.959C135.961 286.551 136.337 286.981 136.896 286.981ZM140.198 284.539C140.834 284.539 141.338 284.882 141.338 285.801V287.346H140.884V285.828C140.884 285.251 140.613 284.947 140.121 284.947C139.59 284.947 139.269 285.333 139.269 285.959V287.346H138.815V284.571H139.208L139.269 284.947C139.435 284.735 139.722 284.539 140.198 284.539ZM143.299 284.539C143.935 284.539 144.438 284.882 144.438 285.801V287.346H143.985V285.828C143.985 285.251 143.714 284.947 143.221 284.947C142.69 284.947 142.37 285.333 142.37 285.959V287.346H141.916V284.571H142.309L142.37 284.947C142.535 284.735 142.823 284.539 143.299 284.539ZM146.284 287.379C145.438 287.379 144.885 286.806 144.885 285.959C144.885 285.115 145.427 284.539 146.223 284.539C147.02 284.539 147.539 285.034 147.561 285.855C147.561 285.915 147.556 285.981 147.55 286.046H145.36V286.084C145.377 286.611 145.714 286.981 146.251 286.981C146.649 286.981 146.959 286.774 147.053 286.415H147.512C147.401 286.97 146.937 287.379 146.284 287.379ZM145.388 285.676H147.075C147.031 285.197 146.699 284.931 146.229 284.931C145.814 284.931 145.432 285.225 145.388 285.676ZM149.346 287.379C148.522 287.379 147.979 286.829 147.979 285.964C147.979 285.115 148.538 284.539 149.357 284.539C150.048 284.539 150.485 284.92 150.601 285.528H150.126C150.043 285.159 149.766 284.936 149.351 284.936C148.809 284.936 148.444 285.36 148.444 285.964C148.444 286.568 148.809 286.981 149.351 286.981C149.755 286.981 150.032 286.753 150.12 286.4H150.601C150.491 286.997 150.032 287.379 149.346 287.379ZM151.309 286.622V284.979H150.8V284.571H151.309V283.794H151.762V284.571H152.493V284.979H151.762V286.617C151.762 286.85 151.845 286.938 152.089 286.938H152.537V287.346H152.044C151.503 287.346 151.309 287.112 151.309 286.622ZM154.16 287.379C153.313 287.379 152.76 286.806 152.76 285.959C152.76 285.115 153.302 284.539 154.098 284.539C154.895 284.539 155.415 285.034 155.437 285.855C155.437 285.915 155.432 285.981 155.426 286.046H153.236V286.084C153.253 286.611 153.59 286.981 154.126 286.981C154.525 286.981 154.834 286.774 154.928 286.415H155.387C155.277 286.97 154.812 287.379 154.16 287.379ZM153.264 285.676H154.951C154.906 285.197 154.575 284.931 154.104 284.931C153.689 284.931 153.308 285.225 153.264 285.676ZM158.178 284.996V283.537H158.632V287.346H158.239L158.178 286.899C157.99 287.156 157.686 287.379 157.21 287.379C156.431 287.379 155.855 286.861 155.855 285.959C155.855 285.11 156.431 284.539 157.21 284.539C157.686 284.539 158.007 284.729 158.178 284.996ZM157.255 286.981C157.808 286.981 158.184 286.562 158.184 285.969C158.184 285.36 157.808 284.936 157.255 284.936C156.696 284.936 156.32 285.355 156.32 285.959C156.32 286.562 156.696 286.981 157.255 286.981Z"
                    fill="white" />
                <path
                    d="M126.166 297.747H126.58C126.612 298.172 126.947 298.451 127.438 298.451C127.87 298.451 128.178 298.257 128.178 297.914C128.178 297.522 127.783 297.44 127.296 297.359C126.777 297.273 126.244 297.105 126.244 296.492C126.244 295.953 126.69 295.592 127.342 295.592C128.058 295.592 128.499 295.986 128.536 296.555H128.123C128.077 296.189 127.778 295.95 127.342 295.95C126.924 295.95 126.644 296.13 126.644 296.468C126.644 296.848 127.034 296.925 127.516 297.007C128.04 297.091 128.577 297.264 128.577 297.878C128.577 298.424 128.109 298.809 127.434 298.809C126.648 298.809 126.189 298.371 126.166 297.747ZM130.108 298.809C129.406 298.809 128.947 298.335 128.947 297.63C128.947 296.929 129.397 296.451 130.058 296.451C130.719 296.451 131.151 296.862 131.169 297.544C131.169 297.593 131.165 297.647 131.16 297.702H129.341V297.734C129.355 298.172 129.636 298.479 130.081 298.479C130.412 298.479 130.669 298.307 130.747 298.009H131.128C131.036 298.47 130.651 298.809 130.108 298.809ZM129.365 297.395H130.765C130.729 296.997 130.453 296.776 130.062 296.776C129.718 296.776 129.401 297.02 129.365 297.395ZM132.651 298.809C131.967 298.809 131.517 298.352 131.517 297.634C131.517 296.929 131.98 296.451 132.66 296.451C133.234 296.451 133.597 296.766 133.693 297.273H133.299C133.229 296.966 133 296.78 132.656 296.78C132.205 296.78 131.902 297.132 131.902 297.634C131.902 298.135 132.205 298.479 132.656 298.479C132.991 298.479 133.221 298.289 133.294 297.996H133.693C133.602 298.492 133.221 298.809 132.651 298.809ZM135.746 297.63V296.478H136.122V298.781H135.796L135.746 298.474C135.608 298.646 135.383 298.809 134.997 298.809C134.483 298.809 134.074 298.524 134.074 297.76V296.478H134.451V297.738C134.451 298.217 134.671 298.47 135.061 298.47C135.489 298.47 135.746 298.149 135.746 297.63ZM137.72 296.478H137.825V296.839H137.637C137.146 296.839 137.012 297.241 137.012 297.606V298.781H136.636V296.478H136.962L137.012 296.826C137.122 296.649 137.302 296.478 137.72 296.478ZM139.096 298.809C138.394 298.809 137.934 298.335 137.934 297.63C137.934 296.929 138.384 296.451 139.046 296.451C139.707 296.451 140.139 296.862 140.157 297.544C140.157 297.593 140.152 297.647 140.148 297.702H138.329V297.734C138.343 298.172 138.623 298.479 139.069 298.479C139.399 298.479 139.656 298.307 139.735 298.009H140.116C140.024 298.47 139.638 298.809 139.096 298.809ZM138.352 297.395H139.753C139.716 296.997 139.441 296.776 139.051 296.776C138.706 296.776 138.389 297.02 138.352 297.395ZM142.841 298.809C142.156 298.809 141.706 298.352 141.706 297.634C141.706 296.929 142.17 296.451 142.85 296.451C143.424 296.451 143.787 296.766 143.883 297.273H143.488C143.419 296.966 143.19 296.78 142.845 296.78C142.395 296.78 142.092 297.132 142.092 297.634C142.092 298.135 142.395 298.479 142.845 298.479C143.181 298.479 143.41 298.289 143.484 297.996H143.883C143.791 298.492 143.41 298.809 142.841 298.809ZM145.375 298.809C144.691 298.809 144.214 298.33 144.214 297.63C144.214 296.929 144.691 296.451 145.375 296.451C146.06 296.451 146.537 296.929 146.537 297.63C146.537 298.33 146.06 298.809 145.375 298.809ZM145.375 298.479C145.839 298.479 146.152 298.121 146.152 297.63C146.152 297.137 145.839 296.78 145.375 296.78C144.911 296.78 144.599 297.137 144.599 297.63C144.599 298.121 144.911 298.479 145.375 298.479ZM148.117 296.451C148.645 296.451 149.063 296.735 149.063 297.498V298.781H148.687V297.522C148.687 297.043 148.462 296.79 148.053 296.79C147.612 296.79 147.346 297.11 147.346 297.63V298.781H146.969V296.478H147.295L147.346 296.79C147.483 296.613 147.722 296.451 148.117 296.451ZM150.691 296.451C151.22 296.451 151.638 296.735 151.638 297.498V298.781H151.261V297.522C151.261 297.043 151.036 296.79 150.627 296.79C150.186 296.79 149.92 297.11 149.92 297.63V298.781H149.544V296.478H149.869L149.92 296.79C150.058 296.613 150.297 296.451 150.691 296.451ZM153.17 298.809C152.467 298.809 152.008 298.335 152.008 297.63C152.008 296.929 152.458 296.451 153.12 296.451C153.781 296.451 154.212 296.862 154.231 297.544C154.231 297.593 154.226 297.647 154.222 297.702H152.403V297.734C152.417 298.172 152.697 298.479 153.143 298.479C153.473 298.479 153.73 298.307 153.808 298.009H154.19C154.098 298.47 153.712 298.809 153.17 298.809ZM152.426 297.395H153.827C153.79 296.997 153.515 296.776 153.124 296.776C152.78 296.776 152.463 297.02 152.426 297.395ZM155.712 298.809C155.028 298.809 154.578 298.352 154.578 297.634C154.578 296.929 155.042 296.451 155.722 296.451C156.296 296.451 156.658 296.766 156.755 297.273H156.36C156.291 296.966 156.061 296.78 155.717 296.78C155.267 296.78 154.964 297.132 154.964 297.634C154.964 298.135 155.267 298.479 155.717 298.479C156.053 298.479 156.282 298.289 156.356 297.996H156.755C156.663 298.492 156.282 298.809 155.712 298.809ZM157.342 298.181V296.817H156.92V296.478H157.342V295.832H157.719V296.478H158.325V296.817H157.719V298.176C157.719 298.371 157.788 298.443 157.99 298.443H158.362V298.781H157.953C157.503 298.781 157.342 298.587 157.342 298.181ZM158.881 296.09C158.744 296.09 158.638 295.99 158.638 295.85C158.638 295.71 158.744 295.611 158.881 295.611C159.019 295.611 159.124 295.71 159.124 295.85C159.124 295.99 159.019 296.09 158.881 296.09ZM158.688 298.781V296.478H159.065V298.781H158.688ZM160.66 298.809C159.976 298.809 159.498 298.33 159.498 297.63C159.498 296.929 159.976 296.451 160.66 296.451C161.344 296.451 161.822 296.929 161.822 297.63C161.822 298.33 161.344 298.809 160.66 298.809ZM160.66 298.479C161.124 298.479 161.436 298.121 161.436 297.63C161.436 297.137 161.124 296.78 160.66 296.78C160.196 296.78 159.884 297.137 159.884 297.63C159.884 298.121 160.196 298.479 160.66 298.479ZM163.402 296.451C163.93 296.451 164.348 296.735 164.348 297.498V298.781H163.971V297.522C163.971 297.043 163.746 296.79 163.338 296.79C162.897 296.79 162.63 297.11 162.63 297.63V298.781H162.254V296.478H162.58L162.63 296.79C162.768 296.613 163.007 296.451 163.402 296.451Z"
                    fill="white" />
                <path
                    d="M152.523 243.319H138.147C134.177 243.319 130.959 246.484 130.959 250.388V264.526C130.959 268.429 134.177 271.594 138.147 271.594H152.523C156.492 271.594 159.71 268.429 159.71 264.526V250.388C159.71 246.484 156.492 243.319 152.523 243.319Z"
                    fill="#191919" />
                <path
                    d="M145.333 267.788C151.135 267.788 155.839 263.163 155.839 257.457C155.839 251.751 151.135 247.125 145.333 247.125C139.532 247.125 134.828 251.751 134.828 257.457C134.828 263.163 139.532 267.788 145.333 267.788Z"
                    fill="#008CFF" />
                <path
                    d="M143.676 253.107H142.018C141.712 253.107 141.465 253.35 141.465 253.651V261.807C141.465 262.108 141.712 262.351 142.018 262.351H143.676C143.982 262.351 144.229 262.108 144.229 261.807V253.651C144.229 253.35 143.982 253.107 143.676 253.107Z"
                    fill="#D9D9D9" />
                <path
                    d="M148.65 253.107H146.991C146.686 253.107 146.438 253.35 146.438 253.651V261.807C146.438 262.108 146.686 262.351 146.991 262.351H148.65C148.955 262.351 149.203 262.108 149.203 261.807V253.651C149.203 253.35 148.955 253.107 148.65 253.107Z"
                    fill="#D9D9D9" />
            </g>
            <path
                d="M36.7024 356.678H254.298C262.418 356.678 269 351.596 269 345.326V210.915C269 204.645 262.418 199.562 254.298 199.562H36.7024C28.5825 199.562 22 204.645 22 210.915V345.326C22 351.596 28.5825 356.678 36.7024 356.678Z"
                stroke="#999999" stroke-opacity="0.2" />
            <path
                d="M36.9961 348.277H253.415C256.663 348.277 259.296 346.245 259.296 343.737V211.823C259.296 209.315 256.663 207.282 253.415 207.282H36.9961C33.7482 207.282 31.1152 209.315 31.1152 211.823V343.737C31.1152 346.245 33.7482 348.277 36.9961 348.277Z"
                stroke="#999999" stroke-opacity="0.2" />
            <path
                d="M787 110.49H694C683.23 110.49 674.5 118.989 674.5 129.473V336.823C674.5 347.307 683.23 355.805 694 355.805H787C797.77 355.805 806.5 347.307 806.5 336.823V129.473C806.5 118.989 797.77 110.49 787 110.49Z"
                stroke="#2A2A2C" />
            <path
                d="M785 115.844H696C687.716 115.844 681 122.381 681 130.446V333.902C681 341.967 687.716 348.504 696 348.504H785C793.284 348.504 800 341.967 800 333.902V130.446C800 122.381 793.284 115.844 785 115.844Z"
                fill="#202022" fill-opacity="0.68" />
            <path
                d="M748.211 176.199H732.07C727.613 176.199 724 179.833 724 184.315V200.548C724 205.031 727.613 208.665 732.07 208.665H748.211C752.669 208.665 756.282 205.031 756.282 200.548V184.315C756.282 179.833 752.669 176.199 748.211 176.199Z"
                fill="#191919" />
            <path
                d="M740.139 204.294C746.653 204.294 751.934 198.983 751.934 192.432C751.934 185.88 746.653 180.57 740.139 180.57C733.625 180.57 728.344 185.88 728.344 192.432C728.344 198.983 733.625 204.294 740.139 204.294Z"
                fill="#008CFF" />
            <path
                d="M738.28 187.437H736.418C736.075 187.437 735.797 187.717 735.797 188.062V197.427C735.797 197.771 736.075 198.051 736.418 198.051H738.28C738.623 198.051 738.901 197.771 738.901 197.427V188.062C738.901 187.717 738.623 187.437 738.28 187.437Z"
                fill="#D9D9D9" />
            <path
                d="M743.864 187.437H742.002C741.659 187.437 741.381 187.717 741.381 188.062V197.427C741.381 197.771 741.659 198.051 742.002 198.051H743.864C744.207 198.051 744.485 197.771 744.485 197.427V188.062C744.485 187.717 744.207 187.437 743.864 187.437Z"
                fill="#D9D9D9" />
            <path
                d="M759.743 221.952H720.68C718.095 221.952 716 224.059 716 226.658C716 229.257 718.095 231.365 720.68 231.365H759.743C762.328 231.365 764.423 229.257 764.423 226.658C764.423 224.059 762.328 221.952 759.743 221.952Z"
                fill="black" fill-opacity="0.25" />
            <path
                d="M726.839 228.838C725.591 228.838 724.809 227.951 724.809 226.615C724.809 225.291 725.622 224.391 726.883 224.391C727.846 224.391 728.547 224.953 728.709 225.859H728.137C727.97 225.253 727.51 224.891 726.858 224.891C725.945 224.891 725.361 225.603 725.361 226.615C725.361 227.62 725.92 228.338 726.833 228.338C727.504 228.338 727.97 227.982 728.131 227.37H728.702C728.541 228.275 727.821 228.838 726.839 228.838ZM730.74 228.838C729.815 228.838 729.169 228.176 729.169 227.208C729.169 226.24 729.815 225.578 730.74 225.578C731.665 225.578 732.311 226.24 732.311 227.208C732.311 228.176 731.665 228.838 730.74 228.838ZM730.74 228.381C731.367 228.381 731.79 227.889 731.79 227.208C731.79 226.527 731.367 226.033 730.74 226.033C730.113 226.033 729.69 226.527 729.69 227.208C729.69 227.889 730.113 228.381 730.74 228.381ZM734.448 225.578C735.162 225.578 735.727 225.971 735.727 227.027V228.801H735.218V227.058C735.218 226.395 734.913 226.046 734.361 226.046C733.764 226.046 733.404 226.489 733.404 227.208V228.801H732.895V225.616H733.336L733.404 226.046C733.591 225.803 733.913 225.578 734.448 225.578ZM737.929 225.578C738.643 225.578 739.208 225.971 739.208 227.027V228.801H738.699V227.058C738.699 226.395 738.395 226.046 737.842 226.046C737.246 226.046 736.886 226.489 736.886 227.208V228.801H736.377V225.616H736.817L736.886 226.046C737.072 225.803 737.395 225.578 737.929 225.578ZM741.281 228.838C740.331 228.838 739.71 228.182 739.71 227.208C739.71 226.24 740.318 225.578 741.213 225.578C742.107 225.578 742.69 226.146 742.715 227.09C742.715 227.158 742.709 227.233 742.703 227.308H740.244V227.351C740.262 227.957 740.641 228.381 741.244 228.381C741.691 228.381 742.038 228.145 742.144 227.732H742.659C742.535 228.37 742.014 228.838 741.281 228.838ZM740.275 226.883H742.169C742.119 226.333 741.747 226.028 741.219 226.028C740.753 226.028 740.324 226.364 740.275 226.883ZM744.719 228.838C743.794 228.838 743.185 228.207 743.185 227.214C743.185 226.24 743.812 225.578 744.731 225.578C745.508 225.578 745.998 226.015 746.128 226.714H745.594C745.501 226.289 745.191 226.033 744.725 226.033C744.116 226.033 743.707 226.521 743.707 227.214C743.707 227.907 744.116 228.381 744.725 228.381C745.179 228.381 745.489 228.12 745.588 227.714H746.128C746.004 228.401 745.489 228.838 744.719 228.838ZM746.923 227.97V226.084H746.352V225.616H746.923V224.722H747.432V225.616H748.252V226.084H747.432V227.964C747.432 228.231 747.525 228.332 747.798 228.332H748.302V228.801H747.749C747.14 228.801 746.923 228.532 746.923 227.97ZM750.124 228.838C749.173 228.838 748.553 228.182 748.553 227.208C748.553 226.24 749.161 225.578 750.055 225.578C750.95 225.578 751.533 226.146 751.558 227.09C751.558 227.158 751.552 227.233 751.546 227.308H749.087V227.351C749.105 227.957 749.484 228.381 750.086 228.381C750.534 228.381 750.881 228.145 750.987 227.732H751.502C751.378 228.37 750.856 228.838 750.124 228.838ZM749.118 226.883H751.012C750.962 226.333 750.589 226.028 750.061 226.028C749.596 226.028 749.167 226.364 749.118 226.883ZM754.636 226.102V224.428H755.145V228.801H754.704L754.636 228.288C754.425 228.582 754.083 228.838 753.549 228.838C752.674 228.838 752.027 228.244 752.027 227.208C752.027 226.233 752.674 225.578 753.549 225.578C754.083 225.578 754.443 225.797 754.636 226.102ZM753.599 228.381C754.22 228.381 754.642 227.901 754.642 227.22C754.642 226.52 754.22 226.033 753.599 226.033C752.972 226.033 752.549 226.514 752.549 227.208C752.549 227.901 752.972 228.381 753.599 228.381Z"
                fill="white" />
            <path
                d="M718.691 240.744H719.156C719.192 241.231 719.568 241.553 720.12 241.553C720.605 241.553 720.95 241.33 720.95 240.935C720.95 240.485 720.507 240.391 719.96 240.298C719.377 240.199 718.779 240.007 718.779 239.302C718.779 238.685 719.279 238.27 720.012 238.27C720.816 238.27 721.311 238.721 721.352 239.375H720.888C720.837 238.954 720.502 238.68 720.012 238.68C719.543 238.68 719.228 238.887 719.228 239.276C719.228 239.712 719.666 239.8 720.207 239.894C720.795 239.991 721.399 240.189 721.399 240.895C721.399 241.521 720.873 241.962 720.115 241.962C719.233 241.962 718.717 241.459 718.691 240.744ZM723.118 241.962C722.329 241.962 721.813 241.418 721.813 240.609C721.813 239.805 722.319 239.255 723.061 239.255C723.804 239.255 724.289 239.727 724.309 240.51C724.309 240.567 724.304 240.63 724.299 240.692H722.257V240.728C722.272 241.231 722.587 241.584 723.087 241.584C723.459 241.584 723.747 241.387 723.835 241.044H724.263C724.159 241.574 723.727 241.962 723.118 241.962ZM722.283 240.34H723.855C723.814 239.883 723.505 239.629 723.066 239.629C722.679 239.629 722.324 239.909 722.283 240.34ZM725.973 241.962C725.204 241.962 724.699 241.439 724.699 240.614C724.699 239.805 725.22 239.255 725.983 239.255C726.627 239.255 727.035 239.618 727.143 240.199H726.7C726.622 239.847 726.365 239.634 725.978 239.634C725.472 239.634 725.132 240.039 725.132 240.614C725.132 241.189 725.472 241.584 725.978 241.584C726.354 241.584 726.612 241.367 726.694 241.029H727.143C727.04 241.599 726.612 241.962 725.973 241.962ZM729.448 240.609V239.286H729.87V241.931H729.504L729.448 241.579C729.293 241.776 729.04 241.962 728.607 241.962C728.03 241.962 727.571 241.636 727.571 240.759V239.286H727.994V240.733C727.994 241.283 728.241 241.574 728.679 241.574C729.159 241.574 729.448 241.205 729.448 240.609ZM731.664 239.286H731.782V239.701H731.571C731.019 239.701 730.87 240.163 730.87 240.583V241.931H730.447V239.286H730.813L730.87 239.685C730.993 239.483 731.194 239.286 731.664 239.286ZM733.21 241.962C732.421 241.962 731.905 241.418 731.905 240.609C731.905 239.805 732.41 239.255 733.153 239.255C733.896 239.255 734.38 239.727 734.401 240.51C734.401 240.567 734.395 240.63 734.39 240.692H732.349V240.728C732.364 241.231 732.678 241.584 733.179 241.584C733.55 241.584 733.838 241.387 733.927 241.044H734.354C734.251 241.574 733.818 241.962 733.21 241.962ZM732.374 240.34H733.947C733.906 239.883 733.596 239.629 733.158 239.629C732.771 239.629 732.416 239.909 732.374 240.34ZM737.414 241.962C736.645 241.962 736.14 241.439 736.14 240.614C736.14 239.805 736.661 239.255 737.424 239.255C738.069 239.255 738.476 239.618 738.584 240.199H738.141C738.063 239.847 737.805 239.634 737.419 239.634C736.913 239.634 736.573 240.039 736.573 240.614C736.573 241.189 736.913 241.584 737.419 241.584C737.796 241.584 738.053 241.367 738.136 241.029H738.584C738.481 241.599 738.053 241.962 737.414 241.962ZM740.26 241.962C739.491 241.962 738.955 241.412 738.955 240.609C738.955 239.805 739.491 239.255 740.26 239.255C741.028 239.255 741.564 239.805 741.564 240.609C741.564 241.412 741.028 241.962 740.26 241.962ZM740.26 241.584C740.78 241.584 741.131 241.174 741.131 240.609C741.131 240.044 740.78 239.634 740.26 239.634C739.739 239.634 739.388 240.044 739.388 240.609C739.388 241.174 739.739 241.584 740.26 241.584ZM743.338 239.255C743.931 239.255 744.4 239.582 744.4 240.458V241.931H743.978V240.485C743.978 239.935 743.725 239.645 743.266 239.645C742.771 239.645 742.472 240.013 742.472 240.609V241.931H742.049V239.286H742.415L742.472 239.645C742.627 239.442 742.895 239.255 743.338 239.255ZM746.229 239.255C746.821 239.255 747.291 239.582 747.291 240.458V241.931H746.868V240.485C746.868 239.935 746.615 239.645 746.157 239.645C745.661 239.645 745.363 240.013 745.363 240.609V241.931H744.94V239.286H745.305L745.363 239.645C745.517 239.442 745.785 239.255 746.229 239.255ZM749.012 241.962C748.223 241.962 747.707 241.418 747.707 240.609C747.707 239.805 748.212 239.255 748.955 239.255C749.698 239.255 750.182 239.727 750.203 240.51C750.203 240.567 750.197 240.63 750.192 240.692H748.151V240.728C748.166 241.231 748.48 241.584 748.981 241.584C749.352 241.584 749.641 241.387 749.728 241.044H750.156C750.053 241.574 749.62 241.962 749.012 241.962ZM748.176 240.34H749.749C749.708 239.883 749.398 239.629 748.96 239.629C748.573 239.629 748.218 239.909 748.176 240.34ZM751.866 241.962C751.098 241.962 750.592 241.439 750.592 240.614C750.592 239.805 751.113 239.255 751.877 239.255C752.521 239.255 752.928 239.618 753.036 240.199H752.593C752.516 239.847 752.258 239.634 751.871 239.634C751.366 239.634 751.026 240.039 751.026 240.614C751.026 241.189 751.366 241.584 751.871 241.584C752.248 241.584 752.506 241.367 752.588 241.029H753.036C752.933 241.599 752.506 241.962 751.866 241.962ZM753.696 241.241V239.676H753.222V239.286H753.696V238.545H754.119V239.286H754.799V239.676H754.119V241.236C754.119 241.459 754.197 241.543 754.423 241.543H754.841V241.931H754.382C753.877 241.931 753.696 241.708 753.696 241.241ZM755.424 238.84C755.269 238.84 755.151 238.727 755.151 238.566C755.151 238.405 755.269 238.29 755.424 238.29C755.579 238.29 755.697 238.405 755.697 238.566C755.697 238.727 755.579 238.84 755.424 238.84ZM755.207 241.931V239.286H755.63V241.931H755.207ZM757.421 241.962C756.653 241.962 756.117 241.412 756.117 240.609C756.117 239.805 756.653 239.255 757.421 239.255C758.19 239.255 758.726 239.805 758.726 240.609C758.726 241.412 758.19 241.962 757.421 241.962ZM757.421 241.584C757.942 241.584 758.293 241.174 758.293 240.609C758.293 240.044 757.942 239.634 757.421 239.634C756.9 239.634 756.549 240.044 756.549 240.609C756.549 241.174 756.9 241.584 757.421 241.584ZM760.5 239.255C761.093 239.255 761.562 239.582 761.562 240.458V241.931H761.139V240.485C761.139 239.935 760.886 239.645 760.428 239.645C759.933 239.645 759.634 240.013 759.634 240.609V241.931H759.211V239.286H759.577L759.634 239.645C759.788 239.442 760.056 239.255 760.5 239.255Z"
                fill="white" />
        </g>
        <path
            d="M140.823 57.998H27.9766C23.5583 57.998 19.9766 61.4848 19.9766 65.7858V78.7335C19.9766 83.0346 23.5583 86.5213 27.9766 86.5213H140.823C145.241 86.5213 148.823 83.0346 148.823 78.7335V65.7858C148.823 61.4848 145.241 57.998 140.823 57.998Z"
            fill="#303030" />
        <path
            d="M37.4197 76.4942H33.8447V67.6355H39.4477V68.648H34.9757V71.2549H37.4067C39.1487 71.2549 40.3317 72.1155 40.3317 73.8619C40.3317 75.5197 39.1617 76.4942 37.4197 76.4942ZM34.9757 72.2673V75.4817H37.3157C38.4597 75.4817 39.1747 74.8616 39.1747 73.8745C39.1747 72.8874 38.4467 72.2673 37.3027 72.2673H34.9757ZM44.5133 76.5701C42.5243 76.5701 41.2243 75.2413 41.2243 73.2671C41.2243 71.3055 42.4983 69.9641 44.3703 69.9641C46.2423 69.9641 47.4643 71.1157 47.5163 73.0266C47.5163 73.1659 47.5033 73.3177 47.4903 73.4696H42.3423V73.5582C42.3813 74.7857 43.1743 75.6463 44.4353 75.6463C45.3713 75.6463 46.0993 75.1654 46.3203 74.3301H47.3993C47.1393 75.621 46.0473 76.5701 44.5133 76.5701ZM42.4073 72.609H46.3723C46.2683 71.4954 45.4883 70.8753 44.3833 70.8753C43.4083 70.8753 42.5113 71.5586 42.4073 72.609ZM52.636 73.1785C53.455 73.3051 53.962 73.786 53.962 74.6339C53.962 75.8234 52.844 76.5701 51.05 76.5701C49.165 76.5701 48.359 75.8234 48.294 74.5073H49.399C49.555 75.2793 49.958 75.6842 51.063 75.6842C52.168 75.6842 52.87 75.2919 52.87 74.6212C52.87 73.9378 52.363 73.6721 51.531 73.6721H50.4V72.7735H51.466C52.246 72.7735 52.714 72.4951 52.714 71.8118C52.714 71.2296 52.129 70.85 51.128 70.85C50.049 70.85 49.581 71.2929 49.438 71.9889H48.333C48.411 70.7867 49.438 69.9641 51.154 69.9641C52.831 69.9641 53.806 70.6854 53.806 71.7864C53.806 72.5837 53.325 73.0393 52.636 73.1785ZM61.6012 76.5701C59.6642 76.5701 58.3122 75.2286 58.3122 73.2671C58.3122 71.3055 59.6642 69.9641 61.6012 69.9641C63.5382 69.9641 64.8902 71.3055 64.8902 73.2671C64.8902 75.2286 63.5382 76.5701 61.6012 76.5701ZM61.6012 75.6463C62.9142 75.6463 63.7982 74.6465 63.7982 73.2671C63.7982 71.8877 62.9142 70.8879 61.6012 70.8879C60.2882 70.8879 59.4042 71.8877 59.4042 73.2671C59.4042 74.6465 60.2882 75.6463 61.6012 75.6463ZM67.1786 76.4942H66.1126V70.04H70.3636V70.9892H67.1786V76.4942ZM74.5825 69.9641C76.4155 69.9641 77.7675 71.1663 77.7675 73.2671C77.7675 75.2413 76.4155 76.5701 74.5825 76.5701C73.4645 76.5701 72.7105 76.1272 72.3075 75.5071V79.0252H71.2415V70.04H72.1645L72.3075 71.0778C72.7495 70.483 73.4645 69.9641 74.5825 69.9641ZM74.4785 75.6463C75.7915 75.6463 76.6755 74.6718 76.6755 73.2671C76.6755 71.8624 75.7915 70.8879 74.4785 70.8879C73.1785 70.8879 72.2945 71.8624 72.2945 73.2418C72.2945 74.6592 73.1785 75.6463 74.4785 75.6463ZM84.8486 75.545H85.1866V76.4942H84.6016C83.7176 76.4942 83.4186 76.1272 83.4056 75.4944C82.9896 76.0765 82.3266 76.5701 81.1826 76.5701C79.7266 76.5701 78.7386 75.8614 78.7386 74.6845C78.7386 73.3936 79.6616 72.6723 81.4036 72.6723H83.3536V72.2294C83.3536 71.3941 82.7426 70.8879 81.7026 70.8879C80.7666 70.8879 80.1426 71.3182 80.0126 71.9763H78.9466C79.1026 70.7107 80.1556 69.9641 81.7546 69.9641C83.4446 69.9641 84.4196 70.7867 84.4196 72.2927V75.1147C84.4196 75.4564 84.5496 75.545 84.8486 75.545ZM83.3536 73.8619V73.5455H81.2996C80.3506 73.5455 79.8176 73.8872 79.8176 74.6212C79.8176 75.254 80.3766 75.6842 81.2606 75.6842C82.5866 75.6842 83.3536 74.9376 83.3536 73.8619ZM90.8031 72.7356V70.04H91.8691V76.4942H90.8031V73.6847H87.0721V76.4942H86.0061V70.04H87.0721V72.7356H90.8031ZM94.2673 76.4942H93.3313V70.04H94.3713V74.9249L98.3233 70.04H99.2593V76.4942H98.2193V71.5966L94.2673 76.4942ZM104.88 72.9381V70.04H105.946V76.4942H104.88V73.8999C104.373 74.2289 103.684 74.3934 103.034 74.3934C101.422 74.3934 100.434 73.71 100.434 72.0522V70.04H101.5V71.875C101.5 73.052 102.085 73.4569 103.242 73.4569C103.879 73.4569 104.438 73.3051 104.88 72.9381ZM110.453 76.5701C108.464 76.5701 107.164 75.2413 107.164 73.2671C107.164 71.3055 108.438 69.9641 110.31 69.9641C112.182 69.9641 113.404 71.1157 113.456 73.0266C113.456 73.1659 113.443 73.3177 113.43 73.4696H108.282V73.5582C108.321 74.7857 109.114 75.6463 110.375 75.6463C111.311 75.6463 112.039 75.1654 112.26 74.3301H113.339C113.079 75.621 111.987 76.5701 110.453 76.5701ZM108.347 72.609H112.312C112.208 71.4954 111.428 70.8753 110.323 70.8753C109.348 70.8753 108.451 71.5586 108.347 72.609ZM119.469 72.7356V70.04H120.535V76.4942H119.469V73.6847H115.738V76.4942H114.672V70.04H115.738V72.7356H119.469ZM122.934 76.4942H121.998V70.04H123.038V74.9249L126.99 70.04H127.926V76.4942H126.886V71.5966L122.934 76.4942ZM132.324 69.306C131.076 69.306 130.452 68.6353 130.426 67.5723H131.31C131.31 68.1924 131.596 68.572 132.337 68.572C133.078 68.572 133.39 68.1924 133.39 67.5723H134.274C134.248 68.6353 133.585 69.306 132.324 69.306ZM130.322 76.4942H129.386V70.04H130.426V74.9249L134.378 70.04H135.314V76.4942H134.274V71.5966L130.322 76.4942Z"
            fill="white" />
        <path
            d="M131.834 19.9658H27.9766C23.5583 19.9658 19.9766 23.4525 19.9766 27.7536V40.7013C19.9766 45.0024 23.5583 48.4891 27.9766 48.4891H131.834C136.252 48.4891 139.834 45.0024 139.834 40.7013V27.7536C139.834 23.4525 136.252 19.9658 131.834 19.9658Z"
            fill="#008CFF" fill-opacity="0.9" />
        <path
            d="M33.8447 38.4619V29.6033H37.0687C39.0057 29.6033 40.0847 30.5145 40.0847 31.9445C40.0847 32.9569 39.5127 33.577 38.6547 33.8681C39.6167 34.0453 40.4617 34.6527 40.4617 35.9309C40.4617 37.5001 39.3177 38.4619 37.1597 38.4619H33.8447ZM37.1207 30.6031H34.9757V33.4505H37.1207C38.2907 33.4505 38.9537 32.919 38.9537 32.0205C38.9537 31.1346 38.3037 30.6031 37.1207 30.6031ZM37.1597 34.4376H34.9757V37.4622H37.1597C38.5637 37.4622 39.3047 36.8927 39.3047 35.9815C39.3047 34.9818 38.5117 34.4376 37.1597 34.4376ZM44.7019 38.5379C42.7649 38.5379 41.4909 37.2597 41.4909 35.2475C41.4909 33.2733 42.8039 31.9319 44.7279 31.9319C46.3529 31.9319 47.3799 32.8177 47.6529 34.2351H46.5349C46.3399 33.3746 45.6899 32.8557 44.7149 32.8557C43.4409 32.8557 42.5829 33.8428 42.5829 35.2475C42.5829 36.6522 43.4409 37.614 44.7149 37.614C45.6639 37.614 46.3139 37.0825 46.5219 36.2599H47.6529C47.3929 37.652 46.3139 38.5379 44.7019 38.5379ZM51.7369 38.5379C49.7479 38.5379 48.4479 37.2091 48.4479 35.2349C48.4479 33.2733 49.7219 31.9319 51.5939 31.9319C53.4659 31.9319 54.6879 33.0835 54.7399 34.9944C54.7399 35.1336 54.7269 35.2855 54.7139 35.4373H49.5659V35.5259C49.6049 36.7535 50.3979 37.614 51.6589 37.614C52.5949 37.614 53.3229 37.1331 53.5439 36.2979H54.6229C54.3629 37.5887 53.2709 38.5379 51.7369 38.5379ZM49.6309 34.5768H53.5959C53.4919 33.4631 52.7119 32.843 51.6069 32.843C50.6319 32.843 49.7349 33.5264 49.6309 34.5768ZM61.2827 38.4999L58.6957 32.0078H59.8267L61.8677 37.1584L63.8437 32.0078H64.9747L61.9197 39.5503C61.5037 40.588 61.2567 40.993 60.3207 40.993H59.0467V40.0438H59.9957C60.6067 40.0438 60.7107 39.892 60.9577 39.2845L61.2827 38.4999ZM68.4929 38.5379C66.5559 38.5379 65.2819 37.2597 65.2819 35.2475C65.2819 33.2733 66.5949 31.9319 68.5189 31.9319C70.1439 31.9319 71.1709 32.8177 71.4439 34.2351H70.3259C70.1309 33.3746 69.4809 32.8557 68.5059 32.8557C67.2319 32.8557 66.3739 33.8428 66.3739 35.2475C66.3739 36.6522 67.2319 37.614 68.5059 37.614C69.4549 37.614 70.1049 37.0825 70.3129 36.2599H71.4439C71.1839 37.652 70.1049 38.5379 68.4929 38.5379ZM75.2574 38.4619H74.1914V32.9569H71.7994V32.0078H77.6494V32.9569H75.2574V38.4619ZM81.8696 31.9319C83.7026 31.9319 85.0546 33.1341 85.0546 35.2349C85.0546 37.2091 83.7026 38.5379 81.8696 38.5379C80.7516 38.5379 79.9976 38.0949 79.5946 37.4748V40.993H78.5286V32.0078H79.4516L79.5946 33.0455C80.0366 32.4507 80.7516 31.9319 81.8696 31.9319ZM81.7656 37.614C83.0786 37.614 83.9626 36.6396 83.9626 35.2349C83.9626 33.8301 83.0786 32.8557 81.7656 32.8557C80.4656 32.8557 79.5816 33.8301 79.5816 35.2096C79.5816 36.6269 80.4656 37.614 81.7656 37.614ZM89.3277 38.5379C87.3907 38.5379 86.0387 37.1964 86.0387 35.2349C86.0387 33.2733 87.3907 31.9319 89.3277 31.9319C91.2647 31.9319 92.6167 33.2733 92.6167 35.2349C92.6167 37.1964 91.2647 38.5379 89.3277 38.5379ZM89.3277 37.614C90.6407 37.614 91.5247 36.6143 91.5247 35.2349C91.5247 33.8555 90.6407 32.8557 89.3277 32.8557C88.0147 32.8557 87.1307 33.8555 87.1307 35.2349C87.1307 36.6143 88.0147 37.614 89.3277 37.614ZM96.7771 31.2738C95.5291 31.2738 94.9051 30.6031 94.8791 29.54H95.7631C95.7631 30.1601 96.0491 30.5398 96.7901 30.5398C97.5311 30.5398 97.8431 30.1601 97.8431 29.54H98.7271C98.7011 30.6031 98.0381 31.2738 96.7771 31.2738ZM94.7751 38.4619H93.8391V32.0078H94.8791V36.8927L98.8311 32.0078H99.7671V38.4619H98.7271V33.5644L94.7751 38.4619ZM104.205 38.5379C102.268 38.5379 100.994 37.2597 100.994 35.2475C100.994 33.2733 102.307 31.9319 104.231 31.9319C105.856 31.9319 106.883 32.8177 107.156 34.2351H106.038C105.843 33.3746 105.193 32.8557 104.218 32.8557C102.944 32.8557 102.086 33.8428 102.086 35.2475C102.086 36.6522 102.944 37.614 104.218 37.614C105.167 37.614 105.817 37.0825 106.025 36.2599H107.156C106.896 37.652 105.817 38.5379 104.205 38.5379ZM110.969 38.4619H109.903V32.9569H107.511V32.0078H113.361V32.9569H110.969V38.4619ZM117.101 38.4619H114.241V32.0078H117.062C118.7 32.0078 119.493 32.6279 119.493 33.7416C119.493 34.5515 118.947 34.9944 118.401 35.121C119.168 35.2349 119.74 35.7031 119.74 36.589C119.74 37.8418 118.83 38.4619 117.101 38.4619ZM115.307 32.8937V34.754H117.153C118.037 34.754 118.414 34.3996 118.414 33.8175C118.414 33.1974 118.037 32.8937 117.153 32.8937H115.307ZM115.307 35.6145V37.5761H117.257C118.167 37.5761 118.661 37.2723 118.661 36.6016C118.661 35.9689 118.167 35.6145 117.257 35.6145H115.307ZM126.781 37.5128H127.119V38.4619H126.534C125.65 38.4619 125.351 38.0949 125.338 37.4622C124.922 38.0443 124.259 38.5379 123.115 38.5379C121.659 38.5379 120.671 37.8292 120.671 36.6522C120.671 35.3614 121.594 34.6401 123.336 34.6401H125.286V34.1971C125.286 33.3619 124.675 32.8557 123.635 32.8557C122.699 32.8557 122.075 33.286 121.945 33.944H120.879C121.035 32.6785 122.088 31.9319 123.687 31.9319C125.377 31.9319 126.352 32.7545 126.352 34.2604V37.0825C126.352 37.4242 126.482 37.5128 126.781 37.5128ZM125.286 35.8297V35.5133H123.232C122.283 35.5133 121.75 35.855 121.75 36.589C121.75 37.2217 122.309 37.652 123.193 37.652C124.519 37.652 125.286 36.9053 125.286 35.8297Z"
            fill="white" />
        <path
            d="M147.815 96.0278H27.9766C23.5583 96.0278 19.9766 99.5145 19.9766 103.816V116.763C19.9766 121.064 23.5583 124.551 27.9766 124.551H147.815C152.233 124.551 155.815 121.064 155.815 116.763V103.816C155.815 99.5145 152.233 96.0278 147.815 96.0278Z"
            fill="#303030" />
        <path
            d="M33.8447 114.525V105.666H37.0687C39.0057 105.666 40.0847 106.577 40.0847 108.007C40.0847 109.02 39.5127 109.64 38.6547 109.931C39.6167 110.108 40.4617 110.715 40.4617 111.994C40.4617 113.563 39.3177 114.525 37.1597 114.525H33.8447ZM37.1207 106.666H34.9757V109.513H37.1207C38.2907 109.513 38.9537 108.982 38.9537 108.083C38.9537 107.197 38.3037 106.666 37.1207 106.666ZM37.1597 110.5H34.9757V113.525H37.1597C38.5637 113.525 39.3047 112.955 39.3047 112.044C39.3047 111.044 38.5117 110.5 37.1597 110.5ZM44.4809 114.525H41.7249V108.07H42.7909V110.171H44.4809C46.1319 110.171 47.0809 110.969 47.0809 112.348C47.0809 113.715 46.1319 114.525 44.4809 114.525ZM49.2259 114.525H48.1599V108.07H49.2259V114.525ZM42.7909 111.057V113.639H44.3119C45.4039 113.639 46.0019 113.171 46.0019 112.348C46.0019 111.5 45.4039 111.057 44.3119 111.057H42.7909ZM53.6648 114.601C51.7278 114.601 50.4538 113.322 50.4538 111.31C50.4538 109.336 51.7668 107.995 53.6908 107.995C55.3158 107.995 56.3428 108.88 56.6158 110.298H55.4978C55.3028 109.437 54.6528 108.918 53.6778 108.918C52.4038 108.918 51.5458 109.906 51.5458 111.31C51.5458 112.715 52.4038 113.677 53.6778 113.677C54.6268 113.677 55.2768 113.145 55.4848 112.323H56.6158C56.3558 113.715 55.2768 114.601 53.6648 114.601ZM60.6998 114.601C58.7628 114.601 57.4108 113.259 57.4108 111.298C57.4108 109.336 58.7628 107.995 60.6998 107.995C62.6368 107.995 63.9888 109.336 63.9888 111.298C63.9888 113.259 62.6368 114.601 60.6998 114.601ZM60.6998 113.677C62.0128 113.677 62.8968 112.677 62.8968 111.298C62.8968 109.918 62.0128 108.918 60.6998 108.918C59.3868 108.918 58.5028 109.918 58.5028 111.298C58.5028 112.677 59.3868 113.677 60.6998 113.677ZM66.2772 114.525H65.2112V108.07H66.2772V110.766H67.6942L69.7612 108.07H70.9962L68.5782 111.171L71.2042 114.525H69.9172L67.7072 111.715H66.2772V114.525ZM77.5996 113.575H77.9376V114.525H77.3526C76.4686 114.525 76.1696 114.158 76.1566 113.525C75.7406 114.107 75.0776 114.601 73.9336 114.601C72.4776 114.601 71.4896 113.892 71.4896 112.715C71.4896 111.424 72.4126 110.703 74.1546 110.703H76.1046V110.26C76.1046 109.425 75.4936 108.918 74.4536 108.918C73.5176 108.918 72.8936 109.349 72.7636 110.007H71.6976C71.8536 108.741 72.9066 107.995 74.5056 107.995C76.1956 107.995 77.1706 108.817 77.1706 110.323V113.145C77.1706 113.487 77.3006 113.575 77.5996 113.575ZM76.1046 111.892V111.576H74.0506C73.1016 111.576 72.5686 111.918 72.5686 112.652C72.5686 113.284 73.1276 113.715 74.0116 113.715C75.3376 113.715 76.1046 112.968 76.1046 111.892ZM81.0841 108.07H83.9961V114.525H82.9301V112.31H81.1621L79.5371 114.525H78.2891L80.1091 112.171C79.0431 111.943 78.4581 111.234 78.4581 110.197C78.4581 108.868 79.4071 108.07 81.0841 108.07ZM81.1101 111.411H82.9301V108.956H81.1101C80.1091 108.956 79.5371 109.374 79.5371 110.171C79.5371 111.006 80.1091 111.411 81.1101 111.411ZM91.8269 114.601C89.8899 114.601 88.6159 113.322 88.6159 111.31C88.6159 109.336 89.9289 107.995 91.8529 107.995C93.4779 107.995 94.5049 108.88 94.7779 110.298H93.6599C93.4649 109.437 92.8149 108.918 91.8399 108.918C90.5659 108.918 89.7079 109.906 89.7079 111.31C89.7079 112.715 90.5659 113.677 91.8399 113.677C92.7889 113.677 93.4389 113.145 93.6469 112.323H94.7779C94.5179 113.715 93.4389 114.601 91.8269 114.601ZM97.0126 114.525H95.9466V108.07H97.0126V110.766H98.4296L100.497 108.07H101.732L99.3136 111.171L101.94 114.525H100.653L98.4426 111.715H97.0126V114.525ZM105.451 114.601C103.514 114.601 102.162 113.259 102.162 111.298C102.162 109.336 103.514 107.995 105.451 107.995C107.388 107.995 108.74 109.336 108.74 111.298C108.74 113.259 107.388 114.601 105.451 114.601ZM105.451 113.677C106.764 113.677 107.648 112.677 107.648 111.298C107.648 109.918 106.764 108.918 105.451 108.918C104.138 108.918 103.254 109.918 103.254 111.298C103.254 112.677 104.138 113.677 105.451 113.677ZM113.303 107.995C115.136 107.995 116.488 109.197 116.488 111.298C116.488 113.272 115.136 114.601 113.303 114.601C112.185 114.601 111.431 114.158 111.028 113.538V117.056H109.962V108.07H110.885L111.028 109.108C111.47 108.513 112.185 107.995 113.303 107.995ZM113.199 113.677C114.512 113.677 115.396 112.702 115.396 111.298C115.396 109.893 114.512 108.918 113.199 108.918C111.899 108.918 111.015 109.893 111.015 111.272C111.015 112.69 111.899 113.677 113.199 113.677ZM120.762 114.601C118.825 114.601 117.473 113.259 117.473 111.298C117.473 109.336 118.825 107.995 120.762 107.995C122.699 107.995 124.051 109.336 124.051 111.298C124.051 113.259 122.699 114.601 120.762 114.601ZM120.762 113.677C122.075 113.677 122.959 112.677 122.959 111.298C122.959 109.918 122.075 108.918 120.762 108.918C119.449 108.918 118.565 109.918 118.565 111.298C118.565 112.677 119.449 113.677 120.762 113.677ZM128.25 114.601C126.313 114.601 125.039 113.322 125.039 111.31C125.039 109.336 126.352 107.995 128.276 107.995C129.901 107.995 130.928 108.88 131.201 110.298H130.083C129.888 109.437 129.238 108.918 128.263 108.918C126.989 108.918 126.131 109.906 126.131 111.31C126.131 112.715 126.989 113.677 128.263 113.677C129.212 113.677 129.862 113.145 130.07 112.323H131.201C130.941 113.715 129.862 114.601 128.25 114.601ZM135.014 114.525H133.948V109.02H131.556V108.07H137.406V109.02H135.014V114.525ZM141.133 114.525H138.286V108.07H139.352V110.171H141.133C142.784 110.171 143.733 110.969 143.733 112.348C143.733 113.715 142.784 114.525 141.133 114.525ZM139.352 111.057V113.639H140.964C142.056 113.639 142.654 113.171 142.654 112.348C142.654 111.5 142.056 111.057 140.964 111.057H139.352Z"
            fill="white" />
    </g>
    <defs>
        <linearGradient id="paint0_linear_1197_2586" x1="585.045" y1="508.212" x2="335.947" y2="-158.291"
            gradientUnits="userSpaceOnUse">
            <stop stop-color="#1F1F1F" />
            <stop offset="1" stop-color="#0C0C0C" />
        </linearGradient>
        <clipPath id="clip0_1197_2586">
            <rect width="836" height="367" fill="white" />
        </clipPath>
    </defs>
</svg>
