<svg width="405" height="109" viewBox="0 0 405 109" fill="none" xmlns="http://www.w3.org/2000/svg">
    <path
        d="M0.0874624 67.2671C-1.43283 42.7335 17.0478 21.6018 41.3652 20.068L358.129 0.0882398C382.447 -1.44556 403.392 17.1994 404.913 41.7329C406.433 66.2665 387.952 87.3982 363.635 88.932L46.8706 108.912C22.5532 110.446 1.60775 91.8006 0.0874624 67.2671Z"
        fill="white" fill-opacity="0.1" />
    <path
        d="M118.861 62.3572C119.027 65.0408 118.488 67.2588 117.245 69.011C115.98 70.7875 114.04 71.7582 111.425 71.9231C108.833 72.0866 106.8 71.3665 105.326 69.7628C103.851 68.159 103.032 66.0268 102.867 63.366L102.852 63.1262C102.542 58.1243 103.193 54.4204 104.805 52.0144C106.429 49.6077 109.12 48.2858 112.878 48.0487C113.353 48.0188 113.759 47.8785 114.096 47.628C114.443 47.3653 114.609 47.1084 114.593 46.8571L117.616 46.6665C117.678 47.6715 117.25 48.564 116.333 49.3441C115.415 50.1128 114.293 50.5389 112.969 50.6225C110.931 50.751 109.361 51.257 108.256 52.1407C107.151 53.0129 106.412 54.2805 106.037 55.9435C107.23 54.653 108.653 53.9557 110.305 53.8514C112.931 53.6858 114.976 54.3995 116.438 55.9925C117.888 57.5748 118.696 59.6964 118.861 62.3572ZM106.129 62.9195C106.25 64.8723 106.741 66.4635 107.601 67.6933C108.44 68.9473 109.663 69.5236 111.27 69.4222C112.855 69.3223 114.009 68.596 114.732 67.2435C115.42 65.8817 115.705 64.2415 115.586 62.323C115.469 60.4273 114.984 58.8471 114.133 57.5824C113.249 56.3312 112.014 55.7556 110.43 55.8556C108.822 55.957 107.68 56.6825 107.002 58.0322C106.3 59.3605 106.009 60.9896 106.129 62.9195Z"
        fill="white" />
    <path
        d="M120.034 53.2378L123.124 53.0429L123.537 59.7063L127.374 59.4643C129.989 59.2994 131.939 59.5948 133.225 60.3506C134.521 61.1057 135.23 62.4539 135.35 64.3953C135.473 66.3709 134.943 67.8144 133.761 68.7259C132.579 69.6374 130.674 70.1759 128.048 70.3415L121.121 70.7785L120.034 53.2378ZM124.035 67.7401L127.872 67.498C129.547 67.3924 130.731 67.1401 131.422 66.7411C132.113 66.3421 132.427 65.6344 132.364 64.618C132.302 63.6131 131.897 62.9508 131.15 62.631C130.414 62.3106 129.215 62.2028 127.551 62.3078L123.713 62.5498L124.035 67.7401ZM137.811 69.7258L136.724 52.1851L139.831 51.9891L140.918 69.5298L137.811 69.7258Z"
        fill="white" />
    <path
        d="M157.085 56.1802L153.723 56.3922C153.597 55.4601 153.153 54.7085 152.39 54.1376C151.639 53.5659 150.737 53.3132 149.684 53.3796C148.077 53.481 146.934 54.2066 146.257 55.5562C145.555 56.8845 145.264 58.5136 145.383 60.4435C145.504 62.3963 145.995 63.9876 146.855 65.2173C147.694 66.4713 148.918 67.0476 150.525 66.9463C151.634 66.8763 152.531 66.4987 153.216 65.8135C153.901 65.1283 154.224 64.294 154.186 63.3104L157.548 63.0984C157.553 64.8406 156.922 66.2963 155.654 67.4654C154.364 68.6588 152.706 69.3194 150.68 69.4472C148.099 69.6099 146.065 68.867 144.576 67.2183C143.1 65.5803 142.276 63.3909 142.107 60.6502C141.938 57.9323 142.485 55.668 143.748 53.8572C145.021 52.0343 146.949 51.0415 149.529 50.8787C151.555 50.7509 153.258 51.1766 154.637 52.1559C156.027 53.1344 156.843 54.4758 157.085 56.1802Z"
        fill="white" />
    <path
        d="M163.738 68.0905L162.816 53.222L157.315 53.569L157.149 50.8968L171.208 50.0101L171.373 52.6823L165.906 53.0271L166.828 67.8956L163.738 68.0905Z"
        fill="white" />
    <path
        d="M172.94 49.9008L176.03 49.7059L176.173 52.0184L176.564 51.9938C177.209 51.0474 177.981 50.2994 178.879 49.7498C179.776 49.1888 180.74 48.8758 181.77 48.8108C183.128 48.7251 184.399 49.0634 185.582 49.8257C186.765 50.5765 187.746 51.6496 188.526 53.0449C189.296 54.4752 189.732 56.0069 189.833 57.6399C189.937 59.3071 189.693 60.8759 189.102 62.3462C188.522 63.8044 187.681 64.9867 186.578 65.8932C185.486 66.7989 184.267 67.2943 182.92 67.3792C180.815 67.512 178.974 66.6881 177.398 64.9073L176.973 64.9341L177.475 73.0364L174.385 73.2313L172.94 49.9008ZM176.573 58.4763C176.689 60.3491 177.268 61.9004 178.31 63.1301C179.352 64.3484 180.58 64.913 181.995 64.8237C183.376 64.7366 184.508 64.0232 185.39 62.6835C186.284 61.3317 186.673 59.7194 186.557 57.8466C186.44 55.9623 185.855 54.4057 184.801 53.1766C183.759 51.9469 182.548 51.3756 181.167 51.4627C179.752 51.5519 178.603 52.2721 177.721 53.6232C176.838 54.9629 176.456 56.5806 176.573 58.4763Z"
        fill="white" />
    <path
        d="M191.005 48.7614L194.095 48.5665L194.508 55.2299L198.345 54.9878C200.96 54.8229 202.91 55.1184 204.195 55.8742C205.492 56.6293 206.201 57.9775 206.321 59.9189C206.443 61.8945 205.913 63.338 204.731 64.2495C203.549 65.1609 201.645 65.6995 199.019 65.8651L192.092 66.302L191.005 48.7614ZM195.006 63.2636L198.843 63.0216C200.518 62.9159 201.701 62.6636 202.392 62.2646C203.084 61.8656 203.398 61.158 203.335 60.1416C203.272 59.1367 202.868 58.4743 202.121 58.1546C201.385 57.8341 200.185 57.7264 198.521 57.8313L194.684 58.0734L195.006 63.2636ZM208.782 65.2493L207.695 47.7087L210.802 47.5127L211.889 65.0534L208.782 65.2493Z"
        fill="white" />
    <path
        d="M216.354 54.3162L225.607 53.7326C225.294 52.1588 224.713 50.9401 223.864 50.0765C223.026 49.2122 221.957 48.8211 220.655 48.9032C219.353 48.9853 218.34 49.5078 217.616 50.4706C216.891 51.4335 216.471 52.7153 216.354 54.3162ZM213.077 56.1738C212.909 53.4559 213.456 51.1916 214.719 49.3808C215.992 47.5579 217.919 46.5651 220.5 46.4023C223.103 46.2381 225.137 46.9696 226.602 48.5969C228.041 50.1914 228.862 52.3465 229.065 55.0622L229.134 56.1756L216.451 56.9756C216.707 58.725 217.264 60.1 218.121 61.1006C218.978 62.1012 220.103 62.5576 221.496 62.4698C222.537 62.4041 223.396 62.0519 224.072 61.4131C224.76 60.7736 225.246 59.906 225.53 58.8104L228.875 58.5995C228.492 60.4923 227.688 61.999 226.462 63.1196C225.235 64.2287 223.631 64.8458 221.651 64.9707C219.07 65.1335 217.035 64.3906 215.547 62.7419C214.07 61.1039 213.247 58.9145 213.077 56.1738Z"
        fill="white" />
    <path
        d="M252.742 50.1466L249.381 50.3587C249.255 49.4266 248.81 48.675 248.048 48.104C247.296 47.5323 246.394 47.2797 245.342 47.3461C243.734 47.4475 242.592 48.173 241.914 49.5227C241.213 50.851 240.921 52.4801 241.041 54.41C241.162 56.3628 241.653 57.954 242.513 59.1838C243.352 60.4378 244.575 61.0141 246.182 60.9127C247.292 60.8427 248.189 60.4652 248.874 59.78C249.558 59.0948 249.882 58.2604 249.843 57.2769L253.205 57.0648C253.211 58.8071 252.58 60.2627 251.311 61.4319C250.021 62.6252 248.364 63.2858 246.337 63.4136C243.757 63.5764 241.722 62.8334 240.234 61.1847C238.757 59.5468 237.934 57.3574 237.764 54.6167C237.596 51.8988 238.143 49.6345 239.406 47.8237C240.679 46.0008 242.606 45.008 245.187 44.8452C247.213 44.7174 248.915 45.1431 250.294 46.1223C251.684 47.1008 252.5 48.4422 252.742 50.1466Z"
        fill="white" />
    <path
        d="M257.85 51.6989L267.103 51.1153C266.79 49.5415 266.209 48.3228 265.36 47.4592C264.522 46.5949 263.452 46.2038 262.151 46.2859C260.849 46.368 259.836 46.8905 259.111 47.8533C258.387 48.8161 257.967 50.098 257.85 51.6989ZM254.573 53.5565C254.405 50.8386 254.952 48.5742 256.214 46.7635C257.488 44.9406 259.415 43.9477 261.996 43.785C264.599 43.6208 266.633 44.3523 268.097 45.9796C269.537 47.574 270.358 49.7291 270.56 52.4449L270.629 53.5583L257.946 54.3583C258.203 56.1076 258.759 57.4826 259.617 58.4833C260.474 59.4839 261.599 59.9403 262.991 59.8525C264.033 59.7868 264.892 59.4346 265.568 58.7958C266.255 58.1563 266.741 57.2887 267.026 56.1931L270.371 55.9821C269.988 57.875 269.184 59.3817 267.958 60.5023C266.731 61.6114 265.127 62.2285 263.146 62.3534C260.566 62.5162 258.531 61.7732 257.042 60.1245C255.566 58.4866 254.743 56.2972 254.573 53.5565Z"
        fill="white" />
    <path
        d="M271.755 43.6681L274.845 43.4732L274.989 45.7857L275.379 45.761C276.025 44.8146 276.797 44.0666 277.695 43.517C278.592 42.956 279.555 42.643 280.585 42.5781C281.943 42.4924 283.214 42.8307 284.398 43.5929C285.581 44.3437 286.562 45.4168 287.342 46.8121C288.112 48.2425 288.548 49.7741 288.649 51.4071C288.752 53.0744 288.509 54.6432 287.918 56.1135C287.338 57.5717 286.496 58.754 285.394 59.6604C284.302 60.5662 283.083 61.0615 281.736 61.1465C279.63 61.2793 277.79 60.4553 276.213 58.6746L275.789 58.7014L276.291 66.8036L273.201 66.9986L271.755 43.6681ZM275.389 52.2435C275.505 54.1164 276.084 55.6676 277.126 56.8974C278.167 58.1157 279.396 58.6802 280.81 58.591C282.191 58.5039 283.323 57.7905 284.206 56.4508C285.1 55.099 285.488 53.4866 285.372 51.6138C285.255 49.7296 284.67 48.1729 283.617 46.9439C282.575 45.7142 281.363 45.1428 279.982 45.2299C278.568 45.3192 277.419 46.0394 276.537 47.3905C275.654 48.7302 275.271 50.3478 275.389 52.2435Z"
        fill="white" />
    <path
        d="M293.356 49.5281L298.925 49.1769C299.672 49.1298 300.238 48.8992 300.621 48.4852C301.015 48.0591 301.192 47.5149 301.151 46.8526C301.109 46.1788 300.859 45.6328 300.401 45.2146C299.944 44.7963 299.347 44.6104 298.611 44.6568L293.076 45.0059L293.356 49.5281ZM290.907 60.0693L289.82 42.5286L298.48 41.9825C300.03 41.8847 301.349 42.2543 302.435 43.0915C303.532 43.928 304.12 44.9857 304.199 46.2648C304.289 47.7151 303.679 48.7796 302.369 49.4584C303.503 49.7881 304.36 50.3302 304.941 51.0846C305.521 51.8276 305.843 52.7129 305.907 53.7407C305.999 55.2253 305.556 56.5086 304.577 57.5906C303.612 58.6948 301.941 59.339 299.566 59.5231L290.907 60.0693ZM293.832 57.2022L299.231 56.8616C301.733 56.7039 302.929 55.7399 302.819 53.9699C302.798 53.6387 302.764 53.3657 302.717 53.1509C302.669 52.9246 302.569 52.6845 302.417 52.4304C302.265 52.1763 302.059 51.9772 301.8 51.833C301.552 51.6767 301.192 51.5618 300.722 51.4883C300.262 51.4026 299.71 51.3802 299.064 51.4209L293.495 51.7721L293.832 57.2022Z"
        fill="white" />
    <path
        d="M310.382 48.3855L319.635 47.8018C319.322 46.2281 318.74 45.0094 317.891 44.1458C317.054 43.2815 315.984 42.8904 314.682 42.9725C313.381 43.0546 312.368 43.577 311.643 44.5399C310.919 45.5027 310.498 46.7846 310.382 48.3855ZM307.105 50.243C306.936 47.5252 307.484 45.2608 308.746 43.4501C310.02 41.6272 311.947 40.6343 314.527 40.4715C317.131 40.3073 319.165 41.0389 320.629 42.6662C322.069 44.2606 322.89 46.4157 323.092 49.1315L323.161 50.2449L310.478 51.0449C310.734 52.7942 311.291 54.1692 312.149 55.1698C313.006 56.1705 314.131 56.6269 315.523 56.5391C316.565 56.4734 317.423 56.1212 318.1 55.4824C318.787 54.8428 319.273 53.9753 319.558 52.8797L322.902 52.6687C322.52 54.5616 321.715 56.0683 320.489 57.1888C319.263 58.298 317.659 58.9151 315.678 59.04C313.097 59.2028 311.063 58.4598 309.574 56.8111C308.098 55.1731 307.275 52.9838 307.105 50.243Z"
        fill="white" />
    <path
        d="M324.287 40.3547L327.377 40.1598L327.52 42.4723L327.911 42.4476C328.557 41.5012 329.329 40.7532 330.226 40.2036C331.123 39.6426 332.087 39.3296 333.117 39.2646C334.475 39.179 335.746 39.5172 336.93 40.2795C338.113 41.0303 339.094 42.1034 339.873 43.4987C340.644 44.929 341.08 46.4607 341.181 48.0937C341.284 49.761 341.041 51.3298 340.45 52.8001C339.87 54.2582 339.028 55.4406 337.925 56.347C336.834 57.2528 335.615 57.7481 334.268 57.8331C332.162 57.9659 330.322 57.1419 328.745 55.3612L328.321 55.3879L328.823 63.4902L325.733 63.6851L324.287 40.3547ZM327.921 48.9301C328.037 50.8029 328.616 52.3542 329.658 53.584C330.699 54.8023 331.927 55.3668 333.342 55.2776C334.723 55.1905 335.855 54.4771 336.738 53.1374C337.631 51.7856 338.02 50.1732 337.904 48.3004C337.787 46.4162 337.202 44.8595 336.149 43.6305C335.107 42.4007 333.895 41.8294 332.514 41.9165C331.099 42.0058 329.951 42.7259 329.069 44.0771C328.186 45.4167 327.803 47.0344 327.921 48.9301Z"
        fill="white" />
    <path
        d="M342.352 39.2152L345.442 39.0203L345.855 45.6837L349.693 45.4417C352.307 45.2768 354.257 45.5722 355.543 46.328C356.839 47.0831 357.548 48.4314 357.668 50.3727C357.791 52.3483 357.261 53.7919 356.079 54.7033C354.897 55.6148 352.993 56.1533 350.367 56.319L343.439 56.7559L342.352 39.2152ZM346.353 53.7175L350.19 53.4754C351.866 53.3698 353.049 53.1175 353.74 52.7185C354.431 52.3195 354.745 51.6118 354.682 50.5954C354.62 49.5905 354.215 48.9282 353.468 48.6084C352.732 48.288 351.533 48.1802 349.869 48.2852L346.032 48.5272L346.353 53.7175ZM360.129 55.7032L359.042 38.1625L362.149 37.9665L363.236 55.5072L360.129 55.7032Z"
        fill="white" />
    <path
        d="M62.6133 41.0959C62.9118 40.6183 63.4816 40.3899 64.0239 40.5293C64.5663 40.669 64.9584 41.1452 64.9934 41.7088L65.9113 56.5215L76.965 55.8243C77.4485 55.7938 77.9087 56.0385 78.1558 56.4587C78.403 56.879 78.3948 57.4043 78.1365 57.8178L62.3561 83.0742C62.0577 83.5519 61.4879 83.7804 60.9456 83.6409C60.4033 83.501 60.011 83.0249 59.9761 82.4613L59.0581 67.6487L48.0044 68.3459C47.521 68.3763 47.0607 68.1318 46.8136 67.7115C46.5667 67.2912 46.5747 66.7657 46.8329 66.3524L62.6133 41.0959Z"
        fill="white" />
</svg>
