<svg width="509" height="127" viewBox="0 0 509 127" fill="none" xmlns="http://www.w3.org/2000/svg">
    <path
        d="M0.190479 39.9075C2.43015 15.7312 23.8306 -2.05065 47.9898 0.190614L469.121 39.2592C493.28 41.5005 511.049 62.9162 508.81 87.0925C506.57 111.269 485.169 129.051 461.01 126.809L39.8792 87.7408C15.7201 85.4995 -2.04919 64.0838 0.190479 39.9075Z"
        fill="white" fill-opacity="0.1" />
    <path
        d="M104.037 60.3063L104.312 57.3353C105.302 57.4272 106.077 57.0791 106.638 56.2912C107.199 55.4921 107.656 54.1156 108.007 52.1619C108.335 50.331 108.687 47.3899 109.062 43.3386L121.393 44.4826L119.792 61.7678L116.722 61.483L118.079 46.8311L111.888 46.2568C111.516 49.911 111.12 52.7175 110.7 54.6762C110.282 56.6236 109.55 58.0937 108.505 59.0864C107.461 60.0791 105.971 60.4857 104.037 60.3063Z"
        fill="white" />
    <path
        d="M127.669 62.4986L123.114 44.6422L126.538 44.9599L129.934 59.3548L130.879 59.4424L137.08 45.9379L140.488 46.254L131.325 65.4597C130.642 66.7129 130.074 67.642 129.621 68.2469C129.179 68.8529 128.701 69.3022 128.186 69.595C127.626 69.8836 126.98 69.9939 126.25 69.9261C125.8 69.8844 125.161 69.7344 124.335 69.4761L124.588 66.7415C125.041 66.8743 125.408 66.9537 125.689 66.9798C126.206 67.0278 126.664 66.9171 127.064 66.6477C127.474 66.3793 127.871 65.8884 128.255 65.1749L129.39 62.6583L127.669 62.4986Z"
        fill="white" />
    <path
        d="M151.808 64.738L152.394 58.4079C151.088 59.0359 149.637 59.2758 148.04 59.1277C146.083 58.9461 144.482 58.2981 143.235 57.1837C141.989 56.0692 141.466 54.4261 141.667 52.2542L142.208 46.4136L145.278 46.6984L144.74 52.5052C144.629 53.7093 144.91 54.6491 145.585 55.3246C146.271 56.0012 147.171 56.3911 148.284 56.4944C149.341 56.5924 150.168 56.6011 150.765 56.5203C151.363 56.4395 151.985 56.2078 152.633 55.8252L153.409 47.4527L156.479 47.7375L154.878 65.0228L151.808 64.738Z"
        fill="white" />
    <path
        d="M158.199 47.8971L161.269 48.1819L159.912 62.8339L165.799 63.38L167.156 48.7281L170.226 49.0129L168.869 63.6648L174.739 64.2094L176.096 49.5574L179.167 49.8423L177.565 67.1275L156.598 65.1824L158.199 47.8971Z"
        fill="white" />
    <path
        d="M183.61 57.337L192.803 58.1898C192.735 56.6058 192.348 55.3271 191.645 54.3538C190.952 53.3816 189.959 52.8354 188.666 52.7155C187.373 52.5955 186.296 52.9497 185.437 53.7779C184.578 54.6062 183.969 55.7926 183.61 57.337ZM180.103 58.6461C180.351 55.9678 181.234 53.8421 182.753 52.269C184.283 50.6858 186.33 50.0131 188.894 50.251C191.481 50.4909 193.37 51.5175 194.563 53.3307C195.737 55.1081 196.217 57.3375 196.002 60.0189L195.901 61.1161L183.3 59.9471C183.286 61.6937 183.624 63.1212 184.316 64.2296C185.007 65.3379 186.044 65.9562 187.427 66.0845C188.462 66.1805 189.361 65.9688 190.123 65.4493C190.897 64.9309 191.507 64.159 191.954 63.1335L195.277 63.4418C194.612 65.2302 193.592 66.577 192.215 67.4821C190.839 68.376 189.167 68.7316 187.199 68.549C184.635 68.3112 182.746 67.2734 181.533 65.4356C180.33 63.6101 179.853 61.3469 180.103 58.6461Z"
        fill="white" />
    <path
        d="M201.052 58.9551L210.245 59.8079C210.176 58.2239 209.79 56.9452 209.086 55.9719C208.394 54.9996 207.401 54.4535 206.108 54.3335C204.814 54.2136 203.738 54.5677 202.879 55.396C202.019 56.2243 201.41 57.4107 201.052 58.9551ZM197.545 60.2641C197.793 57.5858 198.676 55.4602 200.194 53.8871C201.725 52.3039 203.772 51.6312 206.336 51.869C208.922 52.109 210.812 53.1356 212.005 54.9488C213.179 56.7261 213.659 58.9555 213.444 61.637L213.343 62.7342L200.742 61.5652C200.728 63.3118 201.066 64.7393 201.757 65.8476C202.449 66.956 203.486 67.5743 204.869 67.7026C205.904 67.7986 206.802 67.5869 207.565 67.0674C208.339 66.549 208.949 65.7771 209.396 64.7516L212.719 65.0599C212.054 66.8483 211.033 68.195 209.656 69.1002C208.281 69.994 206.609 70.3497 204.641 70.1671C202.077 69.9293 200.188 68.8914 198.975 67.0536C197.771 65.2281 197.295 62.965 197.545 60.2641Z"
        fill="white" />
    <path
        d="M222.872 53.8968L225.942 54.1816L225.731 56.4605L226.119 56.4965C226.898 55.6721 227.772 55.0608 228.739 54.6624C229.707 54.2528 230.702 54.0955 231.726 54.1904C233.075 54.3156 234.274 54.8411 235.322 55.7669C236.372 56.6815 237.174 57.8796 237.729 59.3612C238.269 60.8754 238.464 62.4372 238.315 64.0464C238.163 65.6894 237.684 67.183 236.879 68.5271C236.087 69.8609 235.079 70.8854 233.856 71.6005C232.644 72.3167 231.369 72.6126 230.03 72.4885C227.939 72.2944 226.253 71.2074 224.973 69.2272L224.552 69.1881L223.812 77.1724L220.742 76.8876L222.872 53.8968ZM225.141 62.8243C224.97 64.6698 225.304 66.2728 226.142 67.6331C226.981 68.9822 228.103 69.7219 229.509 69.8523C230.881 69.9796 232.103 69.4574 233.176 68.2856C234.261 67.1037 234.889 65.59 235.06 63.7444C235.232 61.8876 234.893 60.2785 234.044 58.9172C233.206 57.5569 232.101 56.8131 230.729 56.6858C229.323 56.5554 228.083 57.0816 227.01 58.2646C225.937 59.4363 225.314 60.9562 225.141 62.8243Z"
        fill="white" />
    <path
        d="M243.357 62.8798L252.55 63.7326C252.482 62.1486 252.095 60.8699 251.392 59.8966C250.699 58.9243 249.706 58.3782 248.413 58.2582C247.12 58.1383 246.043 58.4924 245.184 59.3207C244.325 60.149 243.716 61.3354 243.357 62.8798ZM239.85 64.1888C240.098 61.5105 240.982 59.3848 242.5 57.8118C244.03 56.2286 246.077 55.5559 248.641 55.7937C251.228 56.0337 253.117 57.0603 254.311 58.8735C255.484 60.6508 255.964 62.8802 255.75 65.5617L255.648 66.6589L243.047 65.4899C243.033 67.2365 243.371 68.664 244.063 69.7723C244.754 70.8807 245.791 71.499 247.174 71.6273C248.209 71.7233 249.108 71.5116 249.87 70.9921C250.644 70.4737 251.255 69.7018 251.701 68.6763L255.024 68.9846C254.359 70.773 253.339 72.1197 251.962 73.0249C250.586 73.9187 248.914 74.2744 246.946 74.0918C244.382 73.854 242.493 72.8161 241.28 70.9783C240.077 69.1528 239.6 66.8897 239.85 64.1888Z"
        fill="white" />
    <path
        d="M258.261 57.1799L261.331 57.4647L259.974 72.1167L265.861 72.6628L267.218 58.0109L270.288 58.2957L268.931 72.9477L274.801 73.4922L276.158 58.8403L279.228 59.1251L277.627 76.4103L256.66 74.4652L258.261 57.1799Z"
        fill="white" />
    <path
        d="M283.672 66.6198L292.865 67.4727C292.797 65.8886 292.41 64.6099 291.707 63.6366C291.014 62.6644 290.021 62.1183 288.728 61.9983C287.435 61.8783 286.358 62.2325 285.499 63.0608C284.64 63.8891 284.031 65.0754 283.672 66.6198ZM280.165 67.9289C280.413 65.2506 281.297 63.1249 282.815 61.5519C284.345 59.9686 286.392 59.2959 288.956 59.5338C291.543 59.7737 293.432 60.8003 294.625 62.6135C295.799 64.3909 296.279 66.6203 296.064 69.3017L295.963 70.3989L283.362 69.23C283.348 70.9766 283.686 72.404 284.378 73.5124C285.069 74.6207 286.106 75.239 287.489 75.3674C288.524 75.4633 289.423 75.2516 290.185 74.7322C290.959 74.2137 291.569 73.4418 292.016 72.4163L295.339 72.7246C294.674 74.513 293.654 75.8598 292.277 76.7649C290.901 77.6588 289.229 78.0144 287.261 77.8319C284.697 77.594 282.808 76.5562 281.595 74.7184C280.392 72.8929 279.915 70.6297 280.165 67.9289Z"
        fill="white" />
    <path
        d="M296.975 78.2053L298.576 60.92L301.646 61.2048L301.038 67.7712L309.202 68.5286L309.81 61.9622L312.88 62.247L311.279 79.5323L308.209 79.2475L308.958 71.1619L300.794 70.4045L300.045 78.4901L296.975 78.2053Z"
        fill="white" />
    <path
        d="M313 79.6919L314.601 62.4066L317.671 62.6914L316.495 75.3853L316.849 75.4181L326.173 63.4801L329.799 63.8166L328.198 81.1018L325.128 80.817L326.304 68.1232L325.967 68.0919L316.626 80.0283L313 79.6919Z"
        fill="white" />
    <path
        d="M334.277 71.3144L343.47 72.1673C343.401 70.5832 343.015 69.3046 342.311 68.3312C341.618 67.359 340.626 66.8129 339.332 66.6929C338.039 66.5729 336.963 66.9271 336.104 67.7554C335.244 68.5837 334.635 69.77 334.277 71.3144ZM330.77 72.6235C331.018 69.9452 331.901 67.8195 333.419 66.2465C334.95 64.6632 336.997 63.9905 339.561 64.2284C342.147 64.4683 344.037 65.4949 345.23 67.3081C346.404 69.0855 346.883 71.3149 346.669 73.9963L346.567 75.0935L333.967 73.9246C333.952 75.6712 334.291 77.0986 334.982 78.207C335.673 79.3153 336.711 79.9337 338.094 80.062C339.128 80.158 340.027 79.9462 340.79 79.4268C341.564 78.9084 342.174 78.1364 342.621 77.1109L345.944 77.4192C345.279 79.2076 344.258 80.5544 342.881 81.4595C341.505 82.3534 339.834 82.709 337.866 82.5265C335.302 82.2886 333.413 81.2508 332.199 79.413C330.996 77.5875 330.52 75.3243 330.77 72.6235Z"
        fill="white" />
    <path
        d="M372.816 67.7732L371.465 82.3577L374.029 82.5955L373.369 89.7189L370.299 89.4341L370.706 85.0453L357.565 83.8263L357.159 88.2151L354.089 87.9303L354.739 80.9082L356.882 81.1069C357.827 79.7191 358.56 78.4762 359.082 77.3782C359.545 76.2974 359.907 75.0201 360.168 73.5461C360.437 71.8686 360.706 69.5781 360.975 66.6747L372.816 67.7732ZM360.306 81.4246L368.386 82.1741L369.502 70.1217L363.767 69.5897C363.42 72.5993 362.98 74.9647 362.446 76.6858C361.864 78.5613 361.151 80.1409 360.306 81.4246Z"
        fill="white" />
    <path
        d="M375.513 85.4913L375.788 82.5204C376.778 82.6122 377.553 82.2642 378.114 81.4763C378.676 80.6771 379.132 79.3007 379.483 77.347C379.812 75.516 380.163 72.5749 380.539 68.5237L392.869 69.6676L391.268 86.9529L388.198 86.6681L389.555 72.0161L383.365 71.4418C382.992 75.096 382.596 77.9025 382.177 79.8612C381.758 81.8086 381.026 83.2787 379.982 84.2714C378.937 85.2641 377.447 85.6707 375.513 85.4913Z"
        fill="white" />
    <path
        d="M407.917 88.4974L404.847 88.2126L405.474 81.4437L403.399 81.2512C402.522 81.1698 401.557 81.3073 400.503 81.6635C399.449 82.0197 398.508 82.6304 397.679 83.4956C396.766 84.4098 396.231 85.7221 396.072 87.4326L392.817 87.1306C393.186 85.3488 393.732 83.9808 394.456 83.0264C395.155 82.0924 396.233 81.2277 397.691 80.4322L397.709 80.2296C395.403 79.2893 394.364 77.5868 394.593 75.1223C394.763 73.288 395.516 72.0129 396.853 71.297C398.201 70.5821 400.156 70.3436 402.72 70.5815L409.518 71.2121L407.917 88.4974ZM397.666 75.3734C397.574 76.3637 397.881 77.0902 398.587 77.5529C399.293 78.0156 400.427 78.3195 401.99 78.4645L405.718 78.8104L406.204 73.5606L402.476 73.2148C400.88 73.0667 399.698 73.1444 398.933 73.4479C398.179 73.7525 397.757 74.3943 397.666 75.3734Z"
        fill="white" />
    <path
        d="M416.57 89.3002L418.172 72.0149L421.242 72.2997L420.066 84.9936L420.42 85.0265L429.743 73.0884L433.37 73.4249L431.769 90.7101L428.699 90.4253L429.875 77.7315L429.537 77.7002L420.197 89.6366L416.57 89.3002Z"
        fill="white" />
    <path
        d="M433.54 90.8745L435.141 73.5892L446.173 74.6126L445.929 77.2459L437.967 76.5073L436.61 91.1593L433.54 90.8745Z"
        fill="white" />
    <path
        d="M447.893 74.7722L450.963 75.057L450.752 77.3359L451.14 77.3718C451.92 76.5475 452.793 75.9362 453.76 75.5378C454.728 75.1282 455.724 74.9709 456.747 75.0658C458.096 75.191 459.295 75.7165 460.344 76.6423C461.393 77.5569 462.195 78.755 462.75 80.2365C463.29 81.7508 463.486 83.3126 463.337 84.9218C463.185 86.5648 462.706 88.0584 461.901 89.4025C461.108 90.7363 460.1 91.7608 458.877 92.4759C457.665 93.192 456.39 93.488 455.052 93.3639C452.96 93.1698 451.275 92.0827 449.995 90.1026L449.573 90.0635L448.834 98.0478L445.763 97.763L447.893 74.7722ZM450.163 83.6997C449.992 85.5452 450.325 87.1482 451.163 88.5085C452.002 89.8575 453.125 90.5973 454.531 90.7277C455.902 90.8549 457.125 90.3327 458.197 89.161C459.282 87.9791 459.91 86.4654 460.081 84.6198C460.253 82.763 459.915 81.1539 459.065 79.7925C458.227 78.4322 457.122 77.6884 455.75 77.5612C454.345 77.4308 453.105 77.957 452.031 79.14C450.959 80.3117 450.336 81.8316 450.163 83.6997Z"
        fill="white" />
    <path
        d="M68.6014 23.9782C68.9678 23.5581 69.5633 23.4226 70.0755 23.642C70.5878 23.8617 70.9011 24.3868 70.8498 24.9422L69.4976 39.5391L80.4794 40.5579C80.9596 40.6025 81.3752 40.9121 81.5544 41.3601C81.7335 41.8082 81.6455 42.3198 81.3285 42.6835L61.9567 64.9058C61.5903 65.3261 60.995 65.4615 60.4826 65.242C59.9704 65.0222 59.6569 64.4972 59.7083 63.9418L61.0606 49.3449L50.0788 48.3261C49.5985 48.2815 49.1829 47.9721 49.0037 47.5239C48.8248 47.0758 48.9127 46.5641 49.2297 46.2005L68.6014 23.9782Z"
        fill="white" />
</svg>
