<svg width="652" height="263" viewBox="0 0 652 263" fill="none" xmlns="http://www.w3.org/2000/svg">
    <path
        d="M247.087 67.2671C245.567 42.7335 264.048 21.6018 288.365 20.068L605.129 0.0882398C629.447 -1.44556 650.392 17.1994 651.913 41.7329C653.433 66.2665 634.952 87.3982 610.635 88.932L293.871 108.912C269.553 110.446 248.608 91.8006 247.087 67.2671Z"
        fill="white" fill-opacity="0.1" />
    <path
        d="M365.861 62.3572C366.027 65.0408 365.488 67.2588 364.245 69.011C362.98 70.7875 361.04 71.7582 358.425 71.9231C355.833 72.0866 353.8 71.3665 352.326 69.7628C350.851 68.159 350.032 66.0268 349.867 63.366L349.852 63.1262C349.542 58.1243 350.193 54.4204 351.805 52.0144C353.429 49.6077 356.12 48.2858 359.878 48.0487C360.353 48.0188 360.759 47.8785 361.096 47.628C361.443 47.3653 361.609 47.1084 361.593 46.8571L364.616 46.6665C364.678 47.6715 364.25 48.564 363.333 49.3441C362.415 50.1128 361.293 50.5389 359.969 50.6225C357.931 50.751 356.361 51.257 355.256 52.1407C354.151 53.0129 353.412 54.2805 353.037 55.9435C354.23 54.653 355.653 53.9557 357.305 53.8514C359.931 53.6858 361.976 54.3995 363.438 55.9925C364.888 57.5748 365.696 59.6964 365.861 62.3572ZM353.129 62.9195C353.25 64.8723 353.741 66.4635 354.601 67.6933C355.44 68.9473 356.663 69.5236 358.27 69.4222C359.855 69.3223 361.009 68.596 361.732 67.2435C362.42 65.8817 362.705 64.2415 362.586 62.323C362.469 60.4273 361.984 58.8471 361.133 57.5824C360.249 56.3312 359.014 55.7556 357.43 55.8556C355.822 55.957 354.68 56.6825 354.002 58.0322C353.3 59.3605 353.009 60.9896 353.129 62.9195Z"
        fill="white" />
    <path
        d="M367.034 53.2378L370.124 53.0429L370.537 59.7063L374.374 59.4643C376.989 59.2994 378.939 59.5948 380.225 60.3506C381.521 61.1057 382.23 62.4539 382.35 64.3953C382.473 66.3709 381.943 67.8144 380.761 68.7259C379.579 69.6374 377.674 70.1759 375.048 70.3415L368.121 70.7785L367.034 53.2378ZM371.035 67.7401L374.872 67.498C376.547 67.3924 377.731 67.1401 378.422 66.7411C379.113 66.3421 379.427 65.6344 379.364 64.618C379.302 63.6131 378.897 62.9508 378.15 62.631C377.414 62.3106 376.215 62.2028 374.551 62.3078L370.713 62.5498L371.035 67.7401ZM384.811 69.7258L383.724 52.1851L386.831 51.9891L387.918 69.5298L384.811 69.7258Z"
        fill="white" />
    <path
        d="M404.085 56.1802L400.723 56.3922C400.597 55.4601 400.153 54.7085 399.39 54.1376C398.639 53.5659 397.737 53.3132 396.684 53.3796C395.077 53.481 393.934 54.2066 393.257 55.5562C392.555 56.8845 392.264 58.5136 392.383 60.4435C392.504 62.3963 392.995 63.9876 393.855 65.2173C394.694 66.4713 395.918 67.0476 397.525 66.9463C398.634 66.8763 399.531 66.4987 400.216 65.8135C400.901 65.1283 401.224 64.294 401.186 63.3104L404.548 63.0984C404.553 64.8406 403.922 66.2963 402.654 67.4654C401.364 68.6588 399.706 69.3194 397.68 69.4472C395.099 69.6099 393.065 68.867 391.576 67.2183C390.1 65.5803 389.276 63.3909 389.107 60.6502C388.938 57.9323 389.485 55.668 390.748 53.8572C392.021 52.0343 393.949 51.0415 396.529 50.8787C398.555 50.7509 400.258 51.1766 401.637 52.1559C403.027 53.1344 403.843 54.4758 404.085 56.1802Z"
        fill="white" />
    <path
        d="M410.738 68.0905L409.816 53.222L404.315 53.569L404.149 50.8968L418.208 50.0101L418.373 52.6823L412.906 53.0271L413.828 67.8956L410.738 68.0905Z"
        fill="white" />
    <path
        d="M419.94 49.9008L423.03 49.7059L423.173 52.0184L423.564 51.9938C424.209 51.0474 424.981 50.2994 425.879 49.7498C426.776 49.1888 427.74 48.8758 428.77 48.8108C430.128 48.7251 431.399 49.0634 432.582 49.8257C433.765 50.5765 434.746 51.6496 435.526 53.0449C436.296 54.4752 436.732 56.0069 436.833 57.6399C436.937 59.3071 436.693 60.8759 436.102 62.3462C435.522 63.8044 434.681 64.9867 433.578 65.8932C432.486 66.7989 431.267 67.2943 429.92 67.3792C427.815 67.512 425.974 66.6881 424.398 64.9073L423.973 64.9341L424.475 73.0364L421.385 73.2313L419.94 49.9008ZM423.573 58.4763C423.689 60.3491 424.268 61.9004 425.31 63.1301C426.352 64.3484 427.58 64.913 428.995 64.8237C430.376 64.7366 431.508 64.0232 432.39 62.6835C433.284 61.3317 433.673 59.7194 433.557 57.8466C433.44 55.9623 432.855 54.4057 431.801 53.1766C430.759 51.9469 429.548 51.3756 428.167 51.4627C426.752 51.5519 425.603 52.2721 424.721 53.6232C423.838 54.9629 423.456 56.5806 423.573 58.4763Z"
        fill="white" />
    <path
        d="M438.005 48.7614L441.095 48.5665L441.508 55.2299L445.345 54.9878C447.96 54.8229 449.91 55.1184 451.195 55.8742C452.492 56.6293 453.201 57.9775 453.321 59.9189C453.443 61.8945 452.913 63.338 451.731 64.2495C450.549 65.1609 448.645 65.6995 446.019 65.8651L439.092 66.302L438.005 48.7614ZM442.006 63.2636L445.843 63.0216C447.518 62.9159 448.701 62.6636 449.392 62.2646C450.084 61.8656 450.398 61.158 450.335 60.1416C450.272 59.1367 449.868 58.4743 449.121 58.1546C448.385 57.8341 447.185 57.7264 445.521 57.8313L441.684 58.0734L442.006 63.2636ZM455.782 65.2493L454.695 47.7087L457.802 47.5127L458.889 65.0534L455.782 65.2493Z"
        fill="white" />
    <path
        d="M463.354 54.3162L472.607 53.7326C472.294 52.1588 471.713 50.9401 470.864 50.0765C470.026 49.2122 468.957 48.8211 467.655 48.9032C466.353 48.9853 465.34 49.5078 464.616 50.4706C463.891 51.4335 463.471 52.7153 463.354 54.3162ZM460.077 56.1738C459.909 53.4559 460.456 51.1916 461.719 49.3808C462.992 47.5579 464.919 46.5651 467.5 46.4023C470.103 46.2381 472.137 46.9696 473.602 48.5969C475.041 50.1914 475.862 52.3465 476.065 55.0622L476.134 56.1756L463.451 56.9756C463.707 58.725 464.264 60.1 465.121 61.1006C465.978 62.1012 467.103 62.5576 468.496 62.4698C469.537 62.4041 470.396 62.0519 471.072 61.4131C471.76 60.7736 472.246 59.906 472.53 58.8104L475.875 58.5995C475.492 60.4923 474.688 61.999 473.462 63.1196C472.235 64.2287 470.631 64.8458 468.651 64.9707C466.07 65.1335 464.035 64.3906 462.547 62.7419C461.07 61.1039 460.247 58.9145 460.077 56.1738Z"
        fill="white" />
    <path
        d="M499.742 50.1466L496.381 50.3587C496.255 49.4266 495.81 48.675 495.048 48.104C494.296 47.5323 493.394 47.2797 492.342 47.3461C490.734 47.4475 489.592 48.173 488.914 49.5227C488.213 50.851 487.921 52.4801 488.041 54.41C488.162 56.3628 488.653 57.954 489.513 59.1838C490.352 60.4378 491.575 61.0141 493.182 60.9127C494.292 60.8427 495.189 60.4652 495.874 59.78C496.558 59.0948 496.882 58.2604 496.843 57.2769L500.205 57.0648C500.211 58.8071 499.58 60.2627 498.311 61.4319C497.021 62.6252 495.364 63.2858 493.337 63.4136C490.757 63.5764 488.722 62.8334 487.234 61.1847C485.757 59.5468 484.934 57.3574 484.764 54.6167C484.596 51.8988 485.143 49.6345 486.406 47.8237C487.679 46.0008 489.606 45.008 492.187 44.8452C494.213 44.7174 495.915 45.1431 497.294 46.1223C498.684 47.1008 499.5 48.4422 499.742 50.1466Z"
        fill="white" />
    <path
        d="M504.85 51.6989L514.103 51.1153C513.79 49.5415 513.209 48.3228 512.36 47.4592C511.522 46.5949 510.452 46.2038 509.151 46.2859C507.849 46.368 506.836 46.8905 506.111 47.8533C505.387 48.8161 504.967 50.098 504.85 51.6989ZM501.573 53.5565C501.405 50.8386 501.952 48.5742 503.214 46.7635C504.488 44.9406 506.415 43.9477 508.996 43.785C511.599 43.6208 513.633 44.3523 515.097 45.9796C516.537 47.574 517.358 49.7291 517.56 52.4449L517.629 53.5583L504.946 54.3583C505.203 56.1076 505.759 57.4826 506.617 58.4833C507.474 59.4839 508.599 59.9403 509.991 59.8525C511.033 59.7868 511.892 59.4346 512.568 58.7958C513.255 58.1563 513.741 57.2887 514.026 56.1931L517.371 55.9821C516.988 57.875 516.184 59.3817 514.958 60.5023C513.731 61.6114 512.127 62.2285 510.146 62.3534C507.566 62.5162 505.531 61.7732 504.042 60.1245C502.566 58.4866 501.743 56.2972 501.573 53.5565Z"
        fill="white" />
    <path
        d="M518.755 43.6681L521.845 43.4732L521.989 45.7857L522.379 45.761C523.025 44.8146 523.797 44.0666 524.695 43.517C525.592 42.956 526.555 42.643 527.585 42.5781C528.943 42.4924 530.214 42.8307 531.398 43.5929C532.581 44.3437 533.562 45.4168 534.342 46.8121C535.112 48.2425 535.548 49.7741 535.649 51.4071C535.752 53.0744 535.509 54.6432 534.918 56.1135C534.338 57.5717 533.496 58.754 532.394 59.6604C531.302 60.5662 530.083 61.0615 528.736 61.1465C526.63 61.2793 524.79 60.4553 523.213 58.6746L522.789 58.7014L523.291 66.8036L520.201 66.9986L518.755 43.6681ZM522.389 52.2435C522.505 54.1164 523.084 55.6676 524.126 56.8974C525.167 58.1157 526.396 58.6802 527.81 58.591C529.191 58.5039 530.323 57.7905 531.206 56.4508C532.1 55.099 532.488 53.4866 532.372 51.6138C532.255 49.7296 531.67 48.1729 530.617 46.9439C529.575 45.7142 528.363 45.1428 526.982 45.2299C525.568 45.3192 524.419 46.0394 523.537 47.3905C522.654 48.7302 522.271 50.3478 522.389 52.2435Z"
        fill="white" />
    <path
        d="M540.356 49.5281L545.925 49.1769C546.672 49.1298 547.238 48.8992 547.621 48.4852C548.015 48.0591 548.192 47.5149 548.151 46.8526C548.109 46.1788 547.859 45.6328 547.401 45.2146C546.944 44.7963 546.347 44.6104 545.611 44.6568L540.076 45.0059L540.356 49.5281ZM537.907 60.0693L536.82 42.5286L545.48 41.9825C547.03 41.8847 548.349 42.2543 549.435 43.0915C550.532 43.928 551.12 44.9857 551.199 46.2648C551.289 47.7151 550.679 48.7796 549.369 49.4584C550.503 49.7881 551.36 50.3302 551.941 51.0846C552.521 51.8276 552.843 52.7129 552.907 53.7407C552.999 55.2253 552.556 56.5086 551.577 57.5906C550.612 58.6948 548.941 59.339 546.566 59.5231L537.907 60.0693ZM540.832 57.2022L546.231 56.8616C548.733 56.7039 549.929 55.7399 549.819 53.9699C549.798 53.6387 549.764 53.3657 549.717 53.1509C549.669 52.9246 549.569 52.6845 549.417 52.4304C549.265 52.1763 549.059 51.9772 548.8 51.833C548.552 51.6767 548.192 51.5618 547.722 51.4883C547.262 51.4026 546.71 51.3802 546.064 51.4209L540.495 51.7721L540.832 57.2022Z"
        fill="white" />
    <path
        d="M557.382 48.3855L566.635 47.8018C566.322 46.2281 565.74 45.0094 564.891 44.1458C564.054 43.2815 562.984 42.8904 561.682 42.9725C560.381 43.0546 559.368 43.577 558.643 44.5399C557.919 45.5027 557.498 46.7846 557.382 48.3855ZM554.105 50.243C553.936 47.5252 554.484 45.2608 555.746 43.4501C557.02 41.6272 558.947 40.6343 561.527 40.4715C564.131 40.3073 566.165 41.0389 567.629 42.6662C569.069 44.2606 569.89 46.4157 570.092 49.1315L570.161 50.2449L557.478 51.0449C557.734 52.7942 558.291 54.1692 559.149 55.1698C560.006 56.1705 561.131 56.6269 562.523 56.5391C563.565 56.4734 564.423 56.1212 565.1 55.4824C565.787 54.8428 566.273 53.9753 566.558 52.8797L569.902 52.6687C569.52 54.5616 568.715 56.0683 567.489 57.1888C566.263 58.298 564.659 58.9151 562.678 59.04C560.097 59.2028 558.063 58.4598 556.574 56.8111C555.098 55.1731 554.275 52.9838 554.105 50.243Z"
        fill="white" />
    <path
        d="M571.287 40.3547L574.377 40.1598L574.52 42.4723L574.911 42.4476C575.557 41.5012 576.329 40.7532 577.226 40.2036C578.123 39.6426 579.087 39.3296 580.117 39.2646C581.475 39.179 582.746 39.5172 583.93 40.2795C585.113 41.0303 586.094 42.1034 586.873 43.4987C587.644 44.929 588.08 46.4607 588.181 48.0937C588.284 49.761 588.041 51.3298 587.45 52.8001C586.87 54.2582 586.028 55.4406 584.925 56.347C583.834 57.2528 582.615 57.7481 581.268 57.8331C579.162 57.9659 577.322 57.1419 575.745 55.3612L575.321 55.3879L575.823 63.4902L572.733 63.6851L571.287 40.3547ZM574.921 48.9301C575.037 50.8029 575.616 52.3542 576.658 53.584C577.699 54.8023 578.927 55.3668 580.342 55.2776C581.723 55.1905 582.855 54.4771 583.738 53.1374C584.631 51.7856 585.02 50.1732 584.904 48.3004C584.787 46.4162 584.202 44.8595 583.149 43.6305C582.107 42.4007 580.895 41.8294 579.514 41.9165C578.099 42.0058 576.951 42.7259 576.069 44.0771C575.186 45.4167 574.803 47.0344 574.921 48.9301Z"
        fill="white" />
    <path
        d="M589.352 39.2152L592.442 39.0203L592.855 45.6837L596.693 45.4417C599.307 45.2768 601.257 45.5722 602.543 46.328C603.839 47.0831 604.548 48.4314 604.668 50.3727C604.791 52.3483 604.261 53.7919 603.079 54.7033C601.897 55.6148 599.993 56.1533 597.367 56.319L590.439 56.7559L589.352 39.2152ZM593.353 53.7175L597.19 53.4754C598.866 53.3698 600.049 53.1175 600.74 52.7185C601.431 52.3195 601.745 51.6118 601.682 50.5954C601.62 49.5905 601.215 48.9282 600.468 48.6084C599.732 48.288 598.533 48.1802 596.869 48.2852L593.032 48.5272L593.353 53.7175ZM607.129 55.7032L606.042 38.1625L609.149 37.9665L610.236 55.5072L607.129 55.7032Z"
        fill="white" />
    <path
        d="M309.613 41.0959C309.912 40.6183 310.482 40.3899 311.024 40.5293C311.566 40.669 311.958 41.1452 311.993 41.7088L312.911 56.5215L323.965 55.8243C324.448 55.7938 324.909 56.0385 325.156 56.4587C325.403 56.879 325.395 57.4043 325.137 57.8178L309.356 83.0742C309.058 83.5519 308.488 83.7804 307.946 83.6409C307.403 83.501 307.011 83.0249 306.976 82.4613L306.058 67.6487L295.004 68.3459C294.521 68.3763 294.061 68.1318 293.814 67.7115C293.567 67.2912 293.575 66.7657 293.833 66.3524L309.613 41.0959Z"
        fill="white" />
    <path
        d="M0.190479 175.908C2.43015 151.731 23.8306 133.949 47.9898 136.191L469.121 175.259C493.28 177.5 511.049 198.916 508.81 223.092C506.57 247.269 485.169 265.051 461.01 262.809L39.8792 223.741C15.7201 221.5 -2.04919 200.084 0.190479 175.908Z"
        fill="white" fill-opacity="0.1" />
    <path
        d="M104.037 196.306L104.312 193.335C105.302 193.427 106.077 193.079 106.638 192.291C107.199 191.492 107.656 190.116 108.007 188.162C108.335 186.331 108.687 183.39 109.062 179.339L121.393 180.483L119.792 197.768L116.722 197.483L118.079 182.831L111.888 182.257C111.516 185.911 111.12 188.717 110.7 190.676C110.282 192.624 109.55 194.094 108.505 195.086C107.461 196.079 105.971 196.486 104.037 196.306Z"
        fill="white" />
    <path
        d="M127.669 198.499L123.114 180.642L126.538 180.96L129.934 195.355L130.879 195.442L137.08 181.938L140.488 182.254L131.325 201.46C130.642 202.713 130.074 203.642 129.621 204.247C129.179 204.853 128.7 205.302 128.186 205.595C127.626 205.884 126.98 205.994 126.25 205.926C125.8 205.884 125.161 205.734 124.335 205.476L124.588 202.742C125.041 202.874 125.408 202.954 125.689 202.98C126.206 203.028 126.664 202.917 127.064 202.648C127.474 202.379 127.871 201.888 128.255 201.175L129.39 198.658L127.669 198.499Z"
        fill="white" />
    <path
        d="M151.808 200.738L152.394 194.408C151.088 195.036 149.637 195.276 148.04 195.128C146.083 194.946 144.482 194.298 143.235 193.184C141.989 192.069 141.466 190.426 141.667 188.254L142.208 182.414L145.278 182.698L144.74 188.505C144.629 189.709 144.91 190.649 145.585 191.325C146.271 192.001 147.171 192.391 148.284 192.494C149.341 192.592 150.168 192.601 150.765 192.52C151.363 192.439 151.985 192.208 152.633 191.825L153.409 183.453L156.479 183.738L154.878 201.023L151.808 200.738Z"
        fill="white" />
    <path
        d="M158.199 183.897L161.269 184.182L159.912 198.834L165.799 199.38L167.156 184.728L170.226 185.013L168.869 199.665L174.739 200.209L176.096 185.557L179.167 185.842L177.565 203.128L156.598 201.182L158.199 183.897Z"
        fill="white" />
    <path
        d="M183.61 193.337L192.803 194.19C192.735 192.606 192.348 191.327 191.645 190.354C190.952 189.382 189.959 188.835 188.666 188.715C187.373 188.595 186.296 188.95 185.437 189.778C184.578 190.606 183.969 191.793 183.61 193.337ZM180.103 194.646C180.351 191.968 181.234 189.842 182.753 188.269C184.283 186.686 186.33 186.013 188.894 186.251C191.481 186.491 193.37 187.517 194.563 189.331C195.737 191.108 196.217 193.337 196.002 196.019L195.901 197.116L183.3 195.947C183.286 197.694 183.624 199.121 184.316 200.23C185.007 201.338 186.044 201.956 187.427 202.085C188.462 202.181 189.361 201.969 190.123 201.449C190.897 200.931 191.507 200.159 191.954 199.133L195.277 199.442C194.612 201.23 193.592 202.577 192.215 203.482C190.839 204.376 189.167 204.732 187.199 204.549C184.635 204.311 182.746 203.273 181.533 201.436C180.33 199.61 179.853 197.347 180.103 194.646Z"
        fill="white" />
    <path
        d="M201.052 194.955L210.245 195.808C210.176 194.224 209.79 192.945 209.086 191.972C208.394 191 207.401 190.454 206.108 190.334C204.814 190.214 203.738 190.568 202.879 191.396C202.019 192.224 201.41 193.411 201.052 194.955ZM197.545 196.264C197.793 193.586 198.676 191.46 200.194 189.887C201.725 188.304 203.772 187.631 206.336 187.869C208.922 188.109 210.812 189.136 212.005 190.949C213.179 192.726 213.659 194.956 213.444 197.637L213.343 198.734L200.742 197.565C200.728 199.312 201.066 200.739 201.757 201.848C202.449 202.956 203.486 203.574 204.869 203.703C205.904 203.799 206.802 203.587 207.565 203.067C208.339 202.549 208.949 201.777 209.396 200.752L212.719 201.06C212.054 202.848 211.033 204.195 209.656 205.1C208.281 205.994 206.609 206.35 204.641 206.167C202.077 205.929 200.188 204.891 198.975 203.054C197.771 201.228 197.295 198.965 197.545 196.264Z"
        fill="white" />
    <path
        d="M222.872 189.897L225.942 190.182L225.731 192.46L226.119 192.496C226.898 191.672 227.772 191.061 228.739 190.662C229.707 190.253 230.702 190.095 231.726 190.19C233.075 190.316 234.274 190.841 235.322 191.767C236.372 192.682 237.174 193.88 237.729 195.361C238.269 196.875 238.464 198.437 238.315 200.046C238.163 201.689 237.684 203.183 236.879 204.527C236.087 205.861 235.079 206.885 233.856 207.601C232.644 208.317 231.369 208.613 230.03 208.488C227.939 208.294 226.253 207.207 224.973 205.227L224.552 205.188L223.812 213.172L220.742 212.888L222.872 189.897ZM225.141 198.824C224.97 200.67 225.304 202.273 226.142 203.633C226.981 204.982 228.103 205.722 229.509 205.852C230.881 205.98 232.103 205.457 233.176 204.286C234.261 203.104 234.889 201.59 235.06 199.744C235.232 197.888 234.893 196.279 234.044 194.917C233.206 193.557 232.101 192.813 230.729 192.686C229.323 192.555 228.083 193.082 227.01 194.265C225.937 195.436 225.314 196.956 225.141 198.824Z"
        fill="white" />
    <path
        d="M243.357 198.88L252.55 199.733C252.482 198.149 252.095 196.87 251.392 195.897C250.699 194.924 249.706 194.378 248.413 194.258C247.12 194.138 246.043 194.492 245.184 195.321C244.325 196.149 243.716 197.335 243.357 198.88ZM239.85 200.189C240.098 197.511 240.982 195.385 242.5 193.812C244.03 192.229 246.077 191.556 248.641 191.794C251.228 192.034 253.117 193.06 254.311 194.873C255.484 196.651 255.964 198.88 255.75 201.562L255.648 202.659L243.047 201.49C243.033 203.237 243.371 204.664 244.063 205.772C244.754 206.881 245.791 207.499 247.174 207.627C248.209 207.723 249.108 207.512 249.87 206.992C250.644 206.474 251.254 205.702 251.701 204.676L255.024 204.985C254.359 206.773 253.339 208.12 251.962 209.025C250.586 209.919 248.914 210.274 246.946 210.092C244.382 209.854 242.493 208.816 241.28 206.978C240.077 205.153 239.6 202.89 239.85 200.189Z"
        fill="white" />
    <path
        d="M258.261 193.18L261.331 193.465L259.974 208.117L265.861 208.663L267.218 194.011L270.288 194.296L268.931 208.948L274.801 209.492L276.158 194.84L279.228 195.125L277.627 212.41L256.66 210.465L258.261 193.18Z"
        fill="white" />
    <path
        d="M283.672 202.62L292.865 203.473C292.797 201.889 292.41 200.61 291.707 199.637C291.014 198.664 290.021 198.118 288.728 197.998C287.435 197.878 286.358 198.232 285.499 199.061C284.64 199.889 284.031 201.075 283.672 202.62ZM280.165 203.929C280.413 201.251 281.297 199.125 282.815 197.552C284.345 195.969 286.392 195.296 288.956 195.534C291.543 195.774 293.432 196.8 294.625 198.614C295.799 200.391 296.279 202.62 296.064 205.302L295.963 206.399L283.362 205.23C283.348 206.977 283.686 208.404 284.378 209.512C285.069 210.621 286.106 211.239 287.489 211.367C288.524 211.463 289.423 211.252 290.185 210.732C290.959 210.214 291.569 209.442 292.016 208.416L295.339 208.725C294.674 210.513 293.654 211.86 292.277 212.765C290.901 213.659 289.229 214.014 287.261 213.832C284.697 213.594 282.808 212.556 281.595 210.718C280.392 208.893 279.915 206.63 280.165 203.929Z"
        fill="white" />
    <path
        d="M296.975 214.205L298.576 196.92L301.646 197.205L301.038 203.771L309.202 204.529L309.81 197.962L312.88 198.247L311.279 215.532L308.209 215.247L308.958 207.162L300.794 206.404L300.045 214.49L296.975 214.205Z"
        fill="white" />
    <path
        d="M313 215.692L314.601 198.407L317.671 198.691L316.495 211.385L316.849 211.418L326.173 199.48L329.799 199.817L328.198 217.102L325.128 216.817L326.304 204.123L325.967 204.092L316.626 216.028L313 215.692Z"
        fill="white" />
    <path
        d="M334.277 207.314L343.47 208.167C343.401 206.583 343.015 205.305 342.311 204.331C341.618 203.359 340.626 202.813 339.332 202.693C338.039 202.573 336.963 202.927 336.104 203.755C335.244 204.584 334.635 205.77 334.277 207.314ZM330.77 208.624C331.018 205.945 331.901 203.82 333.419 202.246C334.95 200.663 336.997 199.991 339.561 200.228C342.147 200.468 344.037 201.495 345.23 203.308C346.404 205.085 346.883 207.315 346.669 209.996L346.567 211.094L333.967 209.925C333.952 211.671 334.291 213.099 334.982 214.207C335.673 215.315 336.711 215.934 338.094 216.062C339.128 216.158 340.027 215.946 340.79 215.427C341.564 214.908 342.174 214.136 342.621 213.111L345.944 213.419C345.279 215.208 344.258 216.554 342.881 217.46C341.505 218.353 339.834 218.709 337.866 218.526C335.302 218.289 333.413 217.251 332.199 215.413C330.996 213.587 330.52 211.324 330.77 208.624Z"
        fill="white" />
    <path
        d="M372.816 203.773L371.465 218.358L374.029 218.596L373.369 225.719L370.299 225.434L370.706 221.045L357.565 219.826L357.159 224.215L354.089 223.93L354.739 216.908L356.882 217.107C357.827 215.719 358.56 214.476 359.082 213.378C359.545 212.297 359.907 211.02 360.168 209.546C360.437 207.869 360.706 205.578 360.975 202.675L372.816 203.773ZM360.306 217.425L368.386 218.174L369.502 206.122L363.767 205.59C363.42 208.599 362.98 210.965 362.446 212.686C361.864 214.561 361.151 216.141 360.306 217.425Z"
        fill="white" />
    <path
        d="M375.513 221.491L375.788 218.52C376.778 218.612 377.553 218.264 378.114 217.476C378.676 216.677 379.132 215.301 379.483 213.347C379.812 211.516 380.163 208.575 380.539 204.524L392.869 205.668L391.268 222.953L388.198 222.668L389.555 208.016L383.365 207.442C382.992 211.096 382.596 213.903 382.177 215.861C381.758 217.809 381.026 219.279 379.982 220.271C378.937 221.264 377.447 221.671 375.513 221.491Z"
        fill="white" />
    <path
        d="M407.917 224.497L404.847 224.213L405.474 217.444L403.399 217.251C402.522 217.17 401.557 217.307 400.503 217.663C399.449 218.02 398.508 218.63 397.679 219.496C396.766 220.41 396.231 221.722 396.072 223.433L392.817 223.131C393.186 221.349 393.732 219.981 394.456 219.026C395.155 218.092 396.233 217.228 397.691 216.432L397.709 216.23C395.403 215.289 394.364 213.587 394.593 211.122C394.763 209.288 395.516 208.013 396.853 207.297C398.2 206.582 400.156 206.344 402.72 206.581L409.518 207.212L407.917 224.497ZM397.666 211.373C397.574 212.364 397.881 213.09 398.587 213.553C399.293 214.016 400.427 214.32 401.99 214.465L405.718 214.81L406.204 209.561L402.476 209.215C400.88 209.067 399.698 209.144 398.933 209.448C398.179 209.753 397.757 210.394 397.666 211.373Z"
        fill="white" />
    <path
        d="M416.57 225.3L418.172 208.015L421.242 208.3L420.066 220.994L420.42 221.026L429.743 209.088L433.37 209.425L431.769 226.71L428.699 226.425L429.875 213.731L429.537 213.7L420.197 225.637L416.57 225.3Z"
        fill="white" />
    <path
        d="M433.54 226.874L435.141 209.589L446.173 210.613L445.929 213.246L437.967 212.507L436.61 227.159L433.54 226.874Z"
        fill="white" />
    <path
        d="M447.893 210.772L450.963 211.057L450.752 213.336L451.14 213.372C451.92 212.548 452.793 211.936 453.76 211.538C454.728 211.128 455.724 210.971 456.747 211.066C458.096 211.191 459.295 211.717 460.344 212.642C461.393 213.557 462.195 214.755 462.75 216.237C463.29 217.751 463.486 219.313 463.337 220.922C463.185 222.565 462.706 224.058 461.901 225.402C461.108 226.736 460.1 227.761 458.877 228.476C457.665 229.192 456.39 229.488 455.052 229.364C452.96 229.17 451.275 228.083 449.995 226.103L449.573 226.063L448.834 234.048L445.763 233.763L447.893 210.772ZM450.163 219.7C449.992 221.545 450.325 223.148 451.163 224.508C452.002 225.858 453.125 226.597 454.531 226.728C455.902 226.855 457.125 226.333 458.197 225.161C459.282 223.979 459.91 222.465 460.081 220.62C460.253 218.763 459.915 217.154 459.065 215.793C458.227 214.432 457.122 213.688 455.75 213.561C454.345 213.431 453.105 213.957 452.031 215.14C450.959 216.312 450.336 217.832 450.163 219.7Z"
        fill="white" />
    <path
        d="M68.6014 159.978C68.9678 159.558 69.5633 159.423 70.0755 159.642C70.5878 159.862 70.9011 160.387 70.8498 160.942L69.4976 175.539L80.4794 176.558C80.9596 176.602 81.3752 176.912 81.5544 177.36C81.7335 177.808 81.6455 178.32 81.3285 178.684L61.9567 200.906C61.5903 201.326 60.995 201.462 60.4826 201.242C59.9704 201.022 59.6569 200.497 59.7083 199.942L61.0606 185.345L50.0788 184.326C49.5985 184.281 49.1829 183.972 49.0037 183.524C48.8248 183.076 48.9127 182.564 49.2297 182.2L68.6014 159.978Z"
        fill="white" />
</svg>
